<?xml version="1.0" standalone="no"?>
<!DOCTYPE svg PUBLIC "-//W3C//DTD SVG 1.1//EN" "http://www.w3.org/Graphics/SVG/1.1/DTD/svg11.dtd" >
<svg xmlns="http://www.w3.org/2000/svg">
<metadata></metadata>
<defs>
<font id="RobotoBkBoldItalic" horiz-adv-x="1151" >
<font-face units-per-em="2048" ascent="1536" descent="-512" />
<missing-glyph horiz-adv-x="510" />
<glyph unicode="&#xfb01;" horiz-adv-x="1302" d="M63 848l35 234h157l8 52q33 224 181.5 335.5t396.5 111.5q139 0 343 -58l-85 -266q-83 22 -139 33t-143 11t-146 -44t-70 -123l-8 -52h212l-35 -234h-212l-127 -848h-338l127 848h-157zM772 0l162 1082h339l-162 -1082h-339z" />
<glyph horiz-adv-x="0" />
<glyph unicode="&#xd;" horiz-adv-x="510" />
<glyph horiz-adv-x="0" />
<glyph unicode="&#x9;" horiz-adv-x="0" />
<glyph unicode=" "  horiz-adv-x="510" />
<glyph unicode="&#x09;" horiz-adv-x="510" />
<glyph unicode="&#xa0;" horiz-adv-x="510" />
<glyph unicode="!" horiz-adv-x="565" d="M35 0l42 283h339l-42 -283h-339zM112 516l141 940h339l-141 -940h-339z" />
<glyph unicode="&#x22;" horiz-adv-x="881" d="M204 932l74 524h246l-39 -275l-137 -249h-144zM561 932l74 524h245l-39 -275l-137 -249h-143z" />
<glyph unicode="#" horiz-adv-x="1190" d="M19 410l27 183h252l83 264h-220l27 183h251l131 416h198l-131 -416h162l131 416h199l-131 -416h231l-27 -183h-262l-83 -264h229l-27 -183h-259l-129 -410h-199l129 410h-162l-128 -410h-199l129 410h-222zM497 593h161l83 264h-161z" />
<glyph unicode="$" horiz-adv-x="1227" d="M85 442l2 5h330q-17 -120 31 -166.5t135.5 -46.5t132.5 42t55.5 117t-21.5 115t-135 86q-228 84 -325.5 184t-71.5 284t156 290t332 122l30 211h158l-30 -215q178 -26 271.5 -143t69.5 -301h-337q26 196 -139 196q-78 0 -120.5 -43.5t-52 -113t21 -107t135.5 -91.5 q221 -74 321 -182t74 -294t-150.5 -288.5t-321.5 -119.5l-28 -201h-159l28 201q-194 18 -310.5 130.5t-81.5 328.5z" />
<glyph unicode="%" horiz-adv-x="1521" d="M176 1099l11 77q20 134 116.5 217.5t249.5 83.5t227 -86.5t55 -214.5l-11 -77q-21 -134 -116 -216.5t-248.5 -82.5t-228.5 86t-55 213zM253 188l882 1138l145 -79l-882 -1138zM392 1099q-8 -51 15 -84t74 -33t84.5 34t41.5 83l11 77q7 52 -15 85.5t-73 33.5t-85.5 -35 t-41.5 -84zM744 280l12 77q19 133 116.5 216.5t250.5 83.5t226.5 -86t55.5 -214l-12 -77q-21 -135 -115.5 -217.5t-248 -82.5t-229.5 86t-56 214zM961 280q-8 -49 19 -83.5t80 -34.5q100 0 117 118l12 77q7 51 -16.5 84.5t-74 33.5t-84.5 -35t-41 -83z" />
<glyph unicode="&#x26;" horiz-adv-x="1380" d="M39 391q17 120 84 198.5t202 175.5l19 11q-96 174 -73 308q29 196 153 294.5t318 98.5q152 0 239 -103t68 -231t-66 -203t-131 -135l-111 -70l193 -269q93 120 114 262h260q-46 -309 -214 -484l176 -244h-376l-62 84q-183 -105 -386 -105t-319 115.5t-88 296.5zM382 417 q-13 -83 26.5 -130.5t93.5 -47.5q99 0 189 38l-212 291q-84 -68 -97 -151zM564 1096q-12 -77 44 -167l49 29q62 36 86 70.5t30.5 78.5t-13.5 77t-68 33t-84.5 -38t-43.5 -83z" />
<glyph unicode="'" horiz-adv-x="440" d="M122 881l81 575h291l-41 -292l-142 -283h-189z" />
<glyph unicode="(" horiz-adv-x="727" d="M124 564l4 28q56 405 239 667t398 341l6 -1l39 -159q-141 -94 -254 -304t-159 -542l-4 -32q-49 -347 4.5 -548.5t170.5 -297.5l-84 -159h-5q-189 77 -299.5 347t-55.5 660z" />
<glyph unicode=")" horiz-adv-x="726" d="M-71 -284q139 95 252.5 304.5t160.5 541.5l4 32q48 346 -5.5 548t-169.5 298l84 159h6q194 -76 311.5 -355t65.5 -652l-4 -28q-55 -389 -247.5 -659.5t-412.5 -348.5l-6 1z" />
<glyph unicode="*" horiz-adv-x="843" d="M60 731l82 175l232 -72l45 248h182l-23 -258l240 73l29 -177l-243 -85l101 -205l-166 -109l-122 204l-180 -195l-135 105l171 214z" />
<glyph unicode="+" horiz-adv-x="1094" d="M46 537l43 289h342l57 380h315l-57 -380h341l-43 -289h-342l-58 -391h-315l58 391h-341z" />
<glyph unicode="," horiz-adv-x="590" d="M-58 -326l119 327l40 263h326l-41 -272l-211 -318h-233z" />
<glyph unicode="-" horiz-adv-x="875" d="M130 497l39 261h589l-39 -261h-589z" />
<glyph unicode="." horiz-adv-x="619" d="M56 0l43 284h337l-43 -284h-337z" />
<glyph unicode="/" horiz-adv-x="811" d="M-128 -125l734 1581h341l-734 -1581h-341z" />
<glyph unicode="0" horiz-adv-x="1186" d="M86 535l58 386q40 271 198.5 413.5t385 142.5t347.5 -149t83 -407l-58 -386q-41 -272 -199.5 -414t-384.5 -142t-347.5 148.5t-82.5 407.5zM420 514q-43 -275 130 -275q77 0 133.5 70t76.5 205l65 430q20 138 -14.5 205.5t-114 67.5t-136 -71t-75.5 -202z" />
<glyph unicode="1" horiz-adv-x="1186" d="M303 1167l39 258l639 52l-222 -1477h-338l175 1167h-293z" />
<glyph unicode="2" horiz-adv-x="1186" d="M26 0l31 220l517 492q200 196 219 321q23 184 -135 184q-75 0 -129.5 -65t-68.5 -164h-330l-2 6q25 210 180.5 346.5t386 136.5t348 -119t89.5 -322q-21 -144 -103 -243.5t-311 -315.5l-208 -211l3 -6h561l-36 -260h-1012z" />
<glyph unicode="3" horiz-adv-x="1186" d="M57 398l2 6h330q-12 -74 30 -119.5t124.5 -45.5t150 51t78.5 125q16 110 -31 156.5t-150 46.5h-160l37 251h160q88 0 146 49.5t69.5 127.5t-31 124.5t-116 46.5t-125 -38t-60.5 -98h-327l-2 6q22 181 178.5 285.5t374.5 104.5t347.5 -109.5t100.5 -306.5 q-16 -104 -87.5 -186.5t-182.5 -128.5q109 -44 161 -130.5t34 -207.5q-32 -208 -199.5 -318.5t-388 -110.5t-360 108t-103.5 311z" />
<glyph unicode="4" horiz-adv-x="1186" d="M34 307l11 208l739 938l1 3h338l-133 -887h147l-39 -262h-147l-46 -307h-338l46 307h-579zM348 574l2 -5h302l68 452l-6 2l-48 -75z" />
<glyph unicode="5" horiz-adv-x="1186" d="M68 378l2 5l335 21q-13 -80 28.5 -122.5t127.5 -42.5t133.5 58t65.5 176q37 252 -141 252q-65 0 -112.5 -29.5t-69.5 -72.5l-300 17l206 816h853l-39 -262h-579l-82 -303q98 63 253 67q204 4 293.5 -124.5t55.5 -355.5t-175 -363t-405 -136q-201 0 -341.5 110.5 t-108.5 288.5z" />
<glyph unicode="6" horiz-adv-x="1186" d="M79 566l44 293q44 299 237 458.5t465 159.5q139 0 287 -61l-93 -246q-128 42 -240 42t-203 -89.5t-116 -261.5l-2 -10q132 111 322 111t276 -137.5t53 -356.5t-194.5 -354t-390.5 -135t-357.5 158.5t-87.5 428.5zM416 566q-25 -165 14.5 -246t123.5 -81t143.5 68 t75.5 173.5t-20.5 164.5t-109.5 59q-142 0 -218 -76z" />
<glyph unicode="7" horiz-adv-x="1186" d="M157 1196l39 260h1053l-39 -260q-271 -264 -390 -486.5t-163 -518.5l-29 -191h-338l29 191q45 303 184.5 539t382.5 466h-729z" />
<glyph unicode="8" horiz-adv-x="1186" d="M54 410q17 121 100.5 211t213.5 139q-90 50 -134.5 131t-28.5 184q30 200 179 301t360 101t327.5 -105t88.5 -297q-17 -110 -81.5 -192t-165.5 -129q107 -52 162 -141t39 -203q-32 -212 -192.5 -321.5t-389.5 -109.5t-369 115t-109 316zM394.5 426q-13.5 -88 36 -137.5 t132 -49.5t142.5 51.5t73 140t-30.5 141.5t-124.5 53t-148 -55.5t-80.5 -143.5zM540.5 1054q-11.5 -79 22 -124t97 -45t106.5 47t54.5 125.5t-16.5 119t-92.5 40.5t-112 -42t-59 -121z" />
<glyph unicode="9" horiz-adv-x="1186" d="M145 968q33 223 196 366t383 143t343 -155t83 -421l-55 -366q-40 -262 -215.5 -409t-414.5 -147q-151 0 -299 63l94 241q115 -44 244 -44q88 0 160 73t91 200l11 79q-114 -116 -270 -116q-191 0 -287.5 135t-63.5 358zM480 958.5q-16 -107.5 15.5 -174t99.5 -66.5 q123 0 203 84l24 161q19 129 -18 191.5t-113 62.5t-135.5 -75.5t-75.5 -183z" />
<glyph unicode=":" horiz-adv-x="613" d="M56 0l43 284h337l-43 -284h-337zM187 876l43 284h337l-43 -284h-337z" />
<glyph unicode=";" horiz-adv-x="579" d="M-7 -326l119 327l40 263h326l-41 -272l-211 -318h-233zM188 876l43 284h337l-43 -284h-337z" />
<glyph unicode="&#x3c;" horiz-adv-x="1044" d="M28 410l39 266l938 360l-45 -306l-581 -186v-6l525 -181l-46 -307z" />
<glyph unicode="=" horiz-adv-x="1195" d="M92 293l39 260h926l-39 -260h-926zM158 732l39 260h926l-39 -260h-926z" />
<glyph unicode="&#x3e;" horiz-adv-x="1050" d="M38 48l46 306l575 186v6l-519 182l46 306l825 -360l-25 -169h-1l-14 -97z" />
<glyph unicode="?" horiz-adv-x="1043" d="M97 1060q29 208 180 312.5t376.5 104.5t348 -121t92.5 -323q-20 -130 -108.5 -232t-214.5 -163q-71 -42 -101 -90.5t-42 -131.5h-338q22 139 82 209t203 161q156 90 181 247q12 86 -24.5 135t-111 49t-127 -41.5t-66.5 -121.5h-329zM229 0l41 270h336l-41 -270h-336z" />
<glyph unicode="@" horiz-adv-x="1809" d="M35.5 478.5q80.5 428.5 359 680t665.5 251.5t565.5 -240.5t101.5 -649.5q-42 -220 -189 -380.5t-391 -160.5q-79 0 -131 46t-65 129q-107 -171 -277 -171q-143 0 -206.5 119.5t-14.5 313.5q64 251 207 402t315 151q116 0 189.5 -27t150.5 -79l-4 -4h6l-136 -566 q-31 -152 33 -152q107 0 193.5 108.5t118.5 270.5q66 339 -54 528.5t-421 189.5t-515.5 -206t-282 -551.5t64 -544.5t433.5 -199q80 0 175.5 19t164.5 46l13 -166q-73 -42 -180 -65.5t-206 -23.5q-388 0 -575.5 251.5t-107 680zM701 416q-53 -243 68 -243q113 0 192 140 l109 453q-50 12 -84 12q-194 0 -285 -362z" />
<glyph unicode="A" horiz-adv-x="1307" d="M-75 0l693 1456h181v-1l1 1h181l258 -1456h-356l-43 283h-432l-127 -283h-356zM524 543h277l-67 451l-6 1z" />
<glyph unicode="B" horiz-adv-x="1306" d="M36 0l218 1456h477q261 0 402 -102q117 -84 117 -234q0 -31 -5 -64q-34 -230 -241 -307q124 -27 172 -115q36 -66 37 -148q0 -27 -4 -55q-67 -431 -618 -431h-555zM413 260h217q216 0 242 173q3 24 3 45q1 63 -29 98q-40 46 -149 49h-230zM501 849h133q242 0 268 169 q3 21 3 39q0 66 -40 98q-51 41 -173 41h-139z" />
<glyph unicode="C" horiz-adv-x="1307" d="M95 576l46 304q41 276 221.5 436.5t445 160.5t400.5 -130q106 -101 106 -269q0 -49 -9 -105l-3 -6h-330q6 41 6 76q0 81 -33 119q-47 56 -167.5 55.5t-198.5 -93t-100 -242.5l-46 -306q-7 -49 -8 -91q-1 -95 37 -157q54 -90 172.5 -89.5t181.5 59.5t83 193h328l2 -6 q-68 -506 -626 -506q-260 0 -404 167q-113 131 -113 320q0 53 9 110z" />
<glyph unicode="D" horiz-adv-x="1338" d="M36 0l218 1456h533q247 0 399 -169q122 -135 123 -328q0 -48 -8 -100l-39 -262q-42 -273 -237.5 -435t-455.5 -162h-533zM413 260h195q110 0 201 95t114 242l39 264q6 41 6 78q0 100 -44 166q-60 91 -176 91h-195z" />
<glyph unicode="E" horiz-adv-x="1143" d="M36 0l218 1456h954l-39 -260h-616l-47 -313h513l-39 -260h-513l-54 -363h615l-39 -260h-953z" />
<glyph unicode="F" horiz-adv-x="1143" d="M36 0l218 1456h973l-39 -260h-635l-53 -350h534l-39 -260h-534l-87 -586h-338z" />
<glyph unicode="G" horiz-adv-x="1353" d="M94 576l46 304q41 274 228.5 435.5t452.5 161.5t394 -126q100 -98 100 -248q0 -44 -8 -91l-2 -6h-318q4 28 4 51q0 72 -37 110q-48 50 -163 50t-203.5 -94t-110.5 -241l-46 -306q-7 -46 -7 -86q0 -97 41 -161q58 -90 188 -90q166 0 239 55l39 260h-258l34 224h596 l-87 -577q-89 -92 -236.5 -157t-365.5 -65q-260 0 -410 167q-118 133 -118 324q0 51 8 106z" />
<glyph unicode="H" horiz-adv-x="1446" d="M36 0l218 1456h338l-92 -610h539l92 610h337l-218 -1456h-337l87 586h-539l-87 -586h-338z" />
<glyph unicode="I" horiz-adv-x="611" d="M57 0l218 1456h337l-218 -1456h-337z" />
<glyph unicode="J" horiz-adv-x="1144" d="M1 440l2 6h331q-5 -30 -5 -55q0 -70 35 -105q46 -47 121.5 -47t128 61t68.5 167l148 989h338l-148 -989q-35 -231 -189.5 -359.5t-381.5 -128.5t-357 119q-100 93 -100 247q0 45 9 95z" />
<glyph unicode="K" horiz-adv-x="1269" d="M38 0l218 1456h338l-87 -576h91l346 576h446l-527 -721l328 -735h-390l-243 578h-96l-86 -578h-338z" />
<glyph unicode="L" horiz-adv-x="1144" d="M36 0l218 1456h338l-179 -1196h625l-39 -260h-963z" />
<glyph unicode="M" horiz-adv-x="1783" d="M36 0l218 1456h443l173 -1018l6 -1l482 1019h447l-218 -1456h-338l140 937l-6 1l-461 -938h-227l-177 924h-6l-138 -924h-338z" />
<glyph unicode="N" horiz-adv-x="1446" d="M36 0l218 1456h338l396 -915l6 1l137 914h337l-218 -1456h-337l-397 916l-6 -1l-136 -915h-338z" />
<glyph unicode="O" horiz-adv-x="1416" d="M99 597l39 262q41 278 236.5 448t467.5 170q272 -1 422 -177q119 -140 119 -335q0 -51 -8 -106l-39 -262q-43 -280 -237 -449t-466 -169q-271 1 -423 177q-119 139 -120 332q0 53 9 109zM436 597q-7 -49 -8 -92q0 -101 42 -169q58 -97 191 -97t223.5 101t114.5 257 l39 264q7 47 7 89q0 101 -41 170q-58 97 -191.5 97t-224 -100.5t-113.5 -255.5z" />
<glyph unicode="P" horiz-adv-x="1306" d="M36 0l218 1456h556q249 0 386 -134q111 -108 111 -270q-1 -38 -7 -80q-32 -218 -201.5 -345.5t-431.5 -127.5h-219l-74 -499h-338zM487 759h219q106 0 175 61.5t83 157.5q3 22 3 42q0 68 -37 116q-48 60 -159 60h-218z" />
<glyph unicode="Q" horiz-adv-x="1447" d="M99 597l39 262q41 278 236.5 448t467.5 170t422 -177q119 -140 119 -335q0 -51 -8 -106l-39 -262q-37 -223 -166 -377l182 -218l-242 -167l-176 207q-142 -63 -307 -63q-266 0 -417 177q-120 138 -120 332q0 53 9 109zM436 597q-7 -49 -7 -92q0 -101 41 -169 q58 -97 191 -97t223.5 101t114.5 257l39 264q7 47 7 89q0 101 -41 170q-58 97 -191.5 97t-224 -100.5t-113.5 -255.5z" />
<glyph unicode="R" horiz-adv-x="1306" d="M36 0l218 1456h507q244 0 379 -118q110 -97 111 -249q0 -34 -6 -70q-37 -229 -286 -327q206 -65 206 -275q0 -33 -5 -71l-14 -92q-5 -34 -5 -73q1 -28 3 -58q6 -72 43 -103l-3 -20h-349q-37 33 -37 130q0 53 11 126l14 88q4 28 4 52q0 162 -188 162h-182l-83 -558h-338z M496 818h172q98 0 160 47t76 136q3 20 4 38q0 63 -37 104q-47 53 -149 53h-169z" />
<glyph unicode="S" horiz-adv-x="1267" d="M92 425l2 6h328q-3 -20 -3 -37q-1 -78 61 -112q76 -42 167 -42.5t151.5 35t68.5 88.5q3 18 3 34q0 65 -41 99q-51 44 -198 98q-259 85 -388 202q-107 97 -107 236q0 30 5 60q27 178 188.5 281.5t399.5 103.5t379 -119q112 -95 112 -246q0 -39 -7 -81l-2 -6h-329 q2 15 2 29q0 66 -46 110q-56 53 -144 53t-147 -36t-67 -88q-2 -14 -2 -27q0 -61 47 -94q57 -40 242 -105q236 -77 351 -195q92 -95 93 -234q-1 -35 -7 -72q-28 -188 -186.5 -287.5t-395.5 -99.5q-238 0 -404 109q-134 88 -134 253q0 40 8 84z" />
<glyph unicode="T" horiz-adv-x="1150" d="M127 1196l39 260h1101l-39 -260h-385l-179 -1196h-338l179 1196h-378z" />
<glyph unicode="U" horiz-adv-x="1417" d="M104 512l141 944h339l-141 -944q-6 -38 -6 -70q-1 -88 43 -136q60 -66 182.5 -66.5t203 68.5t101.5 204l141 944h339l-141 -944q-40 -260 -224.5 -396.5t-449 -136.5t-415.5 143q-121 114 -121 295q0 45 8 95z" />
<glyph unicode="V" horiz-adv-x="1307" d="M138 1456h353l126 -1061l2 -53l6 -1l18 50l448 1065h354l-690 -1456h-365z" />
<glyph unicode="W" horiz-adv-x="1825" d="M150 1456h343l34 -945l6 -1l389 946h255l106 -943l6 -1l318 944h342l-552 -1456h-318l-110 899l-6 1l-378 -900h-318z" />
<glyph unicode="X" horiz-adv-x="1307" d="M-66 0l538 734l-309 722h387l161 -484l6 -1l309 485h390l-525 -722l339 -734h-410l-173 501l-323 -501h-390z" />
<glyph unicode="Y" horiz-adv-x="1307" d="M133 1456h366l193 -637l6 -1l386 638h366l-636 -944l-76 -512h-337l79 528z" />
<glyph unicode="Z" horiz-adv-x="1160" d="M-6 152l713 1044h-534l39 260h972l-21 -146l-718 -1050h631l-39 -260h-1022z" />
<glyph unicode="[" horiz-adv-x="577" d="M-16 -349l288 2055h456l-35 -246h-118l-219 -1564h118l-34 -245h-456z" />
<glyph unicode="\" horiz-adv-x="871" d="M122 1456h338l371 -1581h-339z" />
<glyph unicode="]" horiz-adv-x="577" d="M-110 -349l34 245h119l219 1564h-119l35 246h456l-288 -2055h-456z" />
<glyph unicode="^" horiz-adv-x="916" d="M65 729l408 727h249l191 -727h-254l-103 413l-1 17l-6 1l-7 -18l-224 -413h-253z" />
<glyph unicode="_" horiz-adv-x="904" d="M-118 -251l38 251h903l-38 -251h-903z" />
<glyph unicode="`" horiz-adv-x="695" d="M177 1512l3 6h370l170 -266h-297z" />
<glyph unicode="a" horiz-adv-x="1086" d="M0 314q48 327 536 327h139l12 77q3 19 3 35q0 108 -116 108q-117 0 -133 -113l-328 1l-1 6q17 154 160.5 250.5t348.5 96.5t318 -101q91 -81 91 -215q0 -33 -6 -70l-61 -408q-10 -62 -10 -124q0 -93 22 -184l-334 1q-28 73 -28 167q-57 -86 -129 -137.5t-176 -51.5 q-164 1 -248 89q-65 69 -65 179q0 32 5 67zM339 328q-2 -12 -1 -22q0 -36 20 -58q28 -28 82.5 -28t108 29.5t78.5 69.5l21 142h-136q-77 0 -121 -39.5t-52 -93.5z" />
<glyph unicode="b" d="M16 0l234 1560h338l-88 -583q112 125 261 125q201 0 288 -154q61 -108 62 -266q0 -67 -12 -143l-3 -21q-39 -256 -165 -397.5t-336 -141.5q-167 0 -243 154l-41 -133h-295zM400 307q36 -68 140.5 -68t150.5 71t68 208l3 21q11 71 11 126q0 60 -13 100q-24 77 -123 77 q-106 0 -170 -83z" />
<glyph unicode="c" horiz-adv-x="1048" d="M44 529l4 23q37 253 191.5 401.5t402.5 148.5q198 0 308 -116q84 -89 85 -226q0 -41 -8 -87l-2 -5h-309q4 24 4 46q0 49 -20 81q-28 47 -109.5 47t-134 -80t-71.5 -210l-4 -23q-9 -62 -9 -111q0 -62 15 -104q27 -74 128 -75q66 0 107 38t52 108h307l2 -6 q-24 -184 -165.5 -292t-341.5 -108q-237 1 -353 155q-88 117 -88 283q0 54 9 112z" />
<glyph unicode="d" d="M49 518l3 21q39 262 171 412.5t335 150.5q144 0 223 -141l90 599h338l-234 -1560h-296l-3 131q-123 -152 -301.5 -152t-270.5 150q-66 107 -66 259q0 61 11 130zM387 518q-9 -59 -9 -106q0 -62 16 -102q28 -72 119 -71q105 0 171 80l66 434q-39 89 -135 89t-150.5 -84.5 t-74.5 -218.5z" />
<glyph unicode="e" horiz-adv-x="1070" d="M47 505l5 38q38 257 192 409q152 151 401 150h3q210 0 315 -132q80 -101 80 -256q0 -49 -8 -102l-27 -177h-621l-2 -6v-16q0 -77 42 -123q47 -52 145.5 -51.5t168.5 17t156 50.5l50 -206q-77 -51 -200.5 -86t-253.5 -35q-236 1 -358 151q-95 118 -95 280q0 46 7 95z M417 652l2 -6h291l4 26q5 31 5 56q1 46 -15 72q-24 42 -98 42q-143 0 -189 -190z" />
<glyph unicode="f" horiz-adv-x="734" d="M60 848l35 234h156l17 112q29 194 154.5 290.5t332.5 96.5q57 0 164 -21l-62 -249q-54 10 -107.5 10t-94 -33.5t-48.5 -93.5l-17 -112h214l-35 -234h-214l-127 -848h-339l127 848h-156z" />
<glyph unicode="g" d="M19 -352l96 250q134 -63 260 -63t187 43.5t75 135.5l12 83q-112 -118 -262 -118q-192 0 -284 150q-66 107 -66 259q0 61 11 130l3 21q39 262 171 412.5t335 150.5q160 0 237 -161l44 141h298l-160 -1070q-34 -222 -196 -335.5t-422 -113.5q-173 0 -339 85zM385 518 q-9 -59 -9 -106q0 -61 16 -102q27 -71 120 -71q109 0 169 72l68 451q-39 80 -135 80t-151 -84.5t-75 -218.5z" />
<glyph unicode="h" d="M6 0l234 1560h338l-91 -605q124 147 291.5 147t249.5 -118q56 -82 56 -222q0 -64 -12 -140l-93 -622h-338l94 624q8 55 8 94q-1 54 -15 80q-24 44 -85 44q-112 0 -183 -67l-116 -775h-338z" />
<glyph unicode="i" horiz-adv-x="561" d="M31 0l162 1082h339l-162 -1082h-339zM231 1333l34 227h339l-34 -227h-339z" />
<glyph unicode="j" horiz-adv-x="548" d="M-258 -420l52 255q56 -12 105 -12t85.5 41.5t48.5 120.5l164 1097h339l-164 -1097q-32 -210 -155.5 -316t-318.5 -106q-80 0 -156 17zM229 1334l34 226h339l-34 -226h-339z" />
<glyph unicode="k" horiz-adv-x="1119" d="M16 0l234 1560h338l-132 -875h49l287 397h380l2 -5l-400 -483l298 -594h-385l-208 430h-61l-64 -430h-338z" />
<glyph unicode="l" horiz-adv-x="561" d="M31 0l234 1560h339l-234 -1560h-339z" />
<glyph unicode="m" horiz-adv-x="1764" d="M16 0l162 1082h318l-9 -138q129 158 332.5 158t252.5 -176q128 176 341 176q153 0 229 -114q52 -79 52 -214q0 -62 -11 -135l-96 -639h-339l96 639q7 50 7 86q-1 52 -15 76q-26 41 -82 41q-103 0 -170 -69l-114 -773h-338l96 639q7 50 7 86q-1 52 -15 76q-26 41 -81 41 q-99 0 -169 -68l-116 -774h-338z" />
<glyph unicode="n" d="M10 0l162 1082h317l-9 -147q136 167 330 167q153 0 229 -109q53 -75 52 -210q0 -60 -10 -132l-98 -651h-338l98 652q6 40 6 71q-1 51 -17 77q-26 42 -84 42q-111 0 -186 -75l-115 -767h-337z" />
<glyph unicode="o" d="M51 530l3 21q37 253 196 402t403 149q243 0 363 -155q92 -120 93 -291q0 -50 -8 -105l-3 -21q-39 -254 -197.5 -402.5t-402.5 -148.5q-244 1 -364 155q-92 118 -92 287q0 52 9 109zM389 530q-9 -58 -9 -105q0 -67 18 -111q31 -76 130 -75q187 0 233 291l3 21q8 53 8 98 q0 69 -19 115q-31 78 -130 78t-156 -81t-75 -210z" />
<glyph unicode="p" d="M-46 -416l224 1498h319l-7 -118q115 138 271 138q193 0 284 -156q65 -112 65 -270q0 -65 -11 -137l-3 -21q-39 -253 -169 -396t-332 -143q-151 0 -226 124l-77 -519h-338zM400 308q37 -69 137 -69t150.5 74.5t71.5 204.5l3 21q9 62 9 112q0 191 -132 191q-109 0 -172 -86 z" />
<glyph unicode="q" d="M49 518l3 21q39 262 171 412.5t335 150.5q160 0 237 -160l48 140h295l-224 -1498h-338l77 516q-115 -121 -265 -121q-192 0 -284 150q-66 107 -66 259q0 61 11 130zM387 518q-9 -59 -9 -106q0 -61 16 -102q27 -71 119 -71q110 0 172 74l67 447q-39 82 -136 82 t-151.5 -84.5t-74.5 -218.5z" />
<glyph unicode="r" horiz-adv-x="722" d="M16 0l162 1082h318l-11 -148l5 -3q88 171 242 171q40 0 78 -12l-77 -296l-110 1q-110 0 -163 -85l-106 -710h-338z" />
<glyph unicode="s" horiz-adv-x="1048" d="M15 341l2 6h306q-2 -14 -1 -27q0 -56 32 -84q40 -34 113.5 -34t113.5 27t46 71q1 6 1 12q0 37 -36 64q-40 31 -158 56q-184 36 -269 114q-69 63 -69 169q0 24 4 51q20 142 152.5 239t340 97t325.5 -98q97 -80 97 -195q0 -26 -5 -53l-2 -6h-329q2 16 2 30q-1 43 -21 68 q-28 32 -90 32t-103 -29t-47 -73q-1 -6 -1 -12q1 -36 33 -62q38 -30 196 -62q157 -30 241 -108q68 -62 68 -170q-1 -26 -5 -55q-20 -147 -160.5 -238.5t-354 -91.5t-330.5 113q-96 93 -96 202q0 23 4 47z" />
<glyph unicode="t" horiz-adv-x="723" d="M42 848l35 234h151l41 269h338l-41 -269h171l-35 -234h-171l-74 -496q-3 -18 -3 -34q0 -75 74 -75q42 0 82 10l-15 -250q-96 -24 -192 -24q-161 0 -237 90q-55 65 -55 183q0 45 8 98l74 498h-151z" />
<glyph unicode="u" d="M77 462l93 620h337l-93 -622q-9 -58 -9 -99q1 -51 15 -77q26 -44 86 -45q115 0 182 63l117 780h338l-162 -1082h-272l-16 157q-127 -178 -329 -178q-162 0 -243 119q-56 82 -56 223q0 64 12 141z" />
<glyph unicode="v" horiz-adv-x="1053" d="M82 1082h356l50 -636l3 -115l6 -1l39 116l238 636h355l-514 -1082h-343z" />
<glyph unicode="w" horiz-adv-x="1485" d="M103 1082h322l17 -608l6 -1l268 609h213l87 -605h6l198 605h322l-416 -1082h-286l-92 554l-6 1l-261 -555h-285z" />
<glyph unicode="x" horiz-adv-x="1053" d="M-75 0l407 547l-235 535h377l84 -318l6 -1l185 319h379l-394 -535l243 -547h-379l-95 329h-6l-193 -329h-379z" />
<glyph unicode="y" horiz-adv-x="1053" d="M-52 -411l78 241q24 -6 69 -6t87.5 24t67.5 70l37 70l-210 1094h359l71 -605v-5l6 -2l270 612h360l-617 -1243q-67 -120 -158.5 -198t-263.5 -78q-52 0 -156 26z" />
<glyph unicode="z" horiz-adv-x="1053" d="M-15 0l28 188l571 629l-2 5h-453l39 260h888l-27 -182l-573 -635l2 -5h485l-39 -260h-919z" />
<glyph unicode="{" horiz-adv-x="665" d="M36 505l31 227q79 0 127.5 52t62.5 145l28 203q24 177 122.5 293.5t303.5 171.5l38 -176q-77 -29 -116.5 -103t-55.5 -186l-28 -203q-33 -227 -231 -313q85 -47 121 -127.5t23 -179.5l-28 -203q-17 -116 2 -187.5t88 -101.5l-87 -177q-188 55 -254 175t-41 291l28 203 q27 196 -134 196z" />
<glyph unicode="|" horiz-adv-x="523" d="M22 -270l258 1726h246l-258 -1726h-246z" />
<glyph unicode="}" horiz-adv-x="665" d="M-60 -183q138 53 172 289l28 203q29 224 231 313q-86 46 -122 126t-22 181l28 203q16 115 -3 187t-87 102l88 176q186 -55 252 -174.5t42 -290.5l-28 -203q-28 -197 134 -197l-9 -61h1l-23 -166q-80 0 -128.5 -52.5t-61.5 -143.5l-28 -203q-25 -177 -123.5 -294 t-301.5 -172z" />
<glyph unicode="~" horiz-adv-x="1295" d="M80 435q25 182 127 291.5t242 109.5q158 0 285 -129q38 -43 68.5 -61t71 -18t79.5 50.5t49 121.5l228 -31q-26 -181 -129.5 -291.5t-242.5 -110.5q-159 0 -281 130q-41 43 -71 61t-71.5 18t-80 -50.5t-47.5 -120.5z" />
<glyph unicode="&#xa1;" horiz-adv-x="615" d="M5 -374l141 940h339l-141 -940h-339zM181 799l42 283h339l-42 -283h-339z" />
<glyph unicode="&#xa2;" horiz-adv-x="1210" d="M44 529l4 23q35 240 177 387t371 161l33 218h200l-36 -237q131 -41 196.5 -148t42.5 -265h-316q12 80 -15.5 127t-109.5 47t-134.5 -80t-71.5 -210l-4 -23q-21 -141 6 -215.5t128 -74.5q66 0 107 38t52 108h308l3 -6q-20 -146 -115.5 -245.5t-239.5 -135.5l-36 -243h-200 l34 226q-214 17 -316 168.5t-68 379.5z" />
<glyph unicode="&#xa3;" horiz-adv-x="1227" d="M86 0l39 260h10q49 12 83 86.5t47 156.5l8 72h-164l39 261h154l21 185q32 221 173.5 338.5t354.5 117.5t322 -116t77 -303l-3 -6h-330q13 89 -18 127t-87.5 38t-97 -51.5t-53.5 -144.5l-19 -185h325l-39 -261h-311l-5 -51q-25 -155 -170 -264h689l-39 -260h-1006z" />
<glyph unicode="&#xa4;" horiz-adv-x="1397" d="M7 118l158 140q-80 160 -50 350q30 207 161 368l-119 144l163 144l118 -142q170 112 362 112t333 -120l170 151l120 -145l-173 -153q83 -162 55 -359q-31 -196 -148 -352l116 -138l-164 -145l-109 132q-174 -125 -378.5 -125t-343.5 129l-152 -135zM300 603 q-28 -186 72 -308t269 -122t310 126.5t169 312.5t-72 308t-269 122t-310 -126.5t-169 -312.5z" />
<glyph unicode="&#xa5;" horiz-adv-x="1258" d="M96 269l28 183h323l15 106h-322l27 184h249l-260 714h367l157 -578l6 -1l330 579h366l-473 -714h213l-27 -184h-296l-15 -106h295l-28 -183h-295l-40 -269h-337l40 269h-323z" />
<glyph unicode="&#xa6;" horiz-adv-x="524" d="M-2 -270l120 795h292l-119 -795h-293zM144 698l113 758h292l-113 -758h-292z" />
<glyph unicode="&#xa7;" horiz-adv-x="1301" d="M17 -31l2 6h329q-14 -91 40.5 -124t148.5 -33t150 32.5t64.5 89.5t-40 91t-196.5 78q-237 64 -342 157t-80 262q28 182 195 272q-123 103 -95.5 287.5t187.5 287t403 102.5t371 -111.5t94 -308.5l-2 -6h-329q10 76 -33 121t-137.5 45t-150.5 -35.5t-64.5 -95.5 t35.5 -91.5t199 -74.5q239 -62 344.5 -156.5t79.5 -270.5t-191 -264q118 -104 90 -290.5t-184 -284t-394.5 -97.5t-384.5 98.5t-109 313.5zM435.5 570q-11.5 -75 31 -109.5t137 -64.5t121.5 -38t52 -16q64 43 74.5 113.5t-39 109.5t-136.5 67q-124 38 -171 55 q-58 -42 -69.5 -117z" />
<glyph unicode="&#xa8;" horiz-adv-x="1123" d="M248 1252l29 204h290l-29 -204h-290zM763 1252l29 204h290l-29 -204h-290z" />
<glyph unicode="&#xa9;" horiz-adv-x="1608" d="M115 736q48 320 284.5 530t528 210t472.5 -218t133 -537.5t-285.5 -530.5t-528.5 -211t-471.5 218.5t-132.5 538.5zM235 722q-40 -267 104 -442.5t385.5 -175.5t444 182t243 449t-103 441.5t-385.5 174.5t-445 -181t-243 -448zM452 669l18 119q26 179 135.5 283 t266.5 104t236 -80.5t53 -228.5l-2 -5h-149q14 97 -24 138t-129 41t-153.5 -69.5t-78.5 -181.5l-18 -120q-18 -119 22 -185.5t131 -66.5t143 42t66 137h147l2 -6q-19 -156 -117.5 -232t-255 -76t-238 107.5t-55.5 279.5z" />
<glyph unicode="&#xaa;" horiz-adv-x="904" d="M166.5 925q16.5 109 109 167.5t256.5 58.5h136l8 51q18 127 -97 127q-63 0 -104.5 -26t-47.5 -73l-162 13l-1 6q9 102 102.5 165t229 63t205.5 -72t50 -204l-47 -314q-16 -103 -1 -181h-177q-9 38 -7 94q-92 -108 -238 -108q-114 0 -172.5 62t-42 171zM341.5 924.5 q-6.5 -44.5 18.5 -66.5t79 -22t113.5 29.5t82.5 64.5l16 104h-136q-71 0 -119 -32.5t-54.5 -77z" />
<glyph unicode="&#xab;" horiz-adv-x="1054" d="M93 506l1 6l1 7l1 6l331 390h206l-292 -400l172 -399h-206zM428 506l1 6l1 7l1 6l331 390h206l-292 -400l172 -399h-206z" />
<glyph unicode="&#xac;" horiz-adv-x="1124" d="M140 634l26 171h835l-65 -431h-200l39 260h-635z" />
<glyph unicode="&#xad;" horiz-adv-x="875" d="M130 497l39 261h589l-39 -261h-589z" />
<glyph unicode="&#xae;" horiz-adv-x="1608" d="M115 736q48 320 284.5 530t528 210t472.5 -218t133 -537.5t-285.5 -530.5t-528.5 -211t-471.5 218.5t-132.5 538.5zM235 722q-40 -267 104 -442.5t385.5 -175.5t444 182t243 449t-103 441.5t-385.5 174.5t-445 -181t-243 -448zM467 316l128 850h281q145 0 224 -69.5 t61 -194.5q-18 -115 -134 -172q94 -61 73 -215l-8 -56q-15 -89 -2 -127l-3 -16h-155q-8 32 9 144l8 54q11 74 -17 106.5t-105 32.5h-158l-51 -337h-151zM689 787h128q72 0 129 30.5t66.5 95.5t-24 92.5t-132.5 27.5h-130z" />
<glyph unicode="&#xaf;" horiz-adv-x="1065" d="M266 1285l24 173h734l-24 -173h-734z" />
<glyph unicode="&#xb0;" horiz-adv-x="813" d="M224.5 1200q17.5 117 112 197.5t207 80.5t183.5 -83.5t53 -200.5t-110 -195.5t-205 -78.5t-185.5 81.5t-55 198.5zM379.5 1196q-8.5 -54 23 -88.5t82.5 -34.5t92 35t49.5 90t-21 91t-80 36t-94 -37.5t-52 -91.5z" />
<glyph unicode="&#xb1;" horiz-adv-x="1103" d="M20 -66l39 264h834l-39 -264h-834zM110 723l38 271h311l48 339h293l-48 -339h312l-38 -271h-312l-51 -368h-293l51 368h-311z" />
<glyph unicode="&#xb2;" horiz-adv-x="856" d="M129 667l25 167l350 247q64 46 84 77.5t26 69.5q12 85 -76 85q-47 0 -77 -29t-36 -75h-218l-2 6q12 113 113 188.5t248 75.5t220.5 -66.5t58 -168t-81 -164.5t-213.5 -167l-97 -73l1 -6h337l-25 -167h-637z" />
<glyph unicode="&#xb3;" horiz-adv-x="846" d="M142 900l2 6h220q-7 -43 18.5 -63.5t78.5 -20.5q114 0 128 85q6 46 -24 72t-94 26h-101l20 134h101q115 0 130 90q5 36 -15 59.5t-68.5 23.5t-78 -21t-33.5 -48h-218l-1 6q10 109 108 169t242.5 60t228.5 -60t68 -169q-9 -57 -50.5 -102.5t-106.5 -70.5q136 -50 118 -176 q-35 -245 -370 -245q-149 0 -238 65.5t-65 179.5z" />
<glyph unicode="&#xb4;" horiz-adv-x="762" d="M212 1257l239 261h370l2 -6l-318 -260h-291z" />
<glyph unicode="&#xb5;" horiz-adv-x="1313" d="M-10 -416l224 1498h338l-93 -620q-20 -132 12 -175.5t107 -43.5q138 0 207 96l111 743h337l-162 -1082h-317l3 49q-96 -70 -221 -70q-80 0 -144 36l-64 -431h-338z" />
<glyph unicode="&#xb6;" horiz-adv-x="1113" d="M128.5 992q31.5 210 179 337t382.5 127h422l-218 -1456h-339l78 520h-83q-224 0 -338.5 131t-83 341z" />
<glyph unicode="&#xb7;" horiz-adv-x="657" d="M159 539l42 284h338l-42 -284h-338z" />
<glyph unicode="&#xb8;" horiz-adv-x="569" d="M-14 -136l53 146h256l-20 -61q62 -11 99 -52.5t25 -120.5q-18 -118 -123.5 -183t-287.5 -65l21 186q86 0 100 77q5 39 -22 54t-101 19z" />
<glyph unicode="&#xb9;" horiz-adv-x="579" d="M183 1284l25 170l359 23l-122 -812h-228l93 619h-127z" />
<glyph unicode="&#xba;" horiz-adv-x="938" d="M191 1025l17 117q23 153 130.5 244t263 91t238.5 -94.5t61 -240.5l-17 -117q-24 -155 -130 -244.5t-262 -89.5t-239.5 93.5t-61.5 240.5zM366 1025q-14 -88 22.5 -138t119 -50t135.5 52t66 136l17 117q13 86 -23.5 136.5t-118.5 50.5t-135.5 -53t-65.5 -134z" />
<glyph unicode="&#xbb;" horiz-adv-x="1054" d="M41 151l292 400l-172 399h207l213 -390l-2 -13l-1 -6l-330 -390h-207zM387 151l292 400l-172 399h207l213 -390l-2 -13l-1 -6l-330 -390h-207z" />
<glyph unicode="&#xbc;" horiz-adv-x="1441" d="M244 196l882 1138l145 -79l-882 -1138zM272 1283l25 170l359 23l-122 -812h-228l93 619h-127zM707 134l5 137l501 527l1 3h230l-75 -499h89l-25 -168h-89l-20 -134h-230l20 134h-407zM952 308l3 -6h184l34 233l-5 2z" />
<glyph unicode="&#xbd;" horiz-adv-x="1473" d="M257 196l882 1138l145 -79l-882 -1138zM272 1283l25 170l359 23l-122 -812h-228l93 619h-127zM840 0l25 167l350 247q63 46 83.5 78t26.5 70q12 84 -76 84q-47 0 -77 -29t-36 -75h-218l-2 6q12 113 113 188.5t248 75.5t220 -66.5t58 -168t-80.5 -164.5t-213.5 -167 l-97 -73l1 -6h337l-25 -167h-637z" />
<glyph unicode="&#xbe;" horiz-adv-x="1683" d="M158 901l2 6h220q-7 -43 18.5 -63.5t78.5 -20.5q114 0 128 85q6 46 -24 72t-94 26h-101l20 134h101q115 0 130 90q5 36 -15 59.5t-68.5 23.5t-77.5 -21t-33 -48h-218l-1 6q10 109 107.5 169t242 60t228.5 -60t68 -169q-9 -57 -50.5 -102.5t-106.5 -70.5q136 -50 118 -176 q-35 -245 -370 -245q-149 0 -237.5 65.5t-65.5 179.5zM427 196l882 1138l145 -79l-882 -1138zM896 134l5 137l501 527l1 3h230l-75 -499h89l-25 -168h-89l-20 -134h-230l20 134h-407zM1141 308l3 -6h184l34 233l-5 2z" />
<glyph unicode="&#xbf;" horiz-adv-x="1047" d="M-18 49q19 129 108 231t216 164q69 41 99 89.5t43 132.5h338q-23 -140 -82.5 -210t-168 -136.5t-156 -128.5t-60 -145t25 -132t111.5 -49t126 41.5t67 121.5h329l1 -6q-29 -208 -180 -312.5t-376.5 -104.5t-347.5 121t-93 323zM471 812l40 270h336l-40 -270h-336z" />
<glyph unicode="&#xc0;" horiz-adv-x="1307" d="M-75 0l693 1456h181v-1l1 1h181l258 -1456h-356l-43 283h-432l-127 -283h-356zM433 1859l3 6h370l170 -266h-297zM524 543h277l-67 451l-6 1z" />
<glyph unicode="&#xc1;" horiz-adv-x="1307" d="M-75 0l693 1456h181v-1l1 1h181l258 -1456h-356l-43 283h-432l-127 -283h-356zM524 543h277l-67 451l-6 1zM646 1606l239 261h370l2 -6l-318 -260h-291z" />
<glyph unicode="&#xc2;" horiz-adv-x="1307" d="M-75 0l693 1456h181v-1l1 1h181l258 -1456h-356l-43 283h-432l-127 -283h-356zM417 1587l4 26l336 240h193l268 -244l-3 -22h-265l-118 126l-155 -126h-260zM524 543h277l-67 451l-6 1z" />
<glyph unicode="&#xc3;" horiz-adv-x="1307" d="M-75 0l693 1456h181v-1l1 1h181l258 -1456h-356l-43 283h-432l-127 -283h-356zM427 1652q13 97 82 165t160 68q53 0 149.5 -41.5t138 -41.5t70 32.5t34.5 77.5l171 -51q-14 -99 -82.5 -166t-147 -67t-169.5 42t-133 42t-69.5 -32.5t-32.5 -77.5zM524 543h277l-67 451 l-6 1z" />
<glyph unicode="&#xc4;" horiz-adv-x="1307" d="M-75 0l693 1456h181v-1l1 1h181l258 -1456h-356l-43 283h-432l-127 -283h-356zM405 1601l29 204h290l-29 -204h-290zM524 543h277l-67 451l-6 1zM920 1601l29 204h290l-29 -204h-290z" />
<glyph unicode="&#xc5;" horiz-adv-x="1307" d="M-75 0l693 1456h181v-1l1 1h181l258 -1456h-356l-43 283h-432l-127 -283h-356zM524 543h277l-67 451l-6 1zM646.5 1752.5q11.5 74.5 74 123t143.5 48.5t129.5 -50.5t37.5 -125t-72.5 -121t-142.5 -46.5t-131 48.5t-38.5 123zM769 1750.5q-5 -31.5 12 -50.5t47 -19 t51.5 19.5t26.5 51.5t-10 51.5t-45 19.5t-53.5 -20.5t-28.5 -52z" />
<glyph unicode="&#xc6;" horiz-adv-x="1916" d="M-69 0l953 1456h1040l-39 -264h-550l-34 -316h455l-39 -264h-444l-38 -348h572l-40 -264h-897l35 329h-382l-202 -329h-390zM688 599h246l52 473l-6 2z" />
<glyph unicode="&#xc7;" horiz-adv-x="1307" d="M95 576l46 304q41 276 221.5 436.5t445 160.5t401 -130t96.5 -374l-3 -6h-330q20 139 -27 194.5t-167.5 55.5t-198.5 -92.5t-100 -242.5l-46 -306q-24 -158 29.5 -247.5t172 -89.5t181.5 59t83 193h328l2 -6q-68 -506 -626 -506q-260 0 -404 167t-104 430zM406 -136 l53 146h256l-20 -61q62 -11 99 -52.5t25 -120.5q-18 -118 -123.5 -183t-287.5 -65l21 186q86 0 100 77q5 39 -22 54t-101 19z" />
<glyph unicode="&#xc8;" horiz-adv-x="1143" d="M36 0l218 1456h954l-39 -260h-616l-47 -313h513l-39 -260h-513l-54 -363h615l-39 -260h-953zM371 1859l3 6h370l170 -266h-297z" />
<glyph unicode="&#xc9;" horiz-adv-x="1143" d="M36 0l218 1456h954l-39 -260h-616l-47 -313h513l-39 -260h-513l-54 -363h615l-39 -260h-953zM584 1606l239 261h370l2 -6l-318 -260h-291z" />
<glyph unicode="&#xca;" horiz-adv-x="1143" d="M36 0l218 1456h954l-39 -260h-616l-47 -313h513l-39 -260h-513l-54 -363h615l-39 -260h-953zM355 1587l4 26l336 240h193l268 -244l-3 -22h-265l-118 126l-155 -126h-260z" />
<glyph unicode="&#xcb;" horiz-adv-x="1143" d="M36 0l218 1456h954l-39 -260h-616l-47 -313h513l-39 -260h-513l-54 -363h615l-39 -260h-953zM343 1601l29 204h290l-29 -204h-290zM858 1601l29 204h290l-29 -204h-290z" />
<glyph unicode="&#xcc;" horiz-adv-x="611" d="M57 0l218 1456h337l-218 -1456h-337zM84 1859l3 6h370l170 -266h-297z" />
<glyph unicode="&#xcd;" horiz-adv-x="611" d="M57 0l218 1456h337l-218 -1456h-337zM296 1606l239 261h370l2 -6l-318 -260h-291z" />
<glyph unicode="&#xce;" horiz-adv-x="611" d="M57 0l218 1456h337l-218 -1456h-337zM68 1587l4 26l336 240h193l268 -244l-3 -22h-265l-118 126l-155 -126h-260z" />
<glyph unicode="&#xcf;" horiz-adv-x="611" d="M56 1601l29 204h290l-29 -204h-290zM57 0l218 1456h337l-218 -1456h-337zM571 1601l29 204h290l-29 -204h-290z" />
<glyph unicode="&#xd0;" horiz-adv-x="1338" d="M13 647l29 191h119l93 618h533q247 0 399.5 -169t114.5 -428l-39 -262q-42 -273 -237.5 -435t-455.5 -162h-533l97 647h-120zM413 260h195q110 0 201 95t114 242l39 264q22 153 -38 244t-176 91h-195l-54 -358h229l-29 -191h-228z" />
<glyph unicode="&#xd1;" horiz-adv-x="1446" d="M36 0l218 1456h338l396 -915l6 1l137 914h337l-218 -1456h-337l-397 916l-6 -1l-136 -915h-338zM495 1652q13 97 82 165t160 68q53 0 149.5 -41.5t138 -41.5t70 32.5t34.5 77.5l171 -51q-14 -99 -82.5 -166t-147 -67t-169.5 42t-133 42t-69.5 -32.5t-32.5 -77.5z" />
<glyph unicode="&#xd2;" horiz-adv-x="1416" d="M99 597l39 262q41 278 236.5 448t467.5 170t422 -176.5t111 -441.5l-39 -262q-43 -280 -237 -449t-466 -169t-423.5 176.5t-110.5 441.5zM436 597q-25 -164 33.5 -261t191.5 -97t223.5 101t114.5 257l39 264q24 162 -34 259t-191.5 97t-224 -100.5t-113.5 -255.5z M489 1880l3 6h370l170 -266h-297z" />
<glyph unicode="&#xd3;" horiz-adv-x="1416" d="M99 597l39 262q41 278 236.5 448t467.5 170t422 -176.5t111 -441.5l-39 -262q-43 -280 -237 -449t-466 -169t-423.5 176.5t-110.5 441.5zM436 597q-25 -164 33.5 -261t191.5 -97t223.5 101t114.5 257l39 264q24 162 -34 259t-191.5 97t-224 -100.5t-113.5 -255.5z M703 1627l239 261h370l2 -6l-318 -260h-291z" />
<glyph unicode="&#xd4;" horiz-adv-x="1416" d="M99 597l39 262q41 278 236.5 448t467.5 170t422 -176.5t111 -441.5l-39 -262q-43 -280 -237 -449t-466 -169t-423.5 176.5t-110.5 441.5zM436 597q-25 -164 33.5 -261t191.5 -97t223.5 101t114.5 257l39 264q24 162 -34 259t-191.5 97t-224 -100.5t-113.5 -255.5z M473 1608l4 26l336 240h193l268 -244l-3 -22h-265l-118 126l-155 -126h-260z" />
<glyph unicode="&#xd5;" horiz-adv-x="1416" d="M99 597l39 262q41 278 236.5 448t467.5 170t422 -176.5t111 -441.5l-39 -262q-43 -280 -237 -449t-466 -169t-423.5 176.5t-110.5 441.5zM436 597q-25 -164 33.5 -261t191.5 -97t223.5 101t114.5 257l39 264q24 162 -34 259t-191.5 97t-224 -100.5t-113.5 -255.5z M483 1673q13 97 82 165t160 68q53 0 149.5 -41.5t138 -41.5t70 32.5t34.5 77.5l171 -51q-14 -99 -82.5 -166t-147 -67t-169.5 42t-133 42t-69.5 -32.5t-32.5 -77.5z" />
<glyph unicode="&#xd6;" horiz-adv-x="1416" d="M99 597l39 262q41 278 236.5 448t467.5 170t422 -176.5t111 -441.5l-39 -262q-43 -280 -237 -449t-466 -169t-423.5 176.5t-110.5 441.5zM436 597q-25 -164 33.5 -261t191.5 -97t223.5 101t114.5 257l39 264q24 162 -34 259t-191.5 97t-224 -100.5t-113.5 -255.5z M462 1622l29 204h290l-29 -204h-290zM977 1622l29 204h290l-29 -204h-290z" />
<glyph unicode="&#xd7;" horiz-adv-x="1083" d="M30 381l346 305l-254 306l220 183l248 -299l338 299l166 -183l-346 -306l254 -305l-220 -183l-249 299l-337 -299z" />
<glyph unicode="&#xd8;" horiz-adv-x="1416" d="M99 597l39 262q41 278 236.5 448t475.5 170q196 0 337 -104l105 145h140l-163 -223q145 -176 106 -436l-39 -262q-43 -280 -237 -449t-472 -169q-155 0 -271 62l-99 -136h-140l145 199q-100 83 -143.5 211.5t-19.5 281.5zM436 597q-23 -142 17 -221l6 -2l544 748 q-63 95 -193.5 95t-221 -100.5t-113.5 -255.5zM527 276q53 -37 139 -37q128 0 218.5 101t114.5 257l39 264q10 64 5 114l-5 2z" />
<glyph unicode="&#xd9;" horiz-adv-x="1417" d="M104 512l141 944h339l-141 -944q-22 -140 37.5 -206.5t182 -66.5t203 69t101.5 204l141 944h339l-141 -944q-40 -260 -224.5 -396.5t-449 -136.5t-415.5 143t-113 390zM486 1859l3 6h370l170 -266h-297z" />
<glyph unicode="&#xda;" horiz-adv-x="1417" d="M104 512l141 944h339l-141 -944q-22 -140 37.5 -206.5t182 -66.5t203 69t101.5 204l141 944h339l-141 -944q-40 -260 -224.5 -396.5t-449 -136.5t-415.5 143t-113 390zM699 1606l239 261h370l2 -6l-318 -260h-291z" />
<glyph unicode="&#xdb;" horiz-adv-x="1417" d="M104 512l141 944h339l-141 -944q-22 -140 37.5 -206.5t182 -66.5t203 69t101.5 204l141 944h339l-141 -944q-40 -260 -224.5 -396.5t-449 -136.5t-415.5 143t-113 390zM470 1587l4 26l336 240h193l268 -244l-3 -22h-265l-118 126l-155 -126h-260z" />
<glyph unicode="&#xdc;" horiz-adv-x="1417" d="M104 512l141 944h339l-141 -944q-22 -140 37.5 -206.5t182 -66.5t203 69t101.5 204l141 944h339l-141 -944q-40 -260 -224.5 -396.5t-449 -136.5t-415.5 143t-113 390zM458 1601l29 204h290l-29 -204h-290zM973 1601l29 204h290l-29 -204h-290z" />
<glyph unicode="&#xdd;" horiz-adv-x="1307" d="M133 1456h366l193 -637l6 -1l386 638h366l-636 -944l-76 -512h-337l79 528zM653 1606l239 261h370l2 -6l-318 -260h-291z" />
<glyph unicode="&#xde;" horiz-adv-x="1266" d="M36 0l218 1456h339l-39 -258h199q255 0 388.5 -128t102.5 -337t-196 -332t-433 -123h-199l-41 -278h-339zM455 538h199q108 0 173 57t78 144t-32.5 143t-158.5 56h-199z" />
<glyph unicode="&#xdf;" horiz-adv-x="1330" d="M54 0l167 1112q35 235 185 352t396 117q184 0 299.5 -101.5t88.5 -278.5q-17 -108 -77.5 -196t-71.5 -163q-7 -47 110 -186t97 -279q-32 -207 -164.5 -302.5t-372.5 -95.5q-188 0 -261 48l97 256q76 -44 205 -44q59 0 104 33.5t54.5 97.5t-110 191.5t-98.5 265.5 q15 102 76 194t70.5 156.5t-27 104.5t-93.5 40t-106.5 -59.5t-63.5 -156.5l-166 -1106h-338z" />
<glyph unicode="&#xe0;" horiz-adv-x="1086" d="M0 314q48 327 536 327h139l12 77q20 143 -113 143q-117 0 -133 -113l-328 1l-1 6q17 154 160.5 250.5t348.5 96.5t318 -101t85 -285l-61 -408q-24 -155 12 -308l-334 1q-28 73 -28 167q-57 -86 -129 -137.5t-176 -51.5q-164 0 -248 88.5t-60 246.5zM271 1537l3 6h370 l170 -266h-297zM339 328.5q-8 -53.5 19.5 -81t82 -27.5t108 29.5t78.5 69.5l21 142h-136q-77 0 -121 -39.5t-52 -93z" />
<glyph unicode="&#xe1;" horiz-adv-x="1086" d="M0 314q48 327 536 327h139l12 77q20 143 -113 143q-117 0 -133 -113l-328 1l-1 6q17 154 160.5 250.5t348.5 96.5t318 -101t85 -285l-61 -408q-24 -155 12 -308l-334 1q-28 73 -28 167q-57 -86 -129 -137.5t-176 -51.5q-164 0 -248 88.5t-60 246.5zM339 328.5 q-8 -53.5 19.5 -81t82 -27.5t108 29.5t78.5 69.5l21 142h-136q-77 0 -121 -39.5t-52 -93zM484 1284l239 261h370l2 -6l-318 -260h-291z" />
<glyph unicode="&#xe2;" horiz-adv-x="1086" d="M0 314q48 327 536 327h139l12 77q20 143 -113 143q-117 0 -133 -113l-328 1l-1 6q17 154 160.5 250.5t348.5 96.5t318 -101t85 -285l-61 -408q-24 -155 12 -308l-334 1q-28 73 -28 167q-57 -86 -129 -137.5t-176 -51.5q-164 0 -248 88.5t-60 246.5zM255 1265l4 26 l336 240h193l268 -244l-3 -22h-265l-118 126l-155 -126h-260zM339 328.5q-8 -53.5 19.5 -81t82 -27.5t108 29.5t78.5 69.5l21 142h-136q-77 0 -121 -39.5t-52 -93z" />
<glyph unicode="&#xe3;" horiz-adv-x="1086" d="M0 314q48 327 536 327h139l12 77q20 143 -113 143q-117 0 -133 -113l-328 1l-1 6q17 154 160.5 250.5t348.5 96.5t318 -101t85 -285l-61 -408q-24 -155 12 -308l-334 1q-28 73 -28 167q-57 -86 -129 -137.5t-176 -51.5q-164 0 -248 88.5t-60 246.5zM265 1330 q13 97 82 165t160 68q53 0 149.5 -41.5t138 -41.5t70 32.5t34.5 77.5l171 -51q-14 -99 -82.5 -166t-147 -67t-169.5 42t-133 42t-69.5 -32.5t-32.5 -77.5zM339 328.5q-8 -53.5 19.5 -81t82 -27.5t108 29.5t78.5 69.5l21 142h-136q-77 0 -121 -39.5t-52 -93z" />
<glyph unicode="&#xe4;" horiz-adv-x="1086" d="M0 314q48 327 536 327h139l12 77q20 143 -113 143q-117 0 -133 -113l-328 1l-1 6q17 154 160.5 250.5t348.5 96.5t318 -101t85 -285l-61 -408q-24 -155 12 -308l-334 1q-28 73 -28 167q-57 -86 -129 -137.5t-176 -51.5q-164 0 -248 88.5t-60 246.5zM244 1279l29 204h290 l-29 -204h-290zM339 328.5q-8 -53.5 19.5 -81t82 -27.5t108 29.5t78.5 69.5l21 142h-136q-77 0 -121 -39.5t-52 -93zM759 1279l29 204h290l-29 -204h-290z" />
<glyph unicode="&#xe5;" horiz-adv-x="1086" d="M0 314q48 327 536 327h139l12 77q20 143 -113 143q-117 0 -133 -113l-328 1l-1 6q17 154 160.5 250.5t348.5 96.5t318 -101t85 -285l-61 -408q-24 -155 12 -308l-334 1q-28 73 -28 167q-57 -86 -129 -137.5t-176 -51.5q-164 0 -248 88.5t-60 246.5zM339 328.5 q-8 -53.5 19.5 -81t82 -27.5t108 29.5t78.5 69.5l21 142h-136q-77 0 -121 -39.5t-52 -93zM484.5 1430.5q11.5 74.5 74 123t143.5 48.5t129.5 -50.5t37.5 -125t-72.5 -121t-142.5 -46.5t-131 48.5t-38.5 123zM607 1428.5q-5 -31.5 12 -50.5t47 -19t51.5 19.5t26.5 51.5 t-10 51.5t-45 19.5t-53.5 -20.5t-28.5 -52z" />
<glyph unicode="&#xe6;" horiz-adv-x="1763" d="M46 328q49 327 569 327h157l7 46q10 68 -19 104.5t-94.5 36.5t-111 -29.5t-51.5 -72.5l-325 18l-2 6q17 152 163 245t353 93t321 -89q138 89 338.5 89t308 -133.5t74.5 -356.5l-27 -177h-621l-2 -6q-9 -91 36.5 -140.5t170.5 -49.5t281 67l50 -206q-74 -51 -192 -86 t-238 -35q-243 0 -365 149q-158 -149 -409 -149q-195 0 -296 93.5t-76 255.5zM382.5 319.5q-7.5 -53.5 25.5 -81t94.5 -27.5t119 24t95.5 58l24 158h-154q-84 0 -140.5 -39t-64 -92.5zM1117 652l2 -6h291l4 26q25 170 -114 170q-72 0 -118.5 -50.5t-64.5 -139.5z" />
<glyph unicode="&#xe7;" horiz-adv-x="1048" d="M44 529l4 23q37 253 191.5 401.5t402.5 148.5q199 0 308.5 -116t76.5 -313l-2 -5h-309q12 80 -15.5 127t-109.5 47t-134.5 -80t-71.5 -210l-4 -23q-21 -141 6 -215.5t128 -74.5q66 0 107 38t52 108h307l2 -6q-24 -184 -165.5 -292t-341.5 -108q-237 0 -353 154.5 t-79 395.5zM302 -136l53 146h256l-20 -61q62 -11 99 -52.5t25 -120.5q-18 -118 -123.5 -183t-287.5 -65l21 186q86 0 100 77q5 39 -22 54t-101 19z" />
<glyph unicode="&#xe8;" horiz-adv-x="1070" d="M47 505l5 38q38 257 191.5 408.5t404.5 150.5q210 0 315 -132.5t72 -357.5l-27 -177h-621l-2 -6q-5 -87 42 -138.5t145.5 -51.5t168.5 16.5t156 50.5l50 -206q-77 -51 -200.5 -86t-253.5 -35q-236 0 -358 150.5t-88 375.5zM269 1538l3 6h370l170 -266h-297zM417 652l2 -6 h291l4 26q13 87 -10.5 128.5t-97.5 41.5q-143 0 -189 -190z" />
<glyph unicode="&#xe9;" horiz-adv-x="1070" d="M47 505l5 38q38 257 191.5 408.5t404.5 150.5q210 0 315 -132.5t72 -357.5l-27 -177h-621l-2 -6q-5 -87 42 -138.5t145.5 -51.5t168.5 16.5t156 50.5l50 -206q-77 -51 -200.5 -86t-253.5 -35q-236 0 -358 150.5t-88 375.5zM417 652l2 -6h291l4 26q13 87 -10.5 128.5 t-97.5 41.5q-143 0 -189 -190zM482 1285l239 261h370l2 -6l-318 -260h-291z" />
<glyph unicode="&#xea;" horiz-adv-x="1070" d="M47 505l5 38q38 257 191.5 408.5t404.5 150.5q210 0 315 -132.5t72 -357.5l-27 -177h-621l-2 -6q-5 -87 42 -138.5t145.5 -51.5t168.5 16.5t156 50.5l50 -206q-77 -51 -200.5 -86t-253.5 -35q-236 0 -358 150.5t-88 375.5zM253 1266l4 26l336 240h193l268 -244l-3 -22 h-265l-118 126l-155 -126h-260zM417 652l2 -6h291l4 26q13 87 -10.5 128.5t-97.5 41.5q-143 0 -189 -190z" />
<glyph unicode="&#xeb;" horiz-adv-x="1070" d="M47 505l5 38q38 257 191.5 408.5t404.5 150.5q210 0 315 -132.5t72 -357.5l-27 -177h-621l-2 -6q-5 -87 42 -138.5t145.5 -51.5t168.5 16.5t156 50.5l50 -206q-77 -51 -200.5 -86t-253.5 -35q-236 0 -358 150.5t-88 375.5zM242 1280l29 204h290l-29 -204h-290zM417 652 l2 -6h291l4 26q13 87 -10.5 128.5t-97.5 41.5q-143 0 -189 -190zM757 1280l29 204h290l-29 -204h-290z" />
<glyph unicode="&#xec;" horiz-adv-x="584" d="M21 1516l3 6h370l170 -266h-297zM43 0l162 1082h339l-162 -1082h-339z" />
<glyph unicode="&#xed;" horiz-adv-x="584" d="M43 0l162 1082h339l-162 -1082h-339zM233 1263l239 261h370l2 -6l-318 -260h-291z" />
<glyph unicode="&#xee;" horiz-adv-x="584" d="M5 1245l4 26l336 240h193l268 -244l-3 -22h-265l-118 126l-155 -126h-260zM43 0l162 1082h339l-162 -1082h-339z" />
<glyph unicode="&#xef;" horiz-adv-x="584" d="M-7 1258l29 204h290l-29 -204h-290zM43 0l162 1082h339l-162 -1082h-339zM508 1258l29 204h290l-29 -204h-290z" />
<glyph unicode="&#xf0;" horiz-adv-x="1226" d="M29.5 482q32.5 220 182.5 349.5t393 129.5q155 0 255 -87l4 5q-6 149 -109 254l-245 -123l-61 118l176 89v6q-45 22 -130 50l144 244q182 -38 315 -135l203 102l59 -118l-158 -80q188 -221 140 -550l-27 -183q-40 -263 -225 -418.5t-428 -155.5t-382 141.5t-106.5 361.5z M365 474.5q-17 -111.5 35 -173.5t156 -62t180 88.5t97 225.5l14 96q-64 71 -193 71t-200.5 -67t-88.5 -178.5z" />
<glyph unicode="&#xf1;" d="M10 0l162 1082h317l-9 -147q136 167 330 167q153 0 229 -109t42 -342l-98 -651h-338l98 652q16 107 -10.5 148.5t-84.5 41.5q-111 0 -186 -75l-115 -767h-337zM300 1330q13 97 82 165t160 68q53 0 149.5 -41.5t138 -41.5t70 32.5t34.5 77.5l171 -51q-14 -99 -82.5 -166 t-147 -67t-169.5 42t-133 42t-69.5 -32.5t-32.5 -77.5z" />
<glyph unicode="&#xf2;" d="M51 530l3 21q37 253 196 402t403 149t363.5 -155t84.5 -396l-3 -21q-39 -254 -197.5 -402.5t-402.5 -148.5t-364 154.5t-83 396.5zM305 1537l3 6h370l170 -266h-297zM389 530q-22 -140 9 -215.5t130 -75.5q187 0 233 291l3 21q20 136 -11 213.5t-130 77.5t-156 -81 t-75 -210z" />
<glyph unicode="&#xf3;" d="M51 530l3 21q37 253 196 402t403 149t363.5 -155t84.5 -396l-3 -21q-39 -254 -197.5 -402.5t-402.5 -148.5t-364 154.5t-83 396.5zM389 530q-22 -140 9 -215.5t130 -75.5q187 0 233 291l3 21q20 136 -11 213.5t-130 77.5t-156 -81t-75 -210zM518 1284l239 261h370l2 -6 l-318 -260h-291z" />
<glyph unicode="&#xf4;" d="M51 530l3 21q37 253 196 402t403 149t363.5 -155t84.5 -396l-3 -21q-39 -254 -197.5 -402.5t-402.5 -148.5t-364 154.5t-83 396.5zM289 1265l4 26l336 240h193l268 -244l-3 -22h-265l-118 126l-155 -126h-260zM389 530q-22 -140 9 -215.5t130 -75.5q187 0 233 291l3 21 q20 136 -11 213.5t-130 77.5t-156 -81t-75 -210z" />
<glyph unicode="&#xf5;" d="M51 530l3 21q37 253 196 402t403 149t363.5 -155t84.5 -396l-3 -21q-39 -254 -197.5 -402.5t-402.5 -148.5t-364 154.5t-83 396.5zM299 1330q13 97 82 165t160 68q53 0 149.5 -41.5t138 -41.5t70 32.5t34.5 77.5l171 -51q-14 -99 -82.5 -166t-147 -67t-169.5 42t-133 42 t-69.5 -32.5t-32.5 -77.5zM389 530q-22 -140 9 -215.5t130 -75.5q187 0 233 291l3 21q20 136 -11 213.5t-130 77.5t-156 -81t-75 -210z" />
<glyph unicode="&#xf6;" d="M51 530l3 21q37 253 196 402t403 149t363.5 -155t84.5 -396l-3 -21q-39 -254 -197.5 -402.5t-402.5 -148.5t-364 154.5t-83 396.5zM277 1279l29 204h290l-29 -204h-290zM389 530q-22 -140 9 -215.5t130 -75.5q187 0 233 291l3 21q20 136 -11 213.5t-130 77.5t-156 -81 t-75 -210zM792 1279l29 204h290l-29 -204h-290z" />
<glyph unicode="&#xf7;" horiz-adv-x="1166" d="M63 563l37 244h1044l-37 -244h-1044zM357 158l37 246h339l-37 -246h-339zM477 961l37 245h339l-37 -245h-339z" />
<glyph unicode="&#xf8;" horiz-adv-x="1152" d="M51 530l3 21q37 253 196 402t409 149q89 0 172 -27l92 144h177l-138 -216q87 -74 123 -191.5t16 -260.5l-3 -21q-39 -254 -197.5 -402.5t-407.5 -148.5q-84 0 -167 24l-94 -148h-177l139 218q-91 72 -128.5 191t-14.5 266zM383 382l6 -1l289 453q-37 8 -58 8 q-96 0 -153 -81t-75 -210l-3 -21q-16 -101 -6 -148zM480 245q22 -6 52 -6q95 0 151.5 79t77.5 212l3 21q12 87 6 137l-6 2z" />
<glyph unicode="&#xf9;" d="M77 462l93 620h337l-93 -622q-20 -132 5.5 -176.5t86.5 -44.5q115 0 182 63l117 780h338l-162 -1082h-272l-16 157q-127 -178 -329 -178q-162 0 -243 119t-44 364zM301 1516l3 6h370l170 -266h-297z" />
<glyph unicode="&#xfa;" d="M77 462l93 620h337l-93 -622q-20 -132 5.5 -176.5t86.5 -44.5q115 0 182 63l117 780h338l-162 -1082h-272l-16 157q-127 -178 -329 -178q-162 0 -243 119t-44 364zM514 1263l239 261h370l2 -6l-318 -260h-291z" />
<glyph unicode="&#xfb;" d="M77 462l93 620h337l-93 -622q-20 -132 5.5 -176.5t86.5 -44.5q115 0 182 63l117 780h338l-162 -1082h-272l-16 157q-127 -178 -329 -178q-162 0 -243 119t-44 364zM285 1245l4 26l336 240h193l268 -244l-3 -22h-265l-118 126l-155 -126h-260z" />
<glyph unicode="&#xfc;" d="M77 462l93 620h337l-93 -622q-20 -132 5.5 -176.5t86.5 -44.5q115 0 182 63l117 780h338l-162 -1082h-272l-16 157q-127 -178 -329 -178q-162 0 -243 119t-44 364zM273 1258l29 204h290l-29 -204h-290zM788 1258l29 204h290l-29 -204h-290z" />
<glyph unicode="&#xfd;" horiz-adv-x="1053" d="M-52 -411l78 241q24 -6 69 -6t87.5 24t67.5 70l37 70l-210 1094h359l71 -605v-5l6 -2l270 612h360l-617 -1243q-67 -120 -158.5 -198t-263.5 -78q-52 0 -156 26zM467 1263l239 261h370l2 -6l-318 -260h-291z" />
<glyph unicode="&#xfe;" horiz-adv-x="1149" d="M-36 -416l62 416h-1l234 1560h339l-88 -584q112 126 261 126q193 0 284 -156.5t54 -406.5l-3 -21q-39 -253 -169 -396t-332 -143q-150 0 -226 124l-77 -519h-338zM410 308q35 -69 151 -69q163 0 208 279l3 21q43 303 -123 303q-109 0 -172 -86z" />
<glyph unicode="&#xff;" horiz-adv-x="1053" d="M-52 -411l78 241q24 -6 69 -6t87.5 24t67.5 70l37 70l-210 1094h359l71 -605v-5l6 -2l270 612h360l-617 -1243q-67 -120 -158.5 -198t-263.5 -78q-52 0 -156 26zM227 1258l29 204h290l-29 -204h-290zM742 1258l29 204h290l-29 -204h-290z" />
<glyph unicode="&#x100;" horiz-adv-x="1307" d="M-75 0l693 1456h181v-1l1 1h181l258 -1456h-356l-43 283h-432l-127 -283h-356zM440 1601l24 173h734l-24 -173h-734zM524 543h277l-67 451l-6 1z" />
<glyph unicode="&#x101;" horiz-adv-x="1086" d="M0 314q48 327 536 327h139l12 77q20 143 -113 143q-117 0 -133 -113l-328 1l-1 6q17 154 160.5 250.5t348.5 96.5t318 -101t85 -285l-61 -408q-24 -155 12 -308l-334 1q-28 73 -28 167q-57 -86 -129 -137.5t-176 -51.5q-164 0 -248 88.5t-60 246.5zM278 1280l24 173h734 l-24 -173h-734zM339 328.5q-8 -53.5 19.5 -81t82 -27.5t108 29.5t78.5 69.5l21 142h-136q-77 0 -121 -39.5t-52 -93z" />
<glyph unicode="&#x102;" horiz-adv-x="1307" d="M-75 0l693 1456h181v-1l1 1h181l258 -1456h-356l-43 283h-432l-127 -283h-356zM489 1902l2 6h244q-15 -107 103 -107q57 0 91 30.5t41 76.5h243l2 -6q-15 -138 -125 -219.5t-276.5 -81.5t-257.5 84.5t-67 216.5zM524 543h277l-67 451l-6 1z" />
<glyph unicode="&#x103;" horiz-adv-x="1086" d="M0 314q48 327 536 327h139l12 77q20 143 -113 143q-117 0 -133 -113l-328 1l-1 6q17 154 160.5 250.5t348.5 96.5t318 -101t85 -285l-61 -408q-24 -155 12 -308l-334 1q-28 73 -28 167q-57 -86 -129 -137.5t-176 -51.5q-164 0 -248 88.5t-60 246.5zM327 1580l2 6h244 q-15 -107 103 -107q57 0 91 30.5t41 76.5h243l2 -6q-15 -138 -125 -219.5t-276.5 -81.5t-257.5 84.5t-67 216.5zM339 328.5q-8 -53.5 19.5 -81t82 -27.5t108 29.5t78.5 69.5l21 142h-136q-77 0 -121 -39.5t-52 -93z" />
<glyph unicode="&#x104;" horiz-adv-x="1307" d="M-75 0l693 1456h181v-1l1 1h181l258 -1456h-356l-43 283h-432l-127 -283h-356zM524 543h277l-67 451l-6 1zM770 -214q13 89 61.5 154.5t139.5 119.5l153 -60q-51 -52 -74.5 -84.5t-28.5 -65.5t6.5 -53t57 -20t99.5 18l11 -168q-88 -44 -196 -44t-175 57t-54 146z" />
<glyph unicode="&#x105;" horiz-adv-x="1086" d="M0 314q48 327 536 327h139l12 77q20 143 -113 143q-117 0 -133 -113l-328 1l-1 6q17 154 160.5 250.5t348.5 96.5t318 -101t85 -285l-61 -408q-24 -155 12 -308l-334 1q-28 73 -28 167q-57 -86 -129 -137.5t-176 -51.5q-164 0 -248 88.5t-60 246.5zM339 328.5 q-8 -53.5 19.5 -81t82 -27.5t108 29.5t78.5 69.5l21 142h-136q-77 0 -121 -39.5t-52 -93zM505 -214q13 89 61.5 154.5t139.5 119.5l153 -60q-51 -52 -74.5 -84.5t-28.5 -65.5t6.5 -53t57 -20t99.5 18l11 -168q-88 -44 -196 -44t-175 57t-54 146z" />
<glyph unicode="&#x106;" horiz-adv-x="1307" d="M95 576l46 304q41 276 221.5 436.5t445 160.5t401 -130t96.5 -374l-3 -6h-330q20 139 -27 194.5t-167.5 55.5t-198.5 -92.5t-100 -242.5l-46 -306q-24 -158 29.5 -247.5t172 -89.5t181.5 59t83 193h328l2 -6q-68 -506 -626 -506q-260 0 -404 167t-104 430zM675 1627 l239 261h370l2 -6l-318 -260h-291z" />
<glyph unicode="&#x107;" horiz-adv-x="1048" d="M44 529l4 23q37 253 191.5 401.5t402.5 148.5q199 0 308.5 -116t76.5 -313l-2 -5h-309q12 80 -15.5 127t-109.5 47t-134.5 -80t-71.5 -210l-4 -23q-21 -141 6 -215.5t128 -74.5q66 0 107 38t52 108h307l2 -6q-24 -184 -165.5 -292t-341.5 -108q-237 0 -353 154.5 t-79 395.5zM470 1284l239 261h370l2 -6l-318 -260h-291z" />
<glyph unicode="&#x108;" horiz-adv-x="1307" d="M95 576l46 304q41 276 221.5 436.5t445 160.5t401 -130t96.5 -374l-3 -6h-330q20 139 -27 194.5t-167.5 55.5t-198.5 -92.5t-100 -242.5l-46 -306q-24 -158 29.5 -247.5t172 -89.5t181.5 59t83 193h328l2 -6q-68 -506 -626 -506q-260 0 -404 167t-104 430zM445 1608l4 26 l336 240h193l268 -244l-3 -22h-265l-118 126l-155 -126h-260z" />
<glyph unicode="&#x109;" horiz-adv-x="1048" d="M44 529l4 23q37 253 191.5 401.5t402.5 148.5q199 0 308.5 -116t76.5 -313l-2 -5h-309q12 80 -15.5 127t-109.5 47t-134.5 -80t-71.5 -210l-4 -23q-21 -141 6 -215.5t128 -74.5q66 0 107 38t52 108h307l2 -6q-24 -184 -165.5 -292t-341.5 -108q-237 0 -353 154.5 t-79 395.5zM241 1265l4 26l336 240h193l268 -244l-3 -22h-265l-118 126l-155 -126h-260z" />
<glyph unicode="&#x10a;" horiz-adv-x="1307" d="M95 576l46 304q41 276 221.5 436.5t445 160.5t401 -130t96.5 -374l-3 -6h-330q20 139 -27 194.5t-167.5 55.5t-198.5 -92.5t-100 -242.5l-46 -306q-24 -158 29.5 -247.5t172 -89.5t181.5 59t83 193h328l2 -6q-68 -506 -626 -506q-260 0 -404 167t-104 430zM653 1623 l39 260h381l-39 -260h-381z" />
<glyph unicode="&#x10b;" horiz-adv-x="1048" d="M44 529l4 23q37 253 191.5 401.5t402.5 148.5q199 0 308.5 -116t76.5 -313l-2 -5h-309q12 80 -15.5 127t-109.5 47t-134.5 -80t-71.5 -210l-4 -23q-21 -141 6 -215.5t128 -74.5q66 0 107 38t52 108h307l2 -6q-24 -184 -165.5 -292t-341.5 -108q-237 0 -353 154.5 t-79 395.5zM449 1280l39 260h381l-39 -260h-381z" />
<glyph unicode="&#x10c;" horiz-adv-x="1307" d="M95 576l46 304q41 276 221.5 436.5t445 160.5t401 -130t96.5 -374l-3 -6h-330q20 139 -27 194.5t-167.5 55.5t-198.5 -92.5t-100 -242.5l-46 -306q-24 -158 29.5 -247.5t172 -89.5t181.5 59t83 193h328l2 -6q-68 -506 -626 -506q-260 0 -404 167t-104 430zM469 1884l2 14 h312l85 -116l119 116h309l-2 -16l-331 -260h-239z" />
<glyph unicode="&#x10d;" horiz-adv-x="1048" d="M44 529l4 23q37 253 191.5 401.5t402.5 148.5q199 0 308.5 -116t76.5 -313l-2 -5h-309q12 80 -15.5 127t-109.5 47t-134.5 -80t-71.5 -210l-4 -23q-21 -141 6 -215.5t128 -74.5q66 0 107 38t52 108h307l2 -6q-24 -184 -165.5 -292t-341.5 -108q-237 0 -353 154.5 t-79 395.5zM264 1541l2 14h312l85 -116l119 116h309l-2 -16l-331 -260h-239z" />
<glyph unicode="&#x10e;" horiz-adv-x="1338" d="M36 0l218 1456h533q247 0 399.5 -169t114.5 -428l-39 -262q-42 -273 -237.5 -435t-455.5 -162h-533zM365 1863l2 14h312l85 -116l119 116h309l-2 -16l-331 -260h-239zM413 260h195q110 0 201 95t114 242l39 264q22 153 -38 244t-176 91h-195z" />
<glyph unicode="&#x10f;" d="M49 518l3 21q39 262 171 412.5t335 150.5q144 0 223 -141l90 599h338l-234 -1560h-296l-3 131q-123 -152 -301.5 -152t-270.5 150t-55 389zM387 518q-21 -136 6.5 -207.5t119.5 -71.5q105 0 171 80l66 434q-39 89 -135 89t-150.5 -84.5t-74.5 -218.5zM1224 1153l98 245 l24 161h206l-26 -171l-168 -235h-134z" />
<glyph unicode="&#x110;" horiz-adv-x="1338" d="M13 647l29 191h119l93 618h533q247 0 399.5 -169t114.5 -428l-39 -262q-42 -273 -237.5 -435t-455.5 -162h-533l97 647h-120zM413 260h195q110 0 201 95t114 242l39 264q22 153 -38 244t-176 91h-195l-54 -358h229l-29 -191h-228z" />
<glyph unicode="&#x111;" d="M49 518l3 21q39 262 171 412.5t335 150.5q144 0 223 -141l38 254h-231l29 191h231l23 154h338l-23 -154h117l-29 -191h-117l-182 -1215h-296l-3 131q-123 -152 -301.5 -152t-270.5 150t-55 389zM387 518q-21 -136 6.5 -207.5t119.5 -71.5q105 0 171 80l66 434 q-39 89 -135 89t-150.5 -84.5t-74.5 -218.5z" />
<glyph unicode="&#x112;" horiz-adv-x="1143" d="M36 0l218 1456h954l-39 -260h-616l-47 -313h513l-39 -260h-513l-54 -363h615l-39 -260h-953zM378 1601l24 173h734l-24 -173h-734z" />
<glyph unicode="&#x113;" horiz-adv-x="1070" d="M47 505l5 38q38 257 191.5 408.5t404.5 150.5q210 0 315 -132.5t72 -357.5l-27 -177h-621l-2 -6q-5 -87 42 -138.5t145.5 -51.5t168.5 16.5t156 50.5l50 -206q-77 -51 -200.5 -86t-253.5 -35q-236 0 -358 150.5t-88 375.5zM276 1281l24 173h734l-24 -173h-734zM417 652 l2 -6h291l4 26q13 87 -10.5 128.5t-97.5 41.5q-143 0 -189 -190z" />
<glyph unicode="&#x114;" horiz-adv-x="1143" d="M36 0l218 1456h954l-39 -260h-616l-47 -313h513l-39 -260h-513l-54 -363h615l-39 -260h-953zM427 1902l2 6h244q-15 -107 103 -107q57 0 91 30.5t41 76.5h243l2 -6q-15 -138 -125 -219.5t-276.5 -81.5t-257.5 84.5t-67 216.5z" />
<glyph unicode="&#x115;" horiz-adv-x="1070" d="M47 505l5 38q38 257 191.5 408.5t404.5 150.5q210 0 315 -132.5t72 -357.5l-27 -177h-621l-2 -6q-5 -87 42 -138.5t145.5 -51.5t168.5 16.5t156 50.5l50 -206q-77 -51 -200.5 -86t-253.5 -35q-236 0 -358 150.5t-88 375.5zM325 1581l2 6h244q-15 -107 103 -107 q57 0 91 30.5t41 76.5h243l2 -6q-15 -138 -125 -219.5t-276.5 -81.5t-257.5 84.5t-67 216.5zM417 652l2 -6h291l4 26q13 87 -10.5 128.5t-97.5 41.5q-143 0 -189 -190z" />
<glyph unicode="&#x116;" horiz-adv-x="1143" d="M36 0l218 1456h954l-39 -260h-616l-47 -313h513l-39 -260h-513l-54 -363h615l-39 -260h-953zM563 1602l39 260h381l-39 -260h-381z" />
<glyph unicode="&#x117;" horiz-adv-x="1070" d="M47 505l5 38q38 257 191.5 408.5t404.5 150.5q210 0 315 -132.5t72 -357.5l-27 -177h-621l-2 -6q-5 -87 42 -138.5t145.5 -51.5t168.5 16.5t156 50.5l50 -206q-77 -51 -200.5 -86t-253.5 -35q-236 0 -358 150.5t-88 375.5zM417 652l2 -6h291l4 26q13 87 -10.5 128.5 t-97.5 41.5q-143 0 -189 -190zM461 1281l39 260h381l-39 -260h-381z" />
<glyph unicode="&#x118;" horiz-adv-x="1143" d="M36 0l218 1456h954l-39 -260h-616l-47 -313h513l-39 -260h-513l-54 -363h615l-39 -260h-953zM235 -214q13 89 61.5 154.5t139.5 119.5l153 -60q-51 -52 -74.5 -84.5t-28.5 -65.5t6.5 -53t57 -20t99.5 18l11 -168q-88 -44 -196 -44t-175 57t-54 146z" />
<glyph unicode="&#x119;" horiz-adv-x="1070" d="M47 505l5 38q38 257 191.5 408.5t404.5 150.5q210 0 315 -132.5t72 -357.5l-27 -177h-621l-2 -6q-5 -87 42 -138.5t145.5 -51.5t168.5 16.5t156 50.5l50 -206q-77 -51 -200.5 -86t-253.5 -35q-236 0 -358 150.5t-88 375.5zM417 652l2 -6h291l4 26q13 87 -10.5 128.5 t-97.5 41.5q-143 0 -189 -190zM441 -181q13 89 61.5 154.5t139.5 119.5l153 -60q-51 -52 -74.5 -84.5t-28.5 -65.5t6.5 -53t57 -20t99.5 18l11 -168q-88 -44 -196 -44t-175 57t-54 146z" />
<glyph unicode="&#x11a;" horiz-adv-x="1143" d="M36 0l218 1456h954l-39 -260h-616l-47 -313h513l-39 -260h-513l-54 -363h615l-39 -260h-953zM378 1863l2 14h312l85 -116l119 116h309l-2 -16l-331 -260h-239z" />
<glyph unicode="&#x11b;" horiz-adv-x="1070" d="M47 505l5 38q38 257 191.5 408.5t404.5 150.5q210 0 315 -132.5t72 -357.5l-27 -177h-621l-2 -6q-5 -87 42 -138.5t145.5 -51.5t168.5 16.5t156 50.5l50 -206q-77 -51 -200.5 -86t-253.5 -35q-236 0 -358 150.5t-88 375.5zM276 1542l2 14h312l85 -116l119 116h309l-2 -16 l-331 -260h-239zM417 652l2 -6h291l4 26q13 87 -10.5 128.5t-97.5 41.5q-143 0 -189 -190z" />
<glyph unicode="&#x11c;" horiz-adv-x="1353" d="M94 576l46 304q41 274 228.5 435.5t452.5 161.5t394 -126t92 -339l-2 -6h-318q16 111 -32.5 161t-163.5 50t-203.5 -94t-110.5 -241l-46 -306q-24 -157 34 -247t188 -90q166 0 239 55l39 260h-258l34 224h596l-87 -577q-89 -92 -236.5 -157t-365.5 -65q-260 0 -410 167.5 t-110 429.5zM441 1608l4 26l336 240h193l268 -244l-3 -22h-265l-118 126l-155 -126h-260z" />
<glyph unicode="&#x11d;" d="M19 -352l96 250q134 -63 260 -63t187 43.5t75 135.5l12 83q-112 -118 -262 -118q-192 0 -284 150t-55 389l3 21q39 262 171 412.5t335 150.5q160 0 237 -161l44 141h298l-160 -1070q-34 -222 -196 -335.5t-422 -113.5q-173 0 -339 85zM266 1265l4 26l336 240h193 l268 -244l-3 -22h-265l-118 126l-155 -126h-260zM385 518q-21 -136 6.5 -207.5t120.5 -71.5q109 0 169 72l68 451q-39 80 -135 80t-151 -84.5t-75 -218.5z" />
<glyph unicode="&#x11e;" horiz-adv-x="1353" d="M94 576l46 304q41 274 228.5 435.5t452.5 161.5t394 -126t92 -339l-2 -6h-318q16 111 -32.5 161t-163.5 50t-203.5 -94t-110.5 -241l-46 -306q-24 -157 34 -247t188 -90q166 0 239 55l39 260h-258l34 224h596l-87 -577q-89 -92 -236.5 -157t-365.5 -65q-260 0 -410 167.5 t-110 429.5zM513 1923l2 6h244q-15 -107 103 -107q57 0 91 30.5t41 76.5h243l2 -6q-15 -138 -125 -219.5t-276.5 -81.5t-257.5 84.5t-67 216.5z" />
<glyph unicode="&#x11f;" d="M19 -352l96 250q134 -63 260 -63t187 43.5t75 135.5l12 83q-112 -118 -262 -118q-192 0 -284 150t-55 389l3 21q39 262 171 412.5t335 150.5q160 0 237 -161l44 141h298l-160 -1070q-34 -222 -196 -335.5t-422 -113.5q-173 0 -339 85zM338 1580l2 6h244 q-15 -107 103 -107q57 0 91 30.5t41 76.5h243l2 -6q-15 -138 -125 -219.5t-276.5 -81.5t-257.5 84.5t-67 216.5zM385 518q-21 -136 6.5 -207.5t120.5 -71.5q109 0 169 72l68 451q-39 80 -135 80t-151 -84.5t-75 -218.5z" />
<glyph unicode="&#x120;" horiz-adv-x="1353" d="M94 576l46 304q41 274 228.5 435.5t452.5 161.5t394 -126t92 -339l-2 -6h-318q16 111 -32.5 161t-163.5 50t-203.5 -94t-110.5 -241l-46 -306q-24 -157 34 -247t188 -90q166 0 239 55l39 260h-258l34 224h596l-87 -577q-89 -92 -236.5 -157t-365.5 -65q-260 0 -410 167.5 t-110 429.5zM649 1623l39 260h381l-39 -260h-381z" />
<glyph unicode="&#x121;" d="M19 -352l96 250q134 -63 260 -63t187 43.5t75 135.5l12 83q-112 -118 -262 -118q-192 0 -284 150t-55 389l3 21q39 262 171 412.5t335 150.5q160 0 237 -161l44 141h298l-160 -1070q-34 -222 -196 -335.5t-422 -113.5q-173 0 -339 85zM385 518q-21 -136 6.5 -207.5 t120.5 -71.5q109 0 169 72l68 451q-39 80 -135 80t-151 -84.5t-75 -218.5zM474 1280l39 260h381l-39 -260h-381z" />
<glyph unicode="&#x122;" horiz-adv-x="1353" d="M94 576l46 304q41 274 228.5 435.5t452.5 161.5t394 -126t92 -339l-2 -6h-318q16 111 -32.5 161t-163.5 50t-203.5 -94t-110.5 -241l-46 -306q-24 -157 34 -247t188 -90q166 0 239 55l39 260h-258l34 224h596l-87 -577q-89 -92 -236.5 -157t-365.5 -65q-260 0 -410 167.5 t-110 429.5zM375 -507l98 245l24 161h206l-26 -171l-168 -235h-134z" />
<glyph unicode="&#x123;" d="M19 -352l96 250q134 -63 260 -63t187 43.5t75 135.5l12 83q-112 -118 -262 -118q-192 0 -284 150t-55 389l3 21q39 262 171 412.5t335 150.5q160 0 237 -161l44 141h298l-160 -1070q-34 -222 -196 -335.5t-422 -113.5q-173 0 -339 85zM385 518q-21 -136 6.5 -207.5 t120.5 -71.5q109 0 169 72l68 451q-39 80 -135 80t-151 -84.5t-75 -218.5zM527 1261l29 190l149 265h191l-85 -275l-27 -180h-257z" />
<glyph unicode="&#x124;" horiz-adv-x="1446" d="M36 0l218 1456h338l-92 -610h539l92 610h337l-218 -1456h-337l87 586h-539l-87 -586h-338zM486 1587l4 26l336 240h193l268 -244l-3 -22h-265l-118 126l-155 -126h-260z" />
<glyph unicode="&#x125;" d="M6 0l234 1560h338l-91 -605q124 147 291.5 147t249 -118.5t44.5 -361.5l-93 -622h-338l94 624q18 129 -6.5 173.5t-85.5 44.5q-112 0 -183 -67l-116 -775h-338zM285 1590l4 26l336 240h193l268 -244l-3 -22h-265l-118 126l-155 -126h-260z" />
<glyph unicode="&#x126;" horiz-adv-x="1447" d="M44 0l154 1030h-114l27 183h114l37 243h338l-37 -243h539l37 243h337l-37 -243h107l-27 -183h-107l-154 -1030h-337l87 586h-539l-87 -586h-338zM508 846h539l28 184h-539z" />
<glyph unicode="&#x127;" d="M6 0l181 1211h-91l28 191h92l24 158h338l-24 -158h256l-28 -191h-256l-39 -256q124 147 291.5 147t249 -118.5t44.5 -361.5l-93 -622h-338l94 624q18 129 -6.5 173.5t-85.5 44.5q-112 0 -183 -67l-116 -775h-338z" />
<glyph unicode="&#x128;" horiz-adv-x="611" d="M57 0l218 1456h337l-218 -1456h-337zM78 1652q13 97 82 165t160 68q53 0 149.5 -41.5t138 -41.5t70 32.5t34.5 77.5l171 -51q-14 -99 -82.5 -166t-147 -67t-169.5 42t-133 42t-69.5 -32.5t-32.5 -77.5z" />
<glyph unicode="&#x129;" horiz-adv-x="584" d="M15 1309q13 97 82 165t160 68q53 0 149.5 -41.5t138 -41.5t70 32.5t34.5 77.5l171 -51q-14 -99 -82.5 -166t-147 -67t-169.5 42t-133 42t-69.5 -32.5t-32.5 -77.5zM43 0l162 1082h339l-162 -1082h-339z" />
<glyph unicode="&#x12a;" horiz-adv-x="611" d="M57 0l218 1456h337l-218 -1456h-337zM91 1601l24 173h734l-24 -173h-734z" />
<glyph unicode="&#x12b;" horiz-adv-x="584" d="M28 1259l24 173h734l-24 -173h-734zM43 0l162 1082h339l-162 -1082h-339z" />
<glyph unicode="&#x12c;" horiz-adv-x="611" d="M57 0l218 1456h337l-218 -1456h-337zM140 1902l2 6h244q-15 -107 103 -107q57 0 91 30.5t41 76.5h243l2 -6q-15 -138 -125 -219.5t-276.5 -81.5t-257.5 84.5t-67 216.5z" />
<glyph unicode="&#x12d;" horiz-adv-x="584" d="M43 0l162 1082h339l-162 -1082h-339zM76 1559l2 6h244q-15 -107 103 -107q57 0 91 30.5t41 76.5h243l2 -6q-15 -138 -125 -219.5t-276.5 -81.5t-257.5 84.5t-67 216.5z" />
<glyph unicode="&#x12e;" horiz-adv-x="611" d="M-75 -214q13 89 61.5 154.5t139.5 119.5l153 -60q-51 -52 -74.5 -84.5t-28.5 -65.5t6.5 -53t57 -20t99.5 18l11 -168q-88 -44 -196 -44t-175 57t-54 146zM57 0l218 1456h337l-218 -1456h-337z" />
<glyph unicode="&#x12f;" horiz-adv-x="561" d="M-99 -214q13 89 61.5 154.5t139.5 119.5l153 -60q-51 -52 -74.5 -84.5t-28.5 -65.5t6.5 -53t57 -20t99.5 18l11 -168q-88 -44 -196 -44t-175 57t-54 146zM31 0l162 1082h339l-162 -1082h-339zM231 1333l34 227h339l-34 -227h-339z" />
<glyph unicode="&#x130;" horiz-adv-x="611" d="M57 0l218 1456h337l-218 -1456h-337zM275 1602l39 260h381l-39 -260h-381z" />
<glyph unicode="&#x131;" horiz-adv-x="584" d="M43 0l162 1082h339l-162 -1082h-339z" />
<glyph unicode="&#x132;" horiz-adv-x="1755" d="M57 0l218 1456h337l-218 -1456h-337zM612 440l2 6h331q-17 -112 29.5 -159.5t122 -47.5t128 61t68.5 167l148 989h338l-148 -989q-35 -231 -189.5 -359.5t-381.5 -128.5t-356.5 119.5t-91.5 341.5z" />
<glyph unicode="&#x133;" horiz-adv-x="1109" d="M31 0l162 1082h339l-162 -1082h-339zM231 1333l34 227h339l-34 -227h-339zM303 -420l52 255q56 -12 105 -12t85.5 41.5t48.5 120.5l164 1097h339l-164 -1097q-32 -210 -155.5 -316t-318.5 -106q-80 0 -156 17zM790 1334l34 226h339l-34 -226h-339z" />
<glyph unicode="&#x134;" horiz-adv-x="1144" d="M1 440l2 6h331q-17 -112 29.5 -159.5t122 -47.5t128 61t68.5 167l148 989h338l-148 -989q-35 -231 -189.5 -359.5t-381.5 -128.5t-356.5 119.5t-91.5 341.5zM600 1587l4 26l336 240h193l268 -244l-3 -22h-265l-118 126l-155 -126h-260z" />
<glyph unicode="&#x135;" horiz-adv-x="604" d="M-235 -420l53 255q54 -12 103 -12t86.5 42t49.5 120l164 1097h337l-164 -1097q-32 -210 -155 -316t-318 -106q-80 0 -156 17zM-13 1245l4 26l336 240h193l268 -244l-3 -22h-265l-118 126l-155 -126h-260z" />
<glyph unicode="&#x136;" horiz-adv-x="1306" d="M38 0l218 1456h338l-87 -576h91l346 576h446l-527 -721l328 -735h-390l-243 578h-96l-86 -578h-338zM328 -497l98 245l24 161h206l-26 -171l-168 -235h-134z" />
<glyph unicode="&#x137;" horiz-adv-x="1119" d="M16 0l234 1560h338l-132 -875h49l287 397h380l2 -5l-400 -483l298 -594h-385l-208 430h-61l-64 -430h-338zM256 -497l98 245l24 161h206l-26 -171l-168 -235h-134z" />
<glyph unicode="&#x138;" horiz-adv-x="1242" d="M38 0l162 1082h337l-59 -389h91l283 389h425l2 -5l-426 -500l10 5l267 -582h-434l-144 378h-121l-56 -378h-337z" />
<glyph unicode="&#x139;" horiz-adv-x="1144" d="M36 0l218 1456h338l-179 -1196h625l-39 -260h-963zM280 1606l239 261h370l2 -6l-318 -260h-291z" />
<glyph unicode="&#x13a;" horiz-adv-x="561" d="M31 0l234 1560h339l-234 -1560h-339zM277 1643l239 261h370l2 -6l-318 -260h-291z" />
<glyph unicode="&#x13b;" horiz-adv-x="1144" d="M36 0l218 1456h338l-179 -1196h625l-39 -260h-963zM273 -497l98 245l24 161h206l-26 -171l-168 -235h-134z" />
<glyph unicode="&#x13c;" horiz-adv-x="561" d="M-45 -497l98 245l24 161h206l-26 -171l-168 -235h-134zM31 0l234 1560h339l-234 -1560h-339z" />
<glyph unicode="&#x13d;" horiz-adv-x="1144" d="M36 0l218 1456h338l-179 -1196h625l-39 -260h-963zM710 1054l98 245l24 161h206l-26 -171l-168 -235h-134z" />
<glyph unicode="&#x13e;" horiz-adv-x="561" d="M31 0l234 1560h339l-234 -1560h-339zM626 1153l98 245l24 161h206l-26 -171l-168 -235h-134z" />
<glyph unicode="&#x13f;" horiz-adv-x="1144" d="M36 0l218 1456h338l-179 -1196h625l-39 -260h-963zM617 677l39 260h381l-39 -260h-381z" />
<glyph unicode="&#x140;" horiz-adv-x="561" d="M31 0l234 1560h339l-234 -1560h-339zM400 608l39 260h381l-39 -260h-381z" />
<glyph unicode="&#x141;" horiz-adv-x="1022" d="M3 572l31 208l116 30l97 646h338l-83 -553l241 64l-31 -208l-241 -64l-65 -435h625l-39 -260h-963l90 602z" />
<glyph unicode="&#x142;" horiz-adv-x="611" d="M10 572l31 208l132 39l112 741h339l-96 -636l144 43l-31 -208l-144 -43l-107 -716h-339l91 611z" />
<glyph unicode="&#x143;" horiz-adv-x="1446" d="M36 0l218 1456h338l396 -915l6 1l137 914h337l-218 -1456h-337l-397 916l-6 -1l-136 -915h-338zM714 1606l239 261h370l2 -6l-318 -260h-291z" />
<glyph unicode="&#x144;" d="M10 0l162 1082h317l-9 -147q136 167 330 167q153 0 229 -109t42 -342l-98 -651h-338l98 652q16 107 -10.5 148.5t-84.5 41.5q-111 0 -186 -75l-115 -767h-337zM519 1284l239 261h370l2 -6l-318 -260h-291z" />
<glyph unicode="&#x145;" horiz-adv-x="1446" d="M36 0l218 1456h338l396 -915l6 1l137 914h337l-218 -1456h-337l-397 916l-6 -1l-136 -915h-338zM398 -497l98 245l24 161h206l-26 -171l-168 -235h-134z" />
<glyph unicode="&#x146;" d="M10 0l162 1082h317l-9 -147q136 167 330 167q153 0 229 -109t42 -342l-98 -651h-338l98 652q16 107 -10.5 148.5t-84.5 41.5q-111 0 -186 -75l-115 -767h-337zM251 -497l98 245l24 161h206l-26 -171l-168 -235h-134z" />
<glyph unicode="&#x147;" horiz-adv-x="1446" d="M36 0l218 1456h338l396 -915l6 1l137 914h337l-218 -1456h-337l-397 916l-6 -1l-136 -915h-338zM508 1863l2 14h312l85 -116l119 116h309l-2 -16l-331 -260h-239z" />
<glyph unicode="&#x148;" d="M10 0l162 1082h317l-9 -147q136 167 330 167q153 0 229 -109t42 -342l-98 -651h-338l98 652q16 107 -10.5 148.5t-84.5 41.5q-111 0 -186 -75l-115 -767h-337zM313 1541l2 14h312l85 -116l119 116h309l-2 -16l-331 -260h-239z" />
<glyph unicode="&#x149;" d="M10 0l162 1082h317l-9 -147q136 167 330 167q153 0 229 -109t42 -342l-98 -651h-338l98 652q16 107 -10.5 148.5t-84.5 41.5q-111 0 -186 -75l-115 -767h-337zM68 1153l98 245l24 161h206l-26 -171l-168 -235h-134z" />
<glyph unicode="&#x14a;" horiz-adv-x="1449" d="M37 0l218 1456h338l396 -916l6 1l137 915h337l-220 -1471q-32 -210 -155 -316t-318 -106q-83 0 -157 17l52 255q56 -12 104 -12t87 42q40 44 52 135l-397 916l-6 -1l-136 -915h-338z" />
<glyph unicode="&#x14b;" d="M10 0l162 1082h317l-9 -148q136 168 331 168q153 0 229 -109t42 -342l-100 -666q-32 -210 -155 -316t-318 -106q-83 0 -157 17l52 255q56 -12 104 -12t86 42t50 120l100 667q16 107 -10.5 148.5t-85.5 41.5q-109 0 -186 -77l-115 -765h-337z" />
<glyph unicode="&#x14c;" horiz-adv-x="1416" d="M99 597l39 262q41 278 236.5 448t467.5 170t422 -176.5t111 -441.5l-39 -262q-43 -280 -237 -449t-466 -169t-423.5 176.5t-110.5 441.5zM436 597q-25 -164 33.5 -261t191.5 -97t223.5 101t114.5 257l39 264q24 162 -34 259t-191.5 97t-224 -100.5t-113.5 -255.5z M497 1622l24 173h734l-24 -173h-734z" />
<glyph unicode="&#x14d;" d="M51 530l3 21q37 253 196 402t403 149t363.5 -155t84.5 -396l-3 -21q-39 -254 -197.5 -402.5t-402.5 -148.5t-364 154.5t-83 396.5zM312 1280l24 173h734l-24 -173h-734zM389 530q-22 -140 9 -215.5t130 -75.5q187 0 233 291l3 21q20 136 -11 213.5t-130 77.5t-156 -81 t-75 -210z" />
<glyph unicode="&#x14e;" horiz-adv-x="1416" d="M99 597l39 262q41 278 236.5 448t467.5 170t422 -176.5t111 -441.5l-39 -262q-43 -280 -237 -449t-466 -169t-423.5 176.5t-110.5 441.5zM436 597q-25 -164 33.5 -261t191.5 -97t223.5 101t114.5 257l39 264q24 162 -34 259t-191.5 97t-224 -100.5t-113.5 -255.5z M545 1923l2 6h244q-15 -107 103 -107q57 0 91 30.5t41 76.5h243l2 -6q-15 -138 -125 -219.5t-276.5 -81.5t-257.5 84.5t-67 216.5z" />
<glyph unicode="&#x14f;" d="M51 530l3 21q37 253 196 402t403 149t363.5 -155t84.5 -396l-3 -21q-39 -254 -197.5 -402.5t-402.5 -148.5t-364 154.5t-83 396.5zM361 1580l2 6h244q-15 -107 103 -107q57 0 91 30.5t41 76.5h243l2 -6q-15 -138 -125 -219.5t-276.5 -81.5t-257.5 84.5t-67 216.5z M389 530q-22 -140 9 -215.5t130 -75.5q187 0 233 291l3 21q20 136 -11 213.5t-130 77.5t-156 -81t-75 -210z" />
<glyph unicode="&#x150;" horiz-adv-x="1416" d="M99 597l39 262q41 278 236.5 448t467.5 170t422 -176.5t111 -441.5l-39 -262q-43 -280 -237 -449t-466 -169t-423.5 176.5t-110.5 441.5zM436 597q-25 -164 33.5 -261t191.5 -97t223.5 101t114.5 257l39 264q24 162 -34 259t-191.5 97t-224 -100.5t-113.5 -255.5z M531 1627l241 261h304l2 -6l-279 -260h-266zM911 1628l279 260h301l2 -6l-317 -260h-263z" />
<glyph unicode="&#x151;" d="M51 530l3 21q37 253 196 402t403 149t363.5 -155t84.5 -396l-3 -21q-39 -254 -197.5 -402.5t-402.5 -148.5t-364 154.5t-83 396.5zM346 1284l241 261h304l2 -6l-279 -260h-266zM389 530q-22 -140 9 -215.5t130 -75.5q187 0 233 291l3 21q20 136 -11 213.5t-130 77.5 t-156 -81t-75 -210zM726 1285l279 260h301l2 -6l-317 -260h-263z" />
<glyph unicode="&#x152;" horiz-adv-x="1995" d="M99 576l46 304q41 275 237.5 436t479.5 161q111 0 286 -21h795l-39 -260h-616l-47 -313h513l-39 -260h-513l-54 -363h615l-39 -260h-794q-193 -21 -291 -21q-269 0 -424.5 167.5t-115.5 429.5zM436 576q-26 -172 38 -254.5t204 -82.5q63 0 129 6l145 966q-93 6 -129 6 q-133 0 -225 -86t-116 -249z" />
<glyph unicode="&#x153;" horiz-adv-x="1845" d="M51 530l3 21q37 253 196 402t401.5 149t366.5 -156q156 156 410 156q210 0 315 -132.5t72 -357.5l-27 -177h-621l-2 -6q-5 -87 42 -138.5t145.5 -51.5t168.5 16.5t156 50.5l50 -206q-77 -51 -200.5 -86t-253.5 -35q-239 0 -363 157q-163 -157 -409.5 -157t-366.5 154.5 t-83 396.5zM389 530q-22 -140 9 -215.5t130 -75.5q187 0 233 291l3 21q20 136 -11 213.5t-130 77.5t-156 -81t-75 -210zM1197 652l2 -6h291l4 26q13 87 -10.5 128.5t-97.5 41.5q-143 0 -189 -190z" />
<glyph unicode="&#x154;" horiz-adv-x="1306" d="M36 0l218 1456h507q244 0 379 -118t105 -319q-37 -229 -286 -327q239 -75 201 -346l-14 -92q-9 -59 -2.5 -131t43.5 -103l-3 -20h-349q-58 51 -26 256l14 88q32 214 -184 214h-182l-83 -558h-338zM496 818h172q98 0 160.5 47t76 136t-33.5 142t-149 53h-169zM627 1606 l239 261h370l2 -6l-318 -260h-291z" />
<glyph unicode="&#x155;" horiz-adv-x="722" d="M16 0l162 1082h318l-11 -148l5 -3q88 171 242 171q40 0 78 -12l-77 -296l-110 1q-110 0 -163 -85l-106 -710h-338zM354 1284l239 261h370l2 -6l-318 -260h-291z" />
<glyph unicode="&#x156;" horiz-adv-x="1306" d="M36 0l218 1456h507q244 0 379 -118t105 -319q-37 -229 -286 -327q239 -75 201 -346l-14 -92q-9 -59 -2.5 -131t43.5 -103l-3 -20h-349q-58 51 -26 256l14 88q32 214 -184 214h-182l-83 -558h-338zM311 -497l98 245l24 161h206l-26 -171l-168 -235h-134zM496 818h172 q98 0 160.5 47t76 136t-33.5 142t-149 53h-169z" />
<glyph unicode="&#x157;" horiz-adv-x="722" d="M-47 -497l98 245l24 161h206l-26 -171l-168 -235h-134zM16 0l162 1082h318l-11 -148l5 -3q88 171 242 171q40 0 78 -12l-77 -296l-110 1q-110 0 -163 -85l-106 -710h-338z" />
<glyph unicode="&#x158;" horiz-adv-x="1306" d="M36 0l218 1456h507q244 0 379 -118t105 -319q-37 -229 -286 -327q239 -75 201 -346l-14 -92q-9 -59 -2.5 -131t43.5 -103l-3 -20h-349q-58 51 -26 256l14 88q32 214 -184 214h-182l-83 -558h-338zM421 1863l2 14h312l85 -116l119 116h309l-2 -16l-331 -260h-239zM496 818 h172q98 0 160.5 47t76 136t-33.5 142t-149 53h-169z" />
<glyph unicode="&#x159;" horiz-adv-x="722" d="M16 0l162 1082h318l-11 -148l5 -3q88 171 242 171q40 0 78 -12l-77 -296l-110 1q-110 0 -163 -85l-106 -710h-338zM149 1541l2 14h312l85 -116l119 116h309l-2 -16l-331 -260h-239z" />
<glyph unicode="&#x15a;" horiz-adv-x="1273" d="M92 425l2 6h328q-17 -107 58.5 -149.5t166.5 -42.5t151.5 35.5t68.5 88.5q13 89 -38 132.5t-198 98.5q-259 85 -388 202t-102 295.5t188.5 282t399.5 103.5t379 -119t105 -327l-2 -6h-329q12 86 -44.5 139t-144 53t-146.5 -36t-67 -88q-12 -81 45 -121t242 -105 q236 -77 351 -195t86.5 -306t-187 -287.5t-395.5 -99.5t-403.5 109t-126.5 337zM630 1627l239 261h370l2 -6l-318 -260h-291z" />
<glyph unicode="&#x15b;" horiz-adv-x="1048" d="M15 341l2 6h306q-9 -77 30.5 -111t113.5 -34t114 27t46 71.5t-34.5 75.5t-158.5 56q-184 37 -269 114.5t-65.5 219.5t152.5 239t340.5 97t325.5 -97.5t92 -248.5l-2 -6h-329q9 66 -18.5 98t-90 32t-103.5 -29t-47 -73.5t31.5 -74t195.5 -61t242 -109t63.5 -224.5 t-161 -238.5t-354 -91.5t-330.5 113t-92 249zM455 1284l239 261h370l2 -6l-318 -260h-291z" />
<glyph unicode="&#x15c;" horiz-adv-x="1273" d="M92 425l2 6h328q-17 -107 58.5 -149.5t166.5 -42.5t151.5 35.5t68.5 88.5q13 89 -38 132.5t-198 98.5q-259 85 -388 202t-102 295.5t188.5 282t399.5 103.5t379 -119t105 -327l-2 -6h-329q12 86 -44.5 139t-144 53t-146.5 -36t-67 -88q-12 -81 45 -121t242 -105 q236 -77 351 -195t86.5 -306t-187 -287.5t-395.5 -99.5t-403.5 109t-126.5 337zM400 1608l4 26l336 240h193l268 -244l-3 -22h-265l-118 126l-155 -126h-260z" />
<glyph unicode="&#x15d;" horiz-adv-x="1048" d="M15 341l2 6h306q-9 -77 30.5 -111t113.5 -34t114 27t46 71.5t-34.5 75.5t-158.5 56q-184 37 -269 114.5t-65.5 219.5t152.5 239t340.5 97t325.5 -97.5t92 -248.5l-2 -6h-329q9 66 -18.5 98t-90 32t-103.5 -29t-47 -73.5t31.5 -74t195.5 -61t242 -109t63.5 -224.5 t-161 -238.5t-354 -91.5t-330.5 113t-92 249zM227 1265l4 26l336 240h193l268 -244l-3 -22h-265l-118 126l-155 -126h-260z" />
<glyph unicode="&#x15e;" horiz-adv-x="1273" d="M92 425l2 6h328q-17 -107 58.5 -149.5t166.5 -42.5t151.5 35.5t68.5 88.5q13 89 -38 132.5t-198 98.5q-259 85 -388 202t-102 295.5t188.5 282t399.5 103.5t379 -119t105 -327l-2 -6h-329q12 86 -44.5 139t-144 53t-146.5 -36t-67 -88q-12 -81 45 -121t242 -105 q236 -77 351 -195t86.5 -306t-187 -287.5t-395.5 -99.5t-403.5 109t-126.5 337zM378 -145l53 146h256l-20 -61q62 -11 99 -52.5t25 -120.5q-18 -118 -123.5 -183t-287.5 -65l21 186q86 0 100 77q5 39 -22 54t-101 19z" />
<glyph unicode="&#x15f;" horiz-adv-x="1048" d="M15 341l2 6h306q-9 -77 30.5 -111t113.5 -34t114 27t46 71.5t-34.5 75.5t-158.5 56q-184 37 -269 114.5t-65.5 219.5t152.5 239t340.5 97t325.5 -97.5t92 -248.5l-2 -6h-329q9 66 -18.5 98t-90 32t-103.5 -29t-47 -73.5t31.5 -74t195.5 -61t242 -109t63.5 -224.5 t-161 -238.5t-354 -91.5t-330.5 113t-92 249zM255 -145l53 146h256l-20 -61q62 -11 99 -52.5t25 -120.5q-18 -118 -123.5 -183t-287.5 -65l21 186q86 0 100 77q5 39 -22 54t-101 19z" />
<glyph unicode="&#x160;" horiz-adv-x="1273" d="M92 425l2 6h328q-17 -107 58.5 -149.5t166.5 -42.5t151.5 35.5t68.5 88.5q13 89 -38 132.5t-198 98.5q-259 85 -388 202t-102 295.5t188.5 282t399.5 103.5t379 -119t105 -327l-2 -6h-329q12 86 -44.5 139t-144 53t-146.5 -36t-67 -88q-12 -81 45 -121t242 -105 q236 -77 351 -195t86.5 -306t-187 -287.5t-395.5 -99.5t-403.5 109t-126.5 337zM424 1884l2 14h312l85 -116l119 116h309l-2 -16l-331 -260h-239z" />
<glyph unicode="&#x161;" horiz-adv-x="1048" d="M15 341l2 6h306q-9 -77 30.5 -111t113.5 -34t114 27t46 71.5t-34.5 75.5t-158.5 56q-184 37 -269 114.5t-65.5 219.5t152.5 239t340.5 97t325.5 -97.5t92 -248.5l-2 -6h-329q9 66 -18.5 98t-90 32t-103.5 -29t-47 -73.5t31.5 -74t195.5 -61t242 -109t63.5 -224.5 t-161 -238.5t-354 -91.5t-330.5 113t-92 249zM249 1541l2 14h312l85 -116l119 116h309l-2 -16l-331 -260h-239z" />
<glyph unicode="&#x162;" horiz-adv-x="1150" d="M127 1196l39 260h1101l-39 -260h-385l-179 -1196h-338l179 1196h-378zM253 -497l98 245l24 161h206l-26 -171l-168 -235h-134z" />
<glyph unicode="&#x163;" horiz-adv-x="723" d="M42 848l35 234h151l41 269h338l-41 -269h171l-35 -234h-171l-74 -496q-18 -109 71 -109q42 0 82 10l-15 -250q-96 -24 -192 -24q-161 0 -237 90t-47 281l74 498h-151zM92 -507l98 245l24 161h206l-26 -171l-168 -235h-134z" />
<glyph unicode="&#x164;" horiz-adv-x="1150" d="M127 1196l39 260h1101l-39 -260h-385l-179 -1196h-338l179 1196h-378zM363 1863l2 14h312l85 -116l119 116h309l-2 -16l-331 -260h-239z" />
<glyph unicode="&#x165;" horiz-adv-x="723" d="M42 848l35 234h151l41 269h338l-41 -269h171l-35 -234h-171l-74 -496q-18 -109 71 -109q42 0 82 10l-15 -250q-96 -24 -192 -24q-161 0 -237 90t-47 281l74 498h-151zM698 1183l98 245l24 161h206l-26 -171l-168 -235h-134z" />
<glyph unicode="&#x166;" horiz-adv-x="1150" d="M127 1196l39 260h1101l-39 -260h-385l-42 -282h186l-29 -191h-186l-108 -723h-338l108 723h-162l29 191h162l42 282h-378z" />
<glyph unicode="&#x167;" horiz-adv-x="723" d="M-22 507l29 191h164l22 150h-151l35 234h151l41 269h338l-41 -269h171l-35 -234h-171l-22 -150h184l-29 -191h-184l-23 -155q-18 -109 71 -109q42 0 82 10l-15 -250q-96 -24 -192 -24q-161 0 -237 90t-47 281l23 157h-164z" />
<glyph unicode="&#x168;" horiz-adv-x="1417" d="M104 512l141 944h339l-141 -944q-22 -140 37.5 -206.5t182 -66.5t203 69t101.5 204l141 944h339l-141 -944q-40 -260 -224.5 -396.5t-449 -136.5t-415.5 143t-113 390zM480 1652q13 97 82 165t160 68q53 0 149.5 -41.5t138 -41.5t70 32.5t34.5 77.5l171 -51 q-14 -99 -82.5 -166t-147 -67t-169.5 42t-133 42t-69.5 -32.5t-32.5 -77.5z" />
<glyph unicode="&#x169;" d="M77 462l93 620h337l-93 -622q-20 -132 5.5 -176.5t86.5 -44.5q115 0 182 63l117 780h338l-162 -1082h-272l-16 157q-127 -178 -329 -178q-162 0 -243 119t-44 364zM295 1309q13 97 82 165t160 68q53 0 149.5 -41.5t138 -41.5t70 32.5t34.5 77.5l171 -51 q-14 -99 -82.5 -166t-147 -67t-169.5 42t-133 42t-69.5 -32.5t-32.5 -77.5z" />
<glyph unicode="&#x16a;" horiz-adv-x="1417" d="M104 512l141 944h339l-141 -944q-22 -140 37.5 -206.5t182 -66.5t203 69t101.5 204l141 944h339l-141 -944q-40 -260 -224.5 -396.5t-449 -136.5t-415.5 143t-113 390zM493 1601l24 173h734l-24 -173h-734z" />
<glyph unicode="&#x16b;" d="M77 462l93 620h337l-93 -622q-20 -132 5.5 -176.5t86.5 -44.5q115 0 182 63l117 780h338l-162 -1082h-272l-16 157q-127 -178 -329 -178q-162 0 -243 119t-44 364zM308 1259l24 173h734l-24 -173h-734z" />
<glyph unicode="&#x16c;" horiz-adv-x="1417" d="M104 512l141 944h339l-141 -944q-22 -140 37.5 -206.5t182 -66.5t203 69t101.5 204l141 944h339l-141 -944q-40 -260 -224.5 -396.5t-449 -136.5t-415.5 143t-113 390zM542 1902l2 6h244q-15 -107 103 -107q57 0 91 30.5t41 76.5h243l2 -6q-15 -138 -125 -219.5 t-276.5 -81.5t-257.5 84.5t-67 216.5z" />
<glyph unicode="&#x16d;" d="M77 462l93 620h337l-93 -622q-20 -132 5.5 -176.5t86.5 -44.5q115 0 182 63l117 780h338l-162 -1082h-272l-16 157q-127 -178 -329 -178q-162 0 -243 119t-44 364zM356 1559l2 6h244q-15 -107 103 -107q57 0 91 30.5t41 76.5h243l2 -6q-15 -138 -125 -219.5t-276.5 -81.5 t-257.5 84.5t-67 216.5z" />
<glyph unicode="&#x16e;" horiz-adv-x="1417" d="M104 512l141 944h339l-141 -944q-22 -140 37.5 -206.5t182 -66.5t203 69t101.5 204l141 944h339l-141 -944q-40 -260 -224.5 -396.5t-449 -136.5t-415.5 143t-113 390zM699.5 1752.5q11.5 74.5 74 123t143.5 48.5t129.5 -50.5t37.5 -125t-72.5 -121t-142.5 -46.5 t-131 48.5t-38.5 123zM822 1750.5q-5 -31.5 12 -50.5t47 -19t51.5 19.5t26.5 51.5t-10 51.5t-45 19.5t-53.5 -20.5t-28.5 -52z" />
<glyph unicode="&#x16f;" d="M77 462l93 620h337l-93 -622q-20 -132 5.5 -176.5t86.5 -44.5q115 0 182 63l117 780h338l-162 -1082h-272l-16 157q-127 -178 -329 -178q-162 0 -243 119t-44 364zM514.5 1409.5q11.5 74.5 74 123t143.5 48.5t129.5 -50.5t37.5 -125t-72.5 -121t-142.5 -46.5t-131 48.5 t-38.5 123zM637 1407.5q-5 -31.5 12 -50.5t47 -19t51.5 19.5t26.5 51.5t-10 51.5t-45 19.5t-53.5 -20.5t-28.5 -52z" />
<glyph unicode="&#x170;" horiz-adv-x="1417" d="M104 512l141 944h339l-141 -944q-22 -140 37.5 -206.5t182 -66.5t203 69t101.5 204l141 944h339l-141 -944q-40 -260 -224.5 -396.5t-449 -136.5t-415.5 143t-113 390zM527 1606l241 261h304l2 -6l-279 -260h-266zM907 1607l279 260h301l2 -6l-317 -260h-263z" />
<glyph unicode="&#x171;" d="M77 462l93 620h337l-93 -622q-20 -132 5.5 -176.5t86.5 -44.5q115 0 182 63l117 780h338l-162 -1082h-272l-16 157q-127 -178 -329 -178q-162 0 -243 119t-44 364zM342 1263l241 261h304l2 -6l-279 -260h-266zM722 1264l279 260h301l2 -6l-317 -260h-263z" />
<glyph unicode="&#x172;" horiz-adv-x="1417" d="M104 512l141 944h339l-141 -944q-22 -140 37.5 -206.5t182 -66.5t203 69t101.5 204l141 944h339l-141 -944q-40 -260 -224.5 -396.5t-449 -136.5t-415.5 143t-113 390zM372 -214q13 89 61.5 154.5t139.5 119.5l153 -60q-51 -52 -74.5 -84.5t-28.5 -65.5t6.5 -53t57 -20 t99.5 18l11 -168q-88 -44 -196 -44t-175 57t-54 146z" />
<glyph unicode="&#x173;" d="M77 462l93 620h337l-93 -622q-20 -132 5.5 -176.5t86.5 -44.5q115 0 182 63l117 780h338l-162 -1082h-272l-16 157q-127 -178 -329 -178q-162 0 -243 119t-44 364zM510 -214q13 89 61.5 154.5t139.5 119.5l153 -60q-51 -52 -74.5 -84.5t-28.5 -65.5t6.5 -53t57 -20 t99.5 18l11 -168q-88 -44 -196 -44t-175 57t-54 146z" />
<glyph unicode="&#x174;" horiz-adv-x="1825" d="M150 1456h343l34 -945l6 -1l389 946h255l106 -943l6 -1l318 944h342l-552 -1456h-318l-110 899l-6 1l-378 -900h-318zM674 1587l4 26l336 240h193l268 -244l-3 -22h-265l-118 126l-155 -126h-260z" />
<glyph unicode="&#x175;" horiz-adv-x="1485" d="M103 1082h322l17 -608l6 -1l268 609h213l87 -605h6l198 605h322l-416 -1082h-286l-92 554l-6 1l-261 -555h-285zM452 1245l4 26l336 240h193l268 -244l-3 -22h-265l-118 126l-155 -126h-260z" />
<glyph unicode="&#x176;" horiz-adv-x="1307" d="M133 1456h366l193 -637l6 -1l386 638h366l-636 -944l-76 -512h-337l79 528zM424 1587l4 26l336 240h193l268 -244l-3 -22h-265l-118 126l-155 -126h-260z" />
<glyph unicode="&#x177;" horiz-adv-x="1053" d="M-52 -411l78 241q24 -6 69 -6t87.5 24t67.5 70l37 70l-210 1094h359l71 -605v-5l6 -2l270 612h360l-617 -1243q-67 -120 -158.5 -198t-263.5 -78q-52 0 -156 26zM238 1245l4 26l336 240h193l268 -244l-3 -22h-265l-118 126l-155 -126h-260z" />
<glyph unicode="&#x178;" horiz-adv-x="1307" d="M133 1456h366l193 -637l6 -1l386 638h366l-636 -944l-76 -512h-337l79 528zM412 1601l29 204h290l-29 -204h-290zM927 1601l29 204h290l-29 -204h-290z" />
<glyph unicode="&#x179;" horiz-adv-x="1131" d="M-6 152l713 1044h-534l39 260h972l-21 -146l-718 -1050h631l-39 -260h-1022zM589 1609l239 261h370l2 -6l-318 -260h-291z" />
<glyph unicode="&#x17a;" horiz-adv-x="1053" d="M-15 0l28 188l571 629l-2 5h-453l39 260h888l-27 -182l-573 -635l2 -5h485l-39 -260h-919zM465 1263l239 261h370l2 -6l-318 -260h-291z" />
<glyph unicode="&#x17b;" horiz-adv-x="1131" d="M-6 152l713 1044h-534l39 260h972l-21 -146l-718 -1050h631l-39 -260h-1022zM568 1605l39 260h381l-39 -260h-381z" />
<glyph unicode="&#x17c;" horiz-adv-x="1053" d="M-15 0l28 188l571 629l-2 5h-453l39 260h888l-27 -182l-573 -635l2 -5h485l-39 -260h-919zM444 1259l39 260h381l-39 -260h-381z" />
<glyph unicode="&#x17d;" horiz-adv-x="1131" d="M-6 152l713 1044h-534l39 260h972l-21 -146l-718 -1050h631l-39 -260h-1022zM383 1866l2 14h312l85 -116l119 116h309l-2 -16l-331 -260h-239z" />
<glyph unicode="&#x17e;" horiz-adv-x="1053" d="M-15 0l28 188l571 629l-2 5h-453l39 260h888l-27 -182l-573 -635l2 -5h485l-39 -260h-919zM259 1520l2 14h312l85 -116l119 116h309l-2 -16l-331 -260h-239z" />
<glyph unicode="&#x17f;" horiz-adv-x="539" d="M14 0l179 1194q29 194 154 290.5t332 96.5q57 0 164 -21l-61 -249q-56 10 -109 10t-93.5 -33.5t-48.5 -93.5l-179 -1194h-338z" />
<glyph unicode="&#x192;" horiz-adv-x="758" d="M-198 -420l51 255q56 -12 103.5 -12t84.5 42t49 120l121 863h-156l32 234h156l16 112q27 194 151 290.5t332 96.5q57 0 164 -21l-59 -249q-56 10 -108.5 10t-92.5 -33.5t-48 -93.5l-16 -112h214l-32 -234h-214l-123 -863q-30 -210 -151.5 -316t-316.5 -106q-81 0 -157 17 z" />
<glyph unicode="&#x1a0;" horiz-adv-x="1452" d="M94 597l39 262q41 278 236.5 448t475.5 170q135 0 244.5 -50t180.5 -140q98 33 160.5 112.5t80.5 196.5h224q-60 -396 -371 -511q22 -107 6 -226l-39 -262q-43 -280 -237 -449t-466 -169t-423.5 176.5t-110.5 441.5zM431 597q-25 -164 33.5 -261t191.5 -97t223.5 101 t114.5 257l39 264q24 162 -34 259t-191.5 97t-224 -100.5t-113.5 -255.5z" />
<glyph unicode="&#x1a1;" horiz-adv-x="1199" d="M51 530l3 21q37 253 196 402t393.5 149t358.5 -137q113 84 143 272h226q-48 -310 -287 -418q37 -116 17 -268l-3 -21q-39 -254 -197.5 -402.5t-402.5 -148.5t-364 154.5t-83 396.5zM389 530q-22 -140 9 -215.5t130 -75.5q187 0 233 291l3 21q20 136 -11 213.5t-130 77.5 t-156 -81t-75 -210z" />
<glyph unicode="&#x1af;" horiz-adv-x="1475" d="M104 512l141 944h339l-141 -944q-22 -140 37.5 -206.5t182 -66.5t203 69t101.5 204l141 944h339l-28 -182l6 -2q85 18 129 102.5t68 241.5h216l2 -5q-35 -255 -141 -388t-310 -157l-83 -554q-40 -260 -224.5 -396.5t-449 -136.5t-415.5 143t-113 390z" />
<glyph unicode="&#x1b0;" horiz-adv-x="1146" d="M77 462l93 620h337l-93 -622q-20 -132 5.5 -176.5t86.5 -44.5q115 0 182 63l117 780h338l-19 -127l5 -2q142 27 172 228h195l2 -6q-24 -181 -121.5 -279t-279.5 -121l-116 -775h-272l-16 157q-127 -178 -329 -178q-162 0 -243 119t-44 364z" />
<glyph unicode="&#x1f0;" horiz-adv-x="604" d="M-235 -420l53 255q54 -12 103 -12t86.5 42t49.5 120l164 1097h337l-164 -1097q-32 -210 -155 -316t-318 -106q-80 0 -156 17zM10 1520l2 14h312l85 -116l119 116h309l-2 -16l-331 -260h-239z" />
<glyph unicode="&#x1fa;" horiz-adv-x="1307" d="M-75 0l693 1456h181v-1l1 1h181l258 -1456h-356l-43 283h-432l-127 -283h-356zM524 543h277l-67 451l-6 1zM613 1702q12 83 82 137.5t160 54.5t144.5 -56.5t42.5 -140t-80.5 -135t-159 -51.5t-146 54t-43.5 137zM737.5 1700q-5.5 -41 16.5 -65t60.5 -24t67.5 25t35 66.5 t-14 66t-59 24.5t-70 -26t-36.5 -67zM764 1949l239 220h282l2 -6l-318 -220h-203z" />
<glyph unicode="&#x1fb;" horiz-adv-x="1086" d="M0 314q48 327 536 327h139l12 77q20 143 -113 143q-117 0 -133 -113l-328 1l-1 6q17 154 160.5 250.5t348.5 96.5t318 -101t85 -285l-61 -408q-24 -155 12 -308l-334 1q-28 73 -28 167q-57 -86 -129 -137.5t-176 -51.5q-164 0 -248 88.5t-60 246.5zM339 328.5 q-8 -53.5 19.5 -81t82 -27.5t108 29.5t78.5 69.5l21 142h-136q-77 0 -121 -39.5t-52 -93zM451 1380q12 83 82 137.5t160 54.5t144.5 -56.5t42.5 -140t-80.5 -135t-159 -51.5t-146 54t-43.5 137zM575.5 1378q-5.5 -41 16.5 -65t60.5 -24t67.5 25t35 66.5t-14 66t-59 24.5 t-70 -26t-36.5 -67zM602 1627l239 220h282l2 -6l-318 -220h-203z" />
<glyph unicode="&#x1fc;" horiz-adv-x="1916" d="M-69 0l953 1456h1040l-39 -264h-550l-34 -316h455l-39 -264h-444l-38 -348h572l-40 -264h-897l35 329h-382l-202 -329h-390zM688 599h246l52 473l-6 2zM920 1606l239 261h370l2 -6l-318 -260h-291z" />
<glyph unicode="&#x1fd;" horiz-adv-x="1763" d="M46 328q49 327 569 327h157l7 46q10 68 -19 104.5t-94.5 36.5t-111 -29.5t-51.5 -72.5l-325 18l-2 6q17 152 163 245t353 93t321 -89q138 89 338.5 89t308 -133.5t74.5 -356.5l-27 -177h-621l-2 -6q-9 -91 36.5 -140.5t170.5 -49.5t281 67l50 -206q-74 -51 -192 -86 t-238 -35q-243 0 -365 149q-158 -149 -409 -149q-195 0 -296 93.5t-76 255.5zM382.5 319.5q-7.5 -53.5 25.5 -81t94.5 -27.5t119 24t95.5 58l24 158h-154q-84 0 -140.5 -39t-64 -92.5zM843 1285l239 261h370l2 -6l-318 -260h-291zM1117 652l2 -6h291l4 26q25 170 -114 170 q-72 0 -118.5 -50.5t-64.5 -139.5z" />
<glyph unicode="&#x1fe;" horiz-adv-x="1416" d="M99 597l39 262q41 278 236.5 448t475.5 170q196 0 337 -104l105 145h140l-163 -223q145 -176 106 -436l-39 -262q-43 -280 -237 -449t-472 -169q-155 0 -271 62l-99 -136h-140l145 199q-100 83 -143.5 211.5t-19.5 281.5zM436 597q-23 -142 17 -221l6 -2l544 748 q-63 95 -193.5 95t-221 -100.5t-113.5 -255.5zM527 276q53 -37 139 -37q128 0 218.5 101t114.5 257l39 264q10 64 5 114l-5 2zM722 1668l239 261h370l2 -6l-318 -260h-291z" />
<glyph unicode="&#x1ff;" horiz-adv-x="1152" d="M51 530l3 21q37 253 196 402t409 149q89 0 172 -27l92 144h177l-138 -216q87 -74 123 -191.5t16 -260.5l-3 -21q-39 -254 -197.5 -402.5t-407.5 -148.5q-84 0 -167 24l-94 -148h-177l139 218q-91 72 -128.5 191t-14.5 266zM383 382l6 -1l289 453q-37 8 -58 8 q-96 0 -153 -81t-75 -210l-3 -21q-16 -101 -6 -148zM480 245q22 -6 52 -6q95 0 151.5 79t77.5 212l3 21q12 87 6 137l-6 2zM481 1278l239 261h370l2 -6l-318 -260h-291z" />
<glyph unicode="&#x218;" horiz-adv-x="1273" d="M92 425l2 6h328q-17 -107 58.5 -149.5t166.5 -42.5t151.5 35.5t68.5 88.5q13 89 -38 132.5t-198 98.5q-259 85 -388 202t-102 295.5t188.5 282t399.5 103.5t379 -119t105 -327l-2 -6h-329q12 86 -44.5 139t-144 53t-146.5 -36t-67 -88q-12 -81 45 -121t242 -105 q236 -77 351 -195t86.5 -306t-187 -287.5t-395.5 -99.5t-403.5 109t-126.5 337zM307 -517l98 245l24 161h206l-26 -171l-168 -235h-134z" />
<glyph unicode="&#x219;" horiz-adv-x="1048" d="M15 341l2 6h306q-9 -77 30.5 -111t113.5 -34t114 27t46 71.5t-34.5 75.5t-158.5 56q-184 37 -269 114.5t-65.5 219.5t152.5 239t340.5 97t325.5 -97.5t92 -248.5l-2 -6h-329q9 66 -18.5 98t-90 32t-103.5 -29t-47 -73.5t31.5 -74t195.5 -61t242 -109t63.5 -224.5 t-161 -238.5t-354 -91.5t-330.5 113t-92 249zM184 -517l98 245l24 161h206l-26 -171l-168 -235h-134z" />
<glyph unicode="&#x2c6;" horiz-adv-x="1033" d="M228 1252l4 26l336 240h193l268 -244l-3 -22h-265l-118 126l-155 -126h-260z" />
<glyph unicode="&#x2c7;" horiz-adv-x="985" d="M225 1514l2 14h312l85 -116l119 116h309l-2 -16l-331 -260h-239z" />
<glyph unicode="&#x2d8;" horiz-adv-x="927" d="M229 1450l2 6h244q-15 -107 103 -107q57 0 91 30.5t41 76.5h243l2 -6q-15 -138 -125 -219.5t-276.5 -81.5t-257.5 84.5t-67 216.5z" />
<glyph unicode="&#x2d9;" horiz-adv-x="664" d="M229 1215l39 260h381l-39 -260h-381z" />
<glyph unicode="&#x2da;" horiz-adv-x="674" d="M264.5 1305.5q11.5 74.5 74 123t143.5 48.5t129.5 -50.5t37.5 -125t-72.5 -121t-142.5 -46.5t-131 48.5t-38.5 123zM387 1303.5q-5 -31.5 12 -50.5t47 -19t51.5 19.5t26.5 51.5t-10 51.5t-45 19.5t-53.5 -20.5t-28.5 -52z" />
<glyph unicode="&#x2db;" horiz-adv-x="645" d="M-22 -214q13 89 61.5 154.5t139.5 119.5l153 -60q-51 -52 -74.5 -84.5t-28.5 -65.5t6.5 -53t57 -20t99.5 18l11 -168q-88 -44 -196 -44t-175 57t-54 146z" />
<glyph unicode="&#x2dc;" horiz-adv-x="987" d="M214 1271q13 97 82 165t160 68q53 0 149.5 -41.5t138 -41.5t70 32.5t34.5 77.5l171 -51q-14 -99 -82.5 -166t-147 -67t-169.5 42t-133 42t-69.5 -32.5t-32.5 -77.5z" />
<glyph unicode="&#x2dd;" horiz-adv-x="933" d="M275 1257l241 261h304l2 -6l-279 -260h-266zM655 1258l279 260h301l2 -6l-317 -260h-263z" />
<glyph unicode="&#x1e00;" horiz-adv-x="1307" d="M-75 0l693 1456h181v-1l1 1h181l258 -1456h-356l-43 283h-432l-127 -283h-356zM354 -222.5q11 74.5 74 122.5t145 48t131.5 -50t38 -124.5t-72.5 -121.5t-143.5 -47t-133 49t-39.5 123.5zM479 -224.5q-5 -31.5 12 -51t47.5 -19.5t52 20t26.5 52t-10.5 51t-46 19 t-53.5 -20t-28 -51.5zM524 543h277l-67 451l-6 1z" />
<glyph unicode="&#x1e01;" horiz-adv-x="1086" d="M0 314q48 327 536 327h139l12 77q20 143 -113 143q-117 0 -133 -113l-328 1l-1 6q17 154 160.5 250.5t348.5 96.5t318 -101t85 -285l-61 -408q-24 -155 12 -308l-334 1q-28 73 -28 167q-57 -86 -129 -137.5t-176 -51.5q-164 0 -248 88.5t-60 246.5zM156 -200.5 q11 74.5 74 122.5t145 48t131.5 -50t38 -124.5t-72.5 -121.5t-143.5 -47t-133 49t-39.5 123.5zM281 -202.5q-5 -31.5 12 -51t47.5 -19.5t52 20t26.5 52t-10.5 51t-46 19t-53.5 -20t-28 -51.5zM339 328.5q-8 -53.5 19.5 -81t82 -27.5t108 29.5t78.5 69.5l21 142h-136 q-77 0 -121 -39.5t-52 -93z" />
<glyph unicode="&#x1e3e;" horiz-adv-x="1783" d="M36 0l218 1456h443l173 -1018l6 -1l482 1019h447l-218 -1456h-338l140 937l-6 1l-461 -938h-227l-177 924h-6l-138 -924h-338zM882 1606l239 261h370l2 -6l-318 -260h-291z" />
<glyph unicode="&#x1e3f;" horiz-adv-x="1764" d="M16 0l162 1082h318l-9 -138q129 158 332.5 158t252.5 -176q128 176 341 176q152 0 228.5 -114.5t41.5 -348.5l-96 -639h-339l96 639q18 121 -7.5 162t-82.5 41q-103 0 -170 -69l-114 -773h-338l96 639q18 121 -7.5 162t-81.5 41q-99 0 -169 -68l-116 -774h-338zM845 1284 l239 261h370l2 -6l-318 -260h-291z" />
<glyph unicode="&#x1e80;" horiz-adv-x="1825" d="M150 1456h343l34 -945l6 -1l389 946h255l106 -943l6 -1l318 944h342l-552 -1456h-318l-110 899l-6 1l-378 -900h-318zM690 1859l3 6h370l170 -266h-297z" />
<glyph unicode="&#x1e81;" horiz-adv-x="1485" d="M103 1082h322l17 -608l6 -1l268 609h213l87 -605h6l198 605h322l-416 -1082h-286l-92 554l-6 1l-261 -555h-285zM468 1516l3 6h370l170 -266h-297z" />
<glyph unicode="&#x1e82;" horiz-adv-x="1825" d="M150 1456h343l34 -945l6 -1l389 946h255l106 -943l6 -1l318 944h342l-552 -1456h-318l-110 899l-6 1l-378 -900h-318zM903 1606l239 261h370l2 -6l-318 -260h-291z" />
<glyph unicode="&#x1e83;" horiz-adv-x="1485" d="M103 1082h322l17 -608l6 -1l268 609h213l87 -605h6l198 605h322l-416 -1082h-286l-92 554l-6 1l-261 -555h-285zM681 1263l239 261h370l2 -6l-318 -260h-291z" />
<glyph unicode="&#x1e84;" horiz-adv-x="1825" d="M150 1456h343l34 -945l6 -1l389 946h255l106 -943l6 -1l318 944h342l-552 -1456h-318l-110 899l-6 1l-378 -900h-318zM662 1601l29 204h290l-29 -204h-290zM1177 1601l29 204h290l-29 -204h-290z" />
<glyph unicode="&#x1e85;" horiz-adv-x="1485" d="M103 1082h322l17 -608l6 -1l268 609h213l87 -605h6l198 605h322l-416 -1082h-286l-92 554l-6 1l-261 -555h-285zM440 1258l29 204h290l-29 -204h-290zM955 1258l29 204h290l-29 -204h-290z" />
<glyph unicode="&#x1ea0;" horiz-adv-x="1307" d="M-75 0l693 1456h181v-1l1 1h181l258 -1456h-356l-43 283h-432l-127 -283h-356zM342 -362l39 260h381l-39 -260h-381zM524 543h277l-67 451l-6 1z" />
<glyph unicode="&#x1ea1;" horiz-adv-x="1086" d="M0 314q48 327 536 327h139l12 77q20 143 -113 143q-117 0 -133 -113l-328 1l-1 6q17 154 160.5 250.5t348.5 96.5t318 -101t85 -285l-61 -408q-24 -155 12 -308l-334 1q-28 73 -28 167q-57 -86 -129 -137.5t-176 -51.5q-164 0 -248 88.5t-60 246.5zM144 -340l39 260h381 l-39 -260h-381zM339 328.5q-8 -53.5 19.5 -81t82 -27.5t108 29.5t78.5 69.5l21 142h-136q-77 0 -121 -39.5t-52 -93z" />
<glyph unicode="&#x1ea2;" horiz-adv-x="1307" d="M-75 0l693 1456h181v-1l1 1h181l258 -1456h-356l-43 283h-432l-127 -283h-356zM524 543h277l-67 451l-6 1zM679 1715q141 6 141 60v6q10 34 -22.5 48.5t-96.5 14.5l28 145q207 0 306.5 -50.5t84.5 -146.5q-9 -62 -58 -97.5t-113 -43.5l-10 -62h-257z" />
<glyph unicode="&#x1ea3;" horiz-adv-x="1086" d="M0 314q48 327 536 327h139l12 77q20 143 -113 143q-117 0 -133 -113l-328 1l-1 6q17 154 160.5 250.5t348.5 96.5t318 -101t85 -285l-61 -408q-24 -155 12 -308l-334 1q-28 73 -28 167q-57 -86 -129 -137.5t-176 -51.5q-164 0 -248 88.5t-60 246.5zM339 328.5 q-8 -53.5 19.5 -81t82 -27.5t108 29.5t78.5 69.5l21 142h-136q-77 0 -121 -39.5t-52 -93zM517 1394q141 6 141 60v6q10 34 -22.5 48.5t-96.5 14.5l28 145q207 0 306.5 -50.5t84.5 -146.5q-9 -62 -58 -97.5t-113 -43.5l-10 -62h-257z" />
<glyph unicode="&#x1ea4;" horiz-adv-x="1307" d="M-75 0l693 1456h181v-1l1 1h181l258 -1456h-356l-43 283h-432l-127 -283h-356zM378 1580l338 250h280l263 -250l-2 -6h-294l-126 137l-164 -137h-293zM524 543h277l-67 451l-6 1zM1184 1743l193 275h290l3 -6l-254 -269h-232z" />
<glyph unicode="&#x1ea5;" horiz-adv-x="1086" d="M0 314q48 327 536 327h139l12 77q20 143 -113 143q-117 0 -133 -113l-328 1l-1 6q17 154 160.5 250.5t348.5 96.5t318 -101t85 -285l-61 -408q-24 -155 12 -308l-334 1q-28 73 -28 167q-57 -86 -129 -137.5t-176 -51.5q-164 0 -248 88.5t-60 246.5zM216 1258l338 250h280 l263 -250l-2 -6h-294l-126 137l-164 -137h-293zM339 328.5q-8 -53.5 19.5 -81t82 -27.5t108 29.5t78.5 69.5l21 142h-136q-77 0 -121 -39.5t-52 -93zM1022 1421l193 275h290l3 -6l-254 -269h-232z" />
<glyph unicode="&#x1ea6;" horiz-adv-x="1307" d="M-75 0l693 1456h181v-1l1 1h181l258 -1456h-356l-43 283h-432l-127 -283h-356zM86 2016h297l111 -275h-231zM371 1578l337 250h280l264 -250l-2 -6h-295l-124 137l-166 -137h-292zM524 543h277l-67 451l-6 1z" />
<glyph unicode="&#x1ea7;" horiz-adv-x="1086" d="M-76 1695h297l111 -275h-231zM0 314q48 327 536 327h139l12 77q20 143 -113 143q-117 0 -133 -113l-328 1l-1 6q17 154 160.5 250.5t348.5 96.5t318 -101t85 -285l-61 -408q-24 -155 12 -308l-334 1q-28 73 -28 167q-57 -86 -129 -137.5t-176 -51.5q-164 0 -248 88.5 t-60 246.5zM209 1257l337 250h280l264 -250l-2 -6h-295l-124 137l-166 -137h-292zM339 328.5q-8 -53.5 19.5 -81t82 -27.5t108 29.5t78.5 69.5l21 142h-136q-77 0 -121 -39.5t-52 -93z" />
<glyph unicode="&#x1ea8;" horiz-adv-x="1307" d="M-75 0l693 1456h181v-1l1 1h181l258 -1456h-356l-43 283h-432l-127 -283h-356zM363 1546l2 -6h296l161 136l122 -136h298l2 6l-266 250h-275zM524 543h277l-67 451l-6 1zM1162 1780q117 6 117 49v6q8 29 -19.5 41.5t-80.5 12.5l26 120q172 0 254.5 -42t71.5 -122 q-9 -53 -49.5 -82.5t-92.5 -36.5l-8 -52h-215z" />
<glyph unicode="&#x1ea9;" horiz-adv-x="1086" d="M0 314q48 327 536 327h139l12 77q20 143 -113 143q-117 0 -133 -113l-328 1l-1 6q17 154 160.5 250.5t348.5 96.5t318 -101t85 -285l-61 -408q-24 -155 12 -308l-334 1q-28 73 -28 167q-57 -86 -129 -137.5t-176 -51.5q-164 0 -248 88.5t-60 246.5zM201 1225l2 -6h296 l161 136l122 -136h298l2 6l-266 250h-275zM339 328.5q-8 -53.5 19.5 -81t82 -27.5t108 29.5t78.5 69.5l21 142h-136q-77 0 -121 -39.5t-52 -93zM1000 1459q117 6 117 49v6q8 29 -19.5 41.5t-80.5 12.5l26 120q172 0 254.5 -42t71.5 -122q-9 -53 -49.5 -82.5t-92.5 -36.5 l-8 -52h-215z" />
<glyph unicode="&#x1eaa;" horiz-adv-x="1307" d="M-75 0l693 1456h181v-1l1 1h181l258 -1456h-356l-43 283h-432l-127 -283h-356zM355 1525l326 212h278l261 -212l-2 -6h-291l-122 116l-158 -116h-290zM524 543h277l-67 451l-6 1zM571 1832q11 72 55 124t95 52t131 -34.5t109 -34.5q51 0 66 88l123 -47 q-12 -72 -57.5 -123.5t-101 -51.5t-131 35t-116 35t-51.5 -79z" />
<glyph unicode="&#x1eab;" horiz-adv-x="1086" d="M0 314q48 327 536 327h139l12 77q20 143 -113 143q-117 0 -133 -113l-328 1l-1 6q17 154 160.5 250.5t348.5 96.5t318 -101t85 -285l-61 -408q-24 -155 12 -308l-334 1q-28 73 -28 167q-57 -86 -129 -137.5t-176 -51.5q-164 0 -248 88.5t-60 246.5zM193 1204l326 212h278 l261 -212l-2 -6h-291l-122 116l-158 -116h-290zM339 328.5q-8 -53.5 19.5 -81t82 -27.5t108 29.5t78.5 69.5l21 142h-136q-77 0 -121 -39.5t-52 -93zM409 1511q11 72 55 124t95 52t131 -34.5t109 -34.5q51 0 66 88l123 -47q-12 -72 -57.5 -123.5t-101 -51.5t-131 35t-116 35 t-51.5 -79z" />
<glyph unicode="&#x1eac;" horiz-adv-x="1307" d="M-75 0l693 1456h181v-1l1 1h181l258 -1456h-356l-43 283h-432l-127 -283h-356zM342 -362l39 260h381l-39 -260h-381zM417 1587l4 26l336 240h193l268 -244l-3 -22h-265l-118 126l-155 -126h-260zM524 543h277l-67 451l-6 1z" />
<glyph unicode="&#x1ead;" horiz-adv-x="1086" d="M0 314q48 327 536 327h139l12 77q20 143 -113 143q-117 0 -133 -113l-328 1l-1 6q17 154 160.5 250.5t348.5 96.5t318 -101t85 -285l-61 -408q-24 -155 12 -308l-334 1q-28 73 -28 167q-57 -86 -129 -137.5t-176 -51.5q-164 0 -248 88.5t-60 246.5zM144 -340l39 260h381 l-39 -260h-381zM255 1265l4 26l336 240h193l268 -244l-3 -22h-265l-118 126l-155 -126h-260zM339 328.5q-8 -53.5 19.5 -81t82 -27.5t108 29.5t78.5 69.5l21 142h-136q-77 0 -121 -39.5t-52 -93z" />
<glyph unicode="&#x1eae;" horiz-adv-x="1307" d="M-75 0l693 1456h181v-1l1 1h181l258 -1456h-356l-43 283h-432l-127 -283h-356zM462 1769l2 6h243q-6 -41 18.5 -66.5t83.5 -25.5t92 26t39 66h242l2 -6q-12 -118 -120.5 -187t-274.5 -69t-258 72t-69 184zM524 543h277l-67 451l-6 1zM745 1825l154 179h228l2 -6 l-203 -178h-179z" />
<glyph unicode="&#x1eaf;" horiz-adv-x="1086" d="M0 314q48 327 536 327h139l12 77q20 143 -113 143q-117 0 -133 -113l-328 1l-1 6q17 154 160.5 250.5t348.5 96.5t318 -101t85 -285l-61 -408q-24 -155 12 -308l-334 1q-28 73 -28 167q-57 -86 -129 -137.5t-176 -51.5q-164 0 -248 88.5t-60 246.5zM300 1448l2 6h243 q-6 -41 18.5 -66.5t83.5 -25.5t92 26t39 66h242l2 -6q-12 -118 -120.5 -187t-274.5 -69t-258 72t-69 184zM339 328.5q-8 -53.5 19.5 -81t82 -27.5t108 29.5t78.5 69.5l21 142h-136q-77 0 -121 -39.5t-52 -93zM583 1504l154 179h228l2 -6l-203 -178h-179z" />
<glyph unicode="&#x1eb0;" horiz-adv-x="1307" d="M-75 0l693 1456h181v-1l1 1h181l258 -1456h-356l-43 283h-432l-127 -283h-356zM503 1881l2 6h221q-7 -48 22.5 -77.5t99 -29.5t109 30.5t46.5 76.5h219l2 -6q-15 -138 -125.5 -219.5t-276 -81.5t-255 84.5t-64.5 216.5zM524 543h277l-67 451l-6 1zM601 2179h300l132 -224 h-262z" />
<glyph unicode="&#x1eb1;" horiz-adv-x="1086" d="M0 314q48 327 536 327h139l12 77q20 143 -113 143q-117 0 -133 -113l-328 1l-1 6q17 154 160.5 250.5t348.5 96.5t318 -101t85 -285l-61 -408q-24 -155 12 -308l-334 1q-28 73 -28 167q-57 -86 -129 -137.5t-176 -51.5q-164 0 -248 88.5t-60 246.5zM339 328.5 q-8 -53.5 19.5 -81t82 -27.5t108 29.5t78.5 69.5l21 142h-136q-77 0 -121 -39.5t-52 -93zM340 1559l2 6h221q-7 -48 22.5 -77.5t99 -29.5t109 30.5t46.5 76.5h219l2 -6q-15 -138 -125.5 -219.5t-276 -81.5t-255 84.5t-64.5 216.5zM438 1857h300l132 -224h-262z" />
<glyph unicode="&#x1eb2;" horiz-adv-x="1307" d="M-75 0l693 1456h181v-1l1 1h181l258 -1456h-356l-43 283h-432l-127 -283h-356zM468 1810q-22 -104 72.5 -171t265 -67t280.5 64.5t119 173.5l-1 6h-246q-5 -37 -39 -61t-95 -24t-87 23t-20 62h-247zM524 543h277l-67 451l-6 1zM700 1960q138 4 134 45v6q10 27 -22.5 38 t-94.5 11l24 114q410 0 388 -154q-7 -49 -54 -77t-110 -34l-7 -48h-250z" />
<glyph unicode="&#x1eb3;" horiz-adv-x="1086" d="M0 314q48 327 536 327h139l12 77q20 143 -113 143q-117 0 -133 -113l-328 1l-1 6q17 154 160.5 250.5t348.5 96.5t318 -101t85 -285l-61 -408q-24 -155 12 -308l-334 1q-28 73 -28 167q-57 -86 -129 -137.5t-176 -51.5q-164 0 -248 88.5t-60 246.5zM306 1488 q-22 -104 72.5 -171t265 -67t280.5 64.5t119 173.5l-1 6h-246q-5 -37 -39 -61t-95 -24t-87 23t-20 62h-247zM339 328.5q-8 -53.5 19.5 -81t82 -27.5t108 29.5t78.5 69.5l21 142h-136q-77 0 -121 -39.5t-52 -93zM538 1638q138 4 134 45v6q10 27 -22.5 38t-94.5 11l24 114 q410 0 388 -154q-7 -49 -54 -77t-110 -34l-7 -48h-250z" />
<glyph unicode="&#x1eb4;" horiz-adv-x="1307" d="M-75 0l693 1456h181v-1l1 1h181l258 -1456h-356l-43 283h-432l-127 -283h-356zM481 1800l2 6h242q-6 -39 19 -62t84.5 -23t92.5 24t38 61h243l1 -6q-9 -109 -117.5 -173.5t-275 -64.5t-259 67t-70.5 171zM524 543h277l-67 451l-6 1zM552 1918q11 76 64.5 128.5t109 52.5 t130 -32t106.5 -32t54 24.5t28 60.5l133 -39q-12 -77 -66 -129t-114.5 -52t-130 32.5t-102 32.5t-53.5 -25t-26 -60z" />
<glyph unicode="&#x1eb5;" horiz-adv-x="1086" d="M0 314q48 327 536 327h139l12 77q20 143 -113 143q-117 0 -133 -113l-328 1l-1 6q17 154 160.5 250.5t348.5 96.5t318 -101t85 -285l-61 -408q-24 -155 12 -308l-334 1q-28 73 -28 167q-57 -86 -129 -137.5t-176 -51.5q-164 0 -248 88.5t-60 246.5zM318 1478l2 6h242 q-6 -39 19 -62t84.5 -23t92.5 24t38 61h243l1 -6q-9 -109 -117.5 -173.5t-275 -64.5t-259 67t-70.5 171zM339 328.5q-8 -53.5 19.5 -81t82 -27.5t108 29.5t78.5 69.5l21 142h-136q-77 0 -121 -39.5t-52 -93zM389 1596q11 76 64.5 128.5t109 52.5t130 -32t106.5 -32t54 24.5 t28 60.5l133 -39q-12 -77 -66 -129t-114.5 -52t-130 32.5t-102 32.5t-53.5 -25t-26 -60z" />
<glyph unicode="&#x1eb6;" horiz-adv-x="1307" d="M-75 0l693 1456h181v-1l1 1h181l258 -1456h-356l-43 283h-432l-127 -283h-356zM342 -362l39 260h381l-39 -260h-381zM489 1902l2 6h244q-15 -107 103 -107q57 0 91 30.5t41 76.5h243l2 -6q-15 -138 -125 -219.5t-276.5 -81.5t-257.5 84.5t-67 216.5zM524 543h277l-67 451 l-6 1z" />
<glyph unicode="&#x1eb7;" horiz-adv-x="1086" d="M0 314q48 327 536 327h139l12 77q20 143 -113 143q-117 0 -133 -113l-328 1l-1 6q17 154 160.5 250.5t348.5 96.5t318 -101t85 -285l-61 -408q-24 -155 12 -308l-334 1q-28 73 -28 167q-57 -86 -129 -137.5t-176 -51.5q-164 0 -248 88.5t-60 246.5zM144 -340l39 260h381 l-39 -260h-381zM327 1580l2 6h244q-15 -107 103 -107q57 0 91 30.5t41 76.5h243l2 -6q-15 -138 -125 -219.5t-276.5 -81.5t-257.5 84.5t-67 216.5zM339 328.5q-8 -53.5 19.5 -81t82 -27.5t108 29.5t78.5 69.5l21 142h-136q-77 0 -121 -39.5t-52 -93z" />
<glyph unicode="&#x1eb8;" horiz-adv-x="1143" d="M36 0l218 1456h954l-39 -260h-616l-47 -313h513l-39 -260h-513l-54 -363h615l-39 -260h-953zM271 -352l39 260h381l-39 -260h-381z" />
<glyph unicode="&#x1eb9;" horiz-adv-x="1070" d="M47 505l5 38q38 257 191.5 408.5t404.5 150.5q210 0 315 -132.5t72 -357.5l-27 -177h-621l-2 -6q-5 -87 42 -138.5t145.5 -51.5t168.5 16.5t156 50.5l50 -206q-77 -51 -200.5 -86t-253.5 -35q-236 0 -358 150.5t-88 375.5zM248 -362l39 260h381l-39 -260h-381zM417 652 l2 -6h291l4 26q13 87 -10.5 128.5t-97.5 41.5q-143 0 -189 -190z" />
<glyph unicode="&#x1eba;" horiz-adv-x="1143" d="M36 0l218 1456h954l-39 -260h-616l-47 -313h513l-39 -260h-513l-54 -363h615l-39 -260h-953zM617 1715q141 6 141 60v6q10 34 -22.5 48.5t-96.5 14.5l28 145q207 0 306.5 -50.5t84.5 -146.5q-9 -62 -58 -97.5t-113 -43.5l-10 -62h-257z" />
<glyph unicode="&#x1ebb;" horiz-adv-x="1070" d="M47 505l5 38q38 257 191.5 408.5t404.5 150.5q210 0 315 -132.5t72 -357.5l-27 -177h-621l-2 -6q-5 -87 42 -138.5t145.5 -51.5t168.5 16.5t156 50.5l50 -206q-77 -51 -200.5 -86t-253.5 -35q-236 0 -358 150.5t-88 375.5zM417 652l2 -6h291l4 26q13 87 -10.5 128.5 t-97.5 41.5q-143 0 -189 -190zM515 1395q141 6 141 60v6q10 34 -22.5 48.5t-96.5 14.5l28 145q207 0 306.5 -50.5t84.5 -146.5q-9 -62 -58 -97.5t-113 -43.5l-10 -62h-257z" />
<glyph unicode="&#x1ebc;" horiz-adv-x="1143" d="M36 0l218 1456h954l-39 -260h-616l-47 -313h513l-39 -260h-513l-54 -363h615l-39 -260h-953zM365 1652q13 97 82 165t160 68q53 0 149.5 -41.5t138 -41.5t70 32.5t34.5 77.5l171 -51q-14 -99 -82.5 -166t-147 -67t-169.5 42t-133 42t-69.5 -32.5t-32.5 -77.5z" />
<glyph unicode="&#x1ebd;" horiz-adv-x="1070" d="M47 505l5 38q38 257 191.5 408.5t404.5 150.5q210 0 315 -132.5t72 -357.5l-27 -177h-621l-2 -6q-5 -87 42 -138.5t145.5 -51.5t168.5 16.5t156 50.5l50 -206q-77 -51 -200.5 -86t-253.5 -35q-236 0 -358 150.5t-88 375.5zM263 1331q13 97 82 165t160 68 q53 0 149.5 -41.5t138 -41.5t70 32.5t34.5 77.5l171 -51q-14 -99 -82.5 -166t-147 -67t-169.5 42t-133 42t-69.5 -32.5t-32.5 -77.5zM417 652l2 -6h291l4 26q13 87 -10.5 128.5t-97.5 41.5q-143 0 -189 -190z" />
<glyph unicode="&#x1ebe;" horiz-adv-x="1143" d="M36 0l218 1456h954l-39 -260h-616l-47 -313h513l-39 -260h-513l-54 -363h615l-39 -260h-953zM316 1580l338 250h280l263 -250l-2 -6h-294l-126 137l-164 -137h-293zM1122 1743l193 275h290l3 -6l-254 -269h-232z" />
<glyph unicode="&#x1ebf;" horiz-adv-x="1070" d="M47 505l5 38q38 257 191.5 408.5t404.5 150.5q210 0 315 -132.5t72 -357.5l-27 -177h-621l-2 -6q-5 -87 42 -138.5t145.5 -51.5t168.5 16.5t156 50.5l50 -206q-77 -51 -200.5 -86t-253.5 -35q-236 0 -358 150.5t-88 375.5zM214 1259l338 250h280l263 -250l-2 -6h-294 l-126 137l-164 -137h-293zM417 652l2 -6h291l4 26q13 87 -10.5 128.5t-97.5 41.5q-143 0 -189 -190zM1020 1422l193 275h290l3 -6l-254 -269h-232z" />
<glyph unicode="&#x1ec0;" horiz-adv-x="1143" d="M24 2016h297l111 -275h-231zM36 0l218 1456h954l-39 -260h-616l-47 -313h513l-39 -260h-513l-54 -363h615l-39 -260h-953zM309 1578l337 250h280l264 -250l-2 -6h-295l-124 137l-166 -137h-292z" />
<glyph unicode="&#x1ec1;" horiz-adv-x="1070" d="M-78 1696h297l111 -275h-231zM47 505l5 38q38 257 191.5 408.5t404.5 150.5q210 0 315 -132.5t72 -357.5l-27 -177h-621l-2 -6q-5 -87 42 -138.5t145.5 -51.5t168.5 16.5t156 50.5l50 -206q-77 -51 -200.5 -86t-253.5 -35q-236 0 -358 150.5t-88 375.5zM207 1258l337 250 h280l264 -250l-2 -6h-295l-124 137l-166 -137h-292zM417 652l2 -6h291l4 26q13 87 -10.5 128.5t-97.5 41.5q-143 0 -189 -190z" />
<glyph unicode="&#x1ec2;" horiz-adv-x="1143" d="M36 0l218 1456h954l-39 -260h-616l-47 -313h513l-39 -260h-513l-54 -363h615l-39 -260h-953zM301 1546l2 -6h296l161 136l122 -136h298l2 6l-266 250h-275zM1100 1780q117 6 117 49v6q8 29 -19.5 41.5t-80.5 12.5l26 120q172 0 254.5 -42t71.5 -122q-9 -53 -49.5 -82.5 t-92.5 -36.5l-8 -52h-215z" />
<glyph unicode="&#x1ec3;" horiz-adv-x="1070" d="M47 505l5 38q38 257 191.5 408.5t404.5 150.5q210 0 315 -132.5t72 -357.5l-27 -177h-621l-2 -6q-5 -87 42 -138.5t145.5 -51.5t168.5 16.5t156 50.5l50 -206q-77 -51 -200.5 -86t-253.5 -35q-236 0 -358 150.5t-88 375.5zM199 1226l2 -6h296l161 136l122 -136h298l2 6 l-266 250h-275zM417 652l2 -6h291l4 26q13 87 -10.5 128.5t-97.5 41.5q-143 0 -189 -190zM998 1460q117 6 117 49v6q8 29 -19.5 41.5t-80.5 12.5l26 120q172 0 254.5 -42t71.5 -122q-9 -53 -49.5 -82.5t-92.5 -36.5l-8 -52h-215z" />
<glyph unicode="&#x1ec4;" horiz-adv-x="1143" d="M36 0l218 1456h954l-39 -260h-616l-47 -313h513l-39 -260h-513l-54 -363h615l-39 -260h-953zM293 1525l326 212h278l261 -212l-2 -6h-291l-122 116l-158 -116h-290zM509 1832q11 72 55 124t95 52t131 -34.5t109 -34.5q51 0 66 88l123 -47q-12 -72 -57.5 -123.5 t-101 -51.5t-131 35t-116 35t-51.5 -79z" />
<glyph unicode="&#x1ec5;" horiz-adv-x="1070" d="M47 505l5 38q38 257 191.5 408.5t404.5 150.5q210 0 315 -132.5t72 -357.5l-27 -177h-621l-2 -6q-5 -87 42 -138.5t145.5 -51.5t168.5 16.5t156 50.5l50 -206q-77 -51 -200.5 -86t-253.5 -35q-236 0 -358 150.5t-88 375.5zM191 1205l326 212h278l261 -212l-2 -6h-291 l-122 116l-158 -116h-290zM407 1512q11 72 55 124t95 52t131 -34.5t109 -34.5q51 0 66 88l123 -47q-12 -72 -57.5 -123.5t-101 -51.5t-131 35t-116 35t-51.5 -79zM417 652l2 -6h291l4 26q13 87 -10.5 128.5t-97.5 41.5q-143 0 -189 -190z" />
<glyph unicode="&#x1ec6;" horiz-adv-x="1143" d="M36 0l218 1456h954l-39 -260h-616l-47 -313h513l-39 -260h-513l-54 -363h615l-39 -260h-953zM271 -352l39 260h381l-39 -260h-381zM355 1587l4 26l336 240h193l268 -244l-3 -22h-265l-118 126l-155 -126h-260z" />
<glyph unicode="&#x1ec7;" horiz-adv-x="1070" d="M47 505l5 38q38 257 191.5 408.5t404.5 150.5q210 0 315 -132.5t72 -357.5l-27 -177h-621l-2 -6q-5 -87 42 -138.5t145.5 -51.5t168.5 16.5t156 50.5l50 -206q-77 -51 -200.5 -86t-253.5 -35q-236 0 -358 150.5t-88 375.5zM248 -362l39 260h381l-39 -260h-381zM253 1266 l4 26l336 240h193l268 -244l-3 -22h-265l-118 126l-155 -126h-260zM417 652l2 -6h291l4 26q13 87 -10.5 128.5t-97.5 41.5q-143 0 -189 -190z" />
<glyph unicode="&#x1ec8;" horiz-adv-x="611" d="M57 0l218 1456h337l-218 -1456h-337zM329 1715q141 6 141 60v6q10 34 -22.5 48.5t-96.5 14.5l28 145q207 0 306.5 -50.5t84.5 -146.5q-9 -62 -58 -97.5t-113 -43.5l-10 -62h-257z" />
<glyph unicode="&#x1ec9;" horiz-adv-x="584" d="M43 0l162 1082h339l-162 -1082h-339zM266 1373q141 6 141 60v6q10 34 -22.5 48.5t-96.5 14.5l28 145q207 0 306.5 -50.5t84.5 -146.5q-9 -62 -58 -97.5t-113 -43.5l-10 -62h-257z" />
<glyph unicode="&#x1eca;" horiz-adv-x="611" d="M-17 -352l39 260h381l-39 -260h-381zM57 0l218 1456h337l-218 -1456h-337z" />
<glyph unicode="&#x1ecb;" horiz-adv-x="561" d="M-42 -352l39 260h381l-39 -260h-381zM31 0l162 1082h339l-162 -1082h-339zM231 1333l34 227h339l-34 -227h-339z" />
<glyph unicode="&#x1ecc;" horiz-adv-x="1416" d="M99 597l39 262q41 278 236.5 448t467.5 170t422 -176.5t111 -441.5l-39 -262q-43 -280 -237 -449t-466 -169t-423.5 176.5t-110.5 441.5zM383 -371l39 260h381l-39 -260h-381zM436 597q-25 -164 33.5 -261t191.5 -97t223.5 101t114.5 257l39 264q24 162 -34 259 t-191.5 97t-224 -100.5t-113.5 -255.5z" />
<glyph unicode="&#x1ecd;" d="M51 530l3 21q37 253 196 402t403 149t363.5 -155t84.5 -396l-3 -21q-39 -254 -197.5 -402.5t-402.5 -148.5t-364 154.5t-83 396.5zM250 -371l39 260h381l-39 -260h-381zM389 530q-22 -140 9 -215.5t130 -75.5q187 0 233 291l3 21q20 136 -11 213.5t-130 77.5t-156 -81 t-75 -210z" />
<glyph unicode="&#x1ece;" horiz-adv-x="1416" d="M99 597l39 262q41 278 236.5 448t467.5 170t422 -176.5t111 -441.5l-39 -262q-43 -280 -237 -449t-466 -169t-423.5 176.5t-110.5 441.5zM436 597q-25 -164 33.5 -261t191.5 -97t223.5 101t114.5 257l39 264q24 162 -34 259t-191.5 97t-224 -100.5t-113.5 -255.5z M735 1736q141 6 141 60v6q10 34 -22.5 48.5t-96.5 14.5l28 145q207 0 306.5 -50.5t84.5 -146.5q-9 -62 -58 -97.5t-113 -43.5l-10 -62h-257z" />
<glyph unicode="&#x1ecf;" d="M51 530l3 21q37 253 196 402t403 149t363.5 -155t84.5 -396l-3 -21q-39 -254 -197.5 -402.5t-402.5 -148.5t-364 154.5t-83 396.5zM389 530q-22 -140 9 -215.5t130 -75.5q187 0 233 291l3 21q20 136 -11 213.5t-130 77.5t-156 -81t-75 -210zM551 1394q141 6 141 60v6 q10 34 -22.5 48.5t-96.5 14.5l28 145q207 0 306.5 -50.5t84.5 -146.5q-9 -62 -58 -97.5t-113 -43.5l-10 -62h-257z" />
<glyph unicode="&#x1ed0;" horiz-adv-x="1416" d="M99 597l39 262q41 278 236.5 448t467.5 170t422 -176.5t111 -441.5l-39 -262q-43 -280 -237 -449t-466 -169t-423.5 176.5t-110.5 441.5zM434 1601l338 250h280l263 -250l-2 -6h-294l-126 137l-164 -137h-293zM436 597q-25 -164 33.5 -261t191.5 -97t223.5 101t114.5 257 l39 264q24 162 -34 259t-191.5 97t-224 -100.5t-113.5 -255.5zM1240 1764l193 275h290l3 -6l-254 -269h-232z" />
<glyph unicode="&#x1ed1;" d="M51 530l3 21q37 253 196 402t403 149t363.5 -155t84.5 -396l-3 -21q-39 -254 -197.5 -402.5t-402.5 -148.5t-364 154.5t-83 396.5zM250 1258l338 250h280l263 -250l-2 -6h-294l-126 137l-164 -137h-293zM389 530q-22 -140 9 -215.5t130 -75.5q187 0 233 291l3 21 q20 136 -11 213.5t-130 77.5t-156 -81t-75 -210zM1056 1421l193 275h290l3 -6l-254 -269h-232z" />
<glyph unicode="&#x1ed2;" horiz-adv-x="1416" d="M99 597l39 262q41 278 236.5 448t467.5 170t422 -176.5t111 -441.5l-39 -262q-43 -280 -237 -449t-466 -169t-423.5 176.5t-110.5 441.5zM142 2037h297l111 -275h-231zM427 1599l337 250h280l264 -250l-2 -6h-295l-124 137l-166 -137h-292zM436 597q-25 -164 33.5 -261 t191.5 -97t223.5 101t114.5 257l39 264q24 162 -34 259t-191.5 97t-224 -100.5t-113.5 -255.5z" />
<glyph unicode="&#x1ed3;" d="M-42 1695h297l111 -275h-231zM51 530l3 21q37 253 196 402t403 149t363.5 -155t84.5 -396l-3 -21q-39 -254 -197.5 -402.5t-402.5 -148.5t-364 154.5t-83 396.5zM243 1257l337 250h280l264 -250l-2 -6h-295l-124 137l-166 -137h-292zM389 530q-22 -140 9 -215.5 t130 -75.5q187 0 233 291l3 21q20 136 -11 213.5t-130 77.5t-156 -81t-75 -210z" />
<glyph unicode="&#x1ed4;" horiz-adv-x="1416" d="M99 597l39 262q41 278 236.5 448t467.5 170t422 -176.5t111 -441.5l-39 -262q-43 -280 -237 -449t-466 -169t-423.5 176.5t-110.5 441.5zM419 1567l2 -6h296l161 136l122 -136h298l2 6l-266 250h-275zM436 597q-25 -164 33.5 -261t191.5 -97t223.5 101t114.5 257l39 264 q24 162 -34 259t-191.5 97t-224 -100.5t-113.5 -255.5zM1218 1801q117 6 117 49v6q8 29 -19.5 41.5t-80.5 12.5l26 120q172 0 254.5 -42t71.5 -122q-9 -53 -49.5 -82.5t-92.5 -36.5l-8 -52h-215z" />
<glyph unicode="&#x1ed5;" d="M51 530l3 21q37 253 196 402t403 149t363.5 -155t84.5 -396l-3 -21q-39 -254 -197.5 -402.5t-402.5 -148.5t-364 154.5t-83 396.5zM235 1225l2 -6h296l161 136l122 -136h298l2 6l-266 250h-275zM389 530q-22 -140 9 -215.5t130 -75.5q187 0 233 291l3 21 q20 136 -11 213.5t-130 77.5t-156 -81t-75 -210zM1034 1459q117 6 117 49v6q8 29 -19.5 41.5t-80.5 12.5l26 120q172 0 254.5 -42t71.5 -122q-9 -53 -49.5 -82.5t-92.5 -36.5l-8 -52h-215z" />
<glyph unicode="&#x1ed6;" horiz-adv-x="1416" d="M99 597l39 262q41 278 236.5 448t467.5 170t422 -176.5t111 -441.5l-39 -262q-43 -280 -237 -449t-466 -169t-423.5 176.5t-110.5 441.5zM412 1546l326 212h278l261 -212l-2 -6h-291l-122 116l-158 -116h-290zM436 597q-25 -164 33.5 -261t191.5 -97t223.5 101t114.5 257 l39 264q24 162 -34 259t-191.5 97t-224 -100.5t-113.5 -255.5zM628 1853q11 72 55 124t95 52t131 -34.5t109 -34.5q51 0 66 88l123 -47q-12 -72 -57.5 -123.5t-101 -51.5t-131 35t-116 35t-51.5 -79z" />
<glyph unicode="&#x1ed7;" d="M51 530l3 21q37 253 196 402t403 149t363.5 -155t84.5 -396l-3 -21q-39 -254 -197.5 -402.5t-402.5 -148.5t-364 154.5t-83 396.5zM227 1204l326 212h278l261 -212l-2 -6h-291l-122 116l-158 -116h-290zM389 530q-22 -140 9 -215.5t130 -75.5q187 0 233 291l3 21 q20 136 -11 213.5t-130 77.5t-156 -81t-75 -210zM443 1511q11 72 55 124t95 52t131 -34.5t109 -34.5q51 0 66 88l123 -47q-12 -72 -57.5 -123.5t-101 -51.5t-131 35t-116 35t-51.5 -79z" />
<glyph unicode="&#x1ed8;" horiz-adv-x="1416" d="M99 597l39 262q41 278 236.5 448t467.5 170t422 -176.5t111 -441.5l-39 -262q-43 -280 -237 -449t-466 -169t-423.5 176.5t-110.5 441.5zM383 -371l39 260h381l-39 -260h-381zM436 597q-25 -164 33.5 -261t191.5 -97t223.5 101t114.5 257l39 264q24 162 -34 259 t-191.5 97t-224 -100.5t-113.5 -255.5zM473 1608l4 26l336 240h193l268 -244l-3 -22h-265l-118 126l-155 -126h-260z" />
<glyph unicode="&#x1ed9;" d="M51 530l3 21q37 253 196 402t403 149t363.5 -155t84.5 -396l-3 -21q-39 -254 -197.5 -402.5t-402.5 -148.5t-364 154.5t-83 396.5zM250 -371l39 260h381l-39 -260h-381zM289 1265l4 26l336 240h193l268 -244l-3 -22h-265l-118 126l-155 -126h-260zM389 530 q-22 -140 9 -215.5t130 -75.5q187 0 233 291l3 21q20 136 -11 213.5t-130 77.5t-156 -81t-75 -210z" />
<glyph unicode="&#x1eda;" horiz-adv-x="1452" d="M94 597l39 262q41 278 236.5 448t475.5 170q135 0 244.5 -50t180.5 -140q98 33 160.5 112.5t80.5 196.5h224q-60 -396 -371 -511q22 -107 6 -226l-39 -262q-43 -280 -237 -449t-466 -169t-423.5 176.5t-110.5 441.5zM431 597q-25 -164 33.5 -261t191.5 -97t223.5 101 t114.5 257l39 264q24 162 -34 259t-191.5 97t-224 -100.5t-113.5 -255.5zM714 1601l239 261h370l2 -6l-318 -260h-291z" />
<glyph unicode="&#x1edb;" horiz-adv-x="1199" d="M51 530l3 21q37 253 196 402t393.5 149t358.5 -137q113 84 143 272h226q-48 -310 -287 -418q37 -116 17 -268l-3 -21q-39 -254 -197.5 -402.5t-402.5 -148.5t-364 154.5t-83 396.5zM389 530q-22 -140 9 -215.5t130 -75.5q187 0 233 291l3 21q20 136 -11 213.5t-130 77.5 t-156 -81t-75 -210zM518 1284l239 261h370l2 -6l-318 -260h-291z" />
<glyph unicode="&#x1edc;" horiz-adv-x="1452" d="M94 597l39 262q41 278 236.5 448t475.5 170q135 0 244.5 -50t180.5 -140q98 33 160.5 112.5t80.5 196.5h224q-60 -396 -371 -511q22 -107 6 -226l-39 -262q-43 -280 -237 -449t-466 -169t-423.5 176.5t-110.5 441.5zM431 597q-25 -164 33.5 -261t191.5 -97t223.5 101 t114.5 257l39 264q24 162 -34 259t-191.5 97t-224 -100.5t-113.5 -255.5zM500 1854l3 6h370l170 -266h-297z" />
<glyph unicode="&#x1edd;" horiz-adv-x="1199" d="M51 530l3 21q37 253 196 402t393.5 149t358.5 -137q113 84 143 272h226q-48 -310 -287 -418q37 -116 17 -268l-3 -21q-39 -254 -197.5 -402.5t-402.5 -148.5t-364 154.5t-83 396.5zM305 1537l3 6h370l170 -266h-297zM389 530q-22 -140 9 -215.5t130 -75.5q187 0 233 291 l3 21q20 136 -11 213.5t-130 77.5t-156 -81t-75 -210z" />
<glyph unicode="&#x1ede;" horiz-adv-x="1452" d="M94 597l39 262q41 278 236.5 448t475.5 170q135 0 244.5 -50t180.5 -140q98 33 160.5 112.5t80.5 196.5h224q-60 -396 -371 -511q22 -107 6 -226l-39 -262q-43 -280 -237 -449t-466 -169t-423.5 176.5t-110.5 441.5zM431 597q-25 -164 33.5 -261t191.5 -97t223.5 101 t114.5 257l39 264q24 162 -34 259t-191.5 97t-224 -100.5t-113.5 -255.5zM746 1710q141 6 141 60v6q10 34 -22.5 48.5t-96.5 14.5l28 145q207 0 306.5 -50.5t84.5 -146.5q-9 -62 -58 -97.5t-113 -43.5l-10 -62h-257z" />
<glyph unicode="&#x1edf;" horiz-adv-x="1199" d="M51 530l3 21q37 253 196 402t393.5 149t358.5 -137q113 84 143 272h226q-48 -310 -287 -418q37 -116 17 -268l-3 -21q-39 -254 -197.5 -402.5t-402.5 -148.5t-364 154.5t-83 396.5zM389 530q-22 -140 9 -215.5t130 -75.5q187 0 233 291l3 21q20 136 -11 213.5t-130 77.5 t-156 -81t-75 -210zM551 1394q141 6 141 60v6q10 34 -22.5 48.5t-96.5 14.5l28 145q207 0 306.5 -50.5t84.5 -146.5q-9 -62 -58 -97.5t-113 -43.5l-10 -62h-257z" />
<glyph unicode="&#x1ee0;" horiz-adv-x="1452" d="M94 597l39 262q41 278 236.5 448t475.5 170q135 0 244.5 -50t180.5 -140q98 33 160.5 112.5t80.5 196.5h224q-60 -396 -371 -511q22 -107 6 -226l-39 -262q-43 -280 -237 -449t-466 -169t-423.5 176.5t-110.5 441.5zM431 597q-25 -164 33.5 -261t191.5 -97t223.5 101 t114.5 257l39 264q24 162 -34 259t-191.5 97t-224 -100.5t-113.5 -255.5zM494 1647q13 97 82 165t160 68q53 0 149.5 -41.5t138 -41.5t70 32.5t34.5 77.5l171 -51q-14 -99 -82.5 -166t-147 -67t-169.5 42t-133 42t-69.5 -32.5t-32.5 -77.5z" />
<glyph unicode="&#x1ee1;" d="M51 530l3 21q37 253 196 402t403 149t363.5 -155t84.5 -396l-3 -21q-39 -254 -197.5 -402.5t-402.5 -148.5t-364 154.5t-83 396.5zM299 1330q13 97 82 165t160 68q53 0 149.5 -41.5t138 -41.5t70 32.5t34.5 77.5l171 -51q-14 -99 -82.5 -166t-147 -67t-169.5 42t-133 42 t-69.5 -32.5t-32.5 -77.5zM389 530q-22 -140 9 -215.5t130 -75.5q187 0 233 291l3 21q20 136 -11 213.5t-130 77.5t-156 -81t-75 -210z" />
<glyph unicode="&#x1ee2;" horiz-adv-x="1452" d="M94 597l39 262q41 278 236.5 448t475.5 170q135 0 244.5 -50t180.5 -140q98 33 160.5 112.5t80.5 196.5h224q-60 -396 -371 -511q22 -107 6 -226l-39 -262q-43 -280 -237 -449t-466 -169t-423.5 176.5t-110.5 441.5zM368 -362l39 260h381l-39 -260h-381zM431 597 q-25 -164 33.5 -261t191.5 -97t223.5 101t114.5 257l39 264q24 162 -34 259t-191.5 97t-224 -100.5t-113.5 -255.5z" />
<glyph unicode="&#x1ee3;" horiz-adv-x="1199" d="M51 530l3 21q37 253 196 402t393.5 149t358.5 -137q113 84 143 272h226q-48 -310 -287 -418q37 -116 17 -268l-3 -21q-39 -254 -197.5 -402.5t-402.5 -148.5t-364 154.5t-83 396.5zM250 -371l39 260h381l-39 -260h-381zM389 530q-22 -140 9 -215.5t130 -75.5 q187 0 233 291l3 21q20 136 -11 213.5t-130 77.5t-156 -81t-75 -210z" />
<glyph unicode="&#x1ee4;" horiz-adv-x="1417" d="M104 512l141 944h339l-141 -944q-22 -140 37.5 -206.5t182 -66.5t203 69t101.5 204l141 944h339l-141 -944q-40 -260 -224.5 -396.5t-449 -136.5t-415.5 143t-113 390zM383 -371l39 260h381l-39 -260h-381z" />
<glyph unicode="&#x1ee5;" d="M77 462l93 620h337l-93 -622q-20 -132 5.5 -176.5t86.5 -44.5q115 0 182 63l117 780h338l-162 -1082h-272l-16 157q-127 -178 -329 -178q-162 0 -243 119t-44 364zM127 -362l39 260h381l-39 -260h-381z" />
<glyph unicode="&#x1ee6;" horiz-adv-x="1417" d="M104 512l141 944h339l-141 -944q-22 -140 37.5 -206.5t182 -66.5t203 69t101.5 204l141 944h339l-141 -944q-40 -260 -224.5 -396.5t-449 -136.5t-415.5 143t-113 390zM732 1715q141 6 141 60v6q10 34 -22.5 48.5t-96.5 14.5l28 145q207 0 306.5 -50.5t84.5 -146.5 q-9 -62 -58 -97.5t-113 -43.5l-10 -62h-257z" />
<glyph unicode="&#x1ee7;" d="M77 462l93 620h337l-93 -622q-20 -132 5.5 -176.5t86.5 -44.5q115 0 182 63l117 780h338l-162 -1082h-272l-16 157q-127 -178 -329 -178q-162 0 -243 119t-44 364zM547 1373q141 6 141 60v6q10 34 -22.5 48.5t-96.5 14.5l28 145q207 0 306.5 -50.5t84.5 -146.5 q-9 -62 -58 -97.5t-113 -43.5l-10 -62h-257z" />
<glyph unicode="&#x1ee8;" horiz-adv-x="1475" d="M104 512l141 944h339l-141 -944q-22 -140 37.5 -206.5t182 -66.5t203 69t101.5 204l141 944h339l-28 -182l6 -2q85 18 129 102.5t68 241.5h216l2 -5q-35 -255 -141 -388t-310 -157l-83 -554q-40 -260 -224.5 -396.5t-449 -136.5t-415.5 143t-113 390zM717 1606l239 261 h370l2 -6l-318 -260h-291z" />
<glyph unicode="&#x1ee9;" horiz-adv-x="1146" d="M77 462l93 620h337l-93 -622q-20 -132 5.5 -176.5t86.5 -44.5q115 0 182 63l117 780h338l-19 -127l5 -2q142 27 172 228h195l2 -6q-24 -181 -121.5 -279t-279.5 -121l-116 -775h-272l-16 157q-127 -178 -329 -178q-162 0 -243 119t-44 364zM514 1263l239 261h370l2 -6 l-318 -260h-291z" />
<glyph unicode="&#x1eea;" horiz-adv-x="1475" d="M104 512l141 944h339l-141 -944q-22 -140 37.5 -206.5t182 -66.5t203 69t101.5 204l141 944h339l-28 -182l6 -2q85 18 129 102.5t68 241.5h216l2 -5q-35 -255 -141 -388t-310 -157l-83 -554q-40 -260 -224.5 -396.5t-449 -136.5t-415.5 143t-113 390zM504 1859l3 6h370 l170 -266h-297z" />
<glyph unicode="&#x1eeb;" horiz-adv-x="1146" d="M77 462l93 620h337l-93 -622q-20 -132 5.5 -176.5t86.5 -44.5q115 0 182 63l117 780h338l-19 -127l5 -2q142 27 172 228h195l2 -6q-24 -181 -121.5 -279t-279.5 -121l-116 -775h-272l-16 157q-127 -178 -329 -178q-162 0 -243 119t-44 364zM301 1516l3 6h370l170 -266 h-297z" />
<glyph unicode="&#x1eec;" horiz-adv-x="1475" d="M104 512l141 944h339l-141 -944q-22 -140 37.5 -206.5t182 -66.5t203 69t101.5 204l141 944h339l-28 -182l6 -2q85 18 129 102.5t68 241.5h216l2 -5q-35 -255 -141 -388t-310 -157l-83 -554q-40 -260 -224.5 -396.5t-449 -136.5t-415.5 143t-113 390zM750 1715 q141 6 141 60v6q10 34 -22.5 48.5t-96.5 14.5l28 145q207 0 306.5 -50.5t84.5 -146.5q-9 -62 -58 -97.5t-113 -43.5l-10 -62h-257z" />
<glyph unicode="&#x1eed;" horiz-adv-x="1146" d="M77 462l93 620h337l-93 -622q-20 -132 5.5 -176.5t86.5 -44.5q115 0 182 63l117 780h338l-19 -127l5 -2q142 27 172 228h195l2 -6q-24 -181 -121.5 -279t-279.5 -121l-116 -775h-272l-16 157q-127 -178 -329 -178q-162 0 -243 119t-44 364zM547 1373q141 6 141 60v6 q10 34 -22.5 48.5t-96.5 14.5l28 145q207 0 306.5 -50.5t84.5 -146.5q-9 -62 -58 -97.5t-113 -43.5l-10 -62h-257z" />
<glyph unicode="&#x1eee;" horiz-adv-x="1475" d="M104 512l141 944h339l-141 -944q-22 -140 37.5 -206.5t182 -66.5t203 69t101.5 204l141 944h339l-28 -182l6 -2q85 18 129 102.5t68 241.5h216l2 -5q-35 -255 -141 -388t-310 -157l-83 -554q-40 -260 -224.5 -396.5t-449 -136.5t-415.5 143t-113 390zM498 1652 q13 97 82 165t160 68q53 0 149.5 -41.5t138 -41.5t70 32.5t34.5 77.5l171 -51q-14 -99 -82.5 -166t-147 -67t-169.5 42t-133 42t-69.5 -32.5t-32.5 -77.5z" />
<glyph unicode="&#x1eef;" horiz-adv-x="1146" d="M77 462l93 620h337l-93 -622q-20 -132 5.5 -176.5t86.5 -44.5q115 0 182 63l117 780h338l-19 -127l5 -2q142 27 172 228h195l2 -6q-24 -181 -121.5 -279t-279.5 -121l-116 -775h-272l-16 157q-127 -178 -329 -178q-162 0 -243 119t-44 364zM295 1309q13 97 82 165t160 68 q53 0 149.5 -41.5t138 -41.5t70 32.5t34.5 77.5l171 -51q-14 -99 -82.5 -166t-147 -67t-169.5 42t-133 42t-69.5 -32.5t-32.5 -77.5z" />
<glyph unicode="&#x1ef0;" horiz-adv-x="1475" d="M104 512l141 944h339l-141 -944q-22 -140 37.5 -206.5t182 -66.5t203 69t101.5 204l141 944h339l-28 -182l6 -2q85 18 129 102.5t68 241.5h216l2 -5q-35 -255 -141 -388t-310 -157l-83 -554q-40 -260 -224.5 -396.5t-449 -136.5t-415.5 143t-113 390zM401 -371l39 260 h381l-39 -260h-381z" />
<glyph unicode="&#x1ef1;" horiz-adv-x="1146" d="M77 462l93 620h337l-93 -622q-20 -132 5.5 -176.5t86.5 -44.5q115 0 182 63l117 780h338l-19 -127l5 -2q142 27 172 228h195l2 -6q-24 -181 -121.5 -279t-279.5 -121l-116 -775h-272l-16 157q-127 -178 -329 -178q-162 0 -243 119t-44 364zM127 -362l39 260h381l-39 -260 h-381z" />
<glyph unicode="&#x1ef2;" horiz-adv-x="1307" d="M133 1456h366l193 -637l6 -1l386 638h366l-636 -944l-76 -512h-337l79 528zM440 1859l3 6h370l170 -266h-297z" />
<glyph unicode="&#x1ef3;" horiz-adv-x="1053" d="M-52 -411l78 241q24 -6 69 -6t87.5 24t67.5 70l37 70l-210 1094h359l71 -605v-5l6 -2l270 612h360l-617 -1243q-67 -120 -158.5 -198t-263.5 -78q-52 0 -156 26zM254 1516l3 6h370l170 -266h-297z" />
<glyph unicode="&#x1ef4;" horiz-adv-x="1307" d="M133 1456h366l193 -637l6 -1l386 638h366l-636 -944l-76 -512h-337l79 528zM340 -352l39 260h381l-39 -260h-381z" />
<glyph unicode="&#x1ef5;" horiz-adv-x="1053" d="M-52 -411l78 241q24 -6 69 -6t87.5 24t67.5 70l37 70l-210 1094h359l71 -605v-5l6 -2l270 612h360l-617 -1243q-67 -120 -158.5 -198t-263.5 -78q-52 0 -156 26zM438 -546l39 260h381l-39 -260h-381z" />
<glyph unicode="&#x1ef6;" horiz-adv-x="1307" d="M133 1456h366l193 -637l6 -1l386 638h366l-636 -944l-76 -512h-337l79 528zM686 1715q141 6 141 60v6q10 34 -22.5 48.5t-96.5 14.5l28 145q207 0 306.5 -50.5t84.5 -146.5q-9 -62 -58 -97.5t-113 -43.5l-10 -62h-257z" />
<glyph unicode="&#x1ef7;" horiz-adv-x="1053" d="M-52 -411l78 241q24 -6 69 -6t87.5 24t67.5 70l37 70l-210 1094h359l71 -605v-5l6 -2l270 612h360l-617 -1243q-67 -120 -158.5 -198t-263.5 -78q-52 0 -156 26zM500 1373q141 6 141 60v6q10 34 -22.5 48.5t-96.5 14.5l28 145q207 0 306.5 -50.5t84.5 -146.5 q-9 -62 -58 -97.5t-113 -43.5l-10 -62h-257z" />
<glyph unicode="&#x1ef8;" horiz-adv-x="1307" d="M133 1456h366l193 -637l6 -1l386 638h366l-636 -944l-76 -512h-337l79 528zM434 1652q13 97 82 165t160 68q53 0 149.5 -41.5t138 -41.5t70 32.5t34.5 77.5l171 -51q-14 -99 -82.5 -166t-147 -67t-169.5 42t-133 42t-69.5 -32.5t-32.5 -77.5z" />
<glyph unicode="&#x1ef9;" horiz-adv-x="1053" d="M-52 -411l78 241q24 -6 69 -6t87.5 24t67.5 70l37 70l-210 1094h359l71 -605v-5l6 -2l270 612h360l-617 -1243q-67 -120 -158.5 -198t-263.5 -78q-52 0 -156 26zM248 1309q13 97 82 165t160 68q53 0 149.5 -41.5t138 -41.5t70 32.5t34.5 77.5l171 -51q-14 -99 -82.5 -166 t-147 -67t-169.5 42t-133 42t-69.5 -32.5t-32.5 -77.5z" />
<glyph unicode="&#x2000;" horiz-adv-x="1089" />
<glyph unicode="&#x2001;" horiz-adv-x="2179" />
<glyph unicode="&#x2002;" horiz-adv-x="1089" />
<glyph unicode="&#x2003;" horiz-adv-x="2179" />
<glyph unicode="&#x2004;" horiz-adv-x="726" />
<glyph unicode="&#x2005;" horiz-adv-x="544" />
<glyph unicode="&#x2006;" horiz-adv-x="363" />
<glyph unicode="&#x2007;" horiz-adv-x="363" />
<glyph unicode="&#x2008;" horiz-adv-x="272" />
<glyph unicode="&#x2009;" horiz-adv-x="435" />
<glyph unicode="&#x200a;" horiz-adv-x="121" />
<glyph unicode="&#x2010;" horiz-adv-x="875" d="M130 497l39 261h589l-39 -261h-589z" />
<glyph unicode="&#x2011;" horiz-adv-x="875" d="M130 497l39 261h589l-39 -261h-589z" />
<glyph unicode="&#x2012;" horiz-adv-x="875" d="M130 497l39 261h589l-39 -261h-589z" />
<glyph unicode="&#x2013;" horiz-adv-x="1412" d="M134 578l50 264h1084l-50 -264h-1084z" />
<glyph unicode="&#x2014;" horiz-adv-x="1675" d="M97 578l63 264h1334l-62 -264h-1335z" />
<glyph unicode="&#x2018;" horiz-adv-x="576" d="M199 912l44 295l139 249h167l-81 -544h-269z" />
<glyph unicode="&#x2019;" horiz-adv-x="577" d="M215 912l81 544h269l-44 -294l-139 -250h-167z" />
<glyph unicode="&#x201a;" horiz-adv-x="629" d="M46 -266l86 575h293l-43 -292l-145 -283h-191z" />
<glyph unicode="&#x201c;" horiz-adv-x="921" d="M177 912l44 295l139 249h167l-81 -544h-269zM505 912l44 295l139 249h167l-81 -544h-269z" />
<glyph unicode="&#x201d;" horiz-adv-x="932" d="M180 912l81 544h269l-44 -294l-139 -250h-167zM516 912l81 544h269l-44 -294l-139 -250h-167z" />
<glyph unicode="&#x201e;" horiz-adv-x="949" d="M58 -216l78 524h246l-41 -275l-139 -249h-144zM415 -216l78 524h246l-41 -275l-139 -249h-144z" />
<glyph unicode="&#x2022;" horiz-adv-x="757" d="M160 706l16 107q16 110 94 175.5t192.5 65.5t175 -67.5t45.5 -173.5l-16 -107q-17 -111 -94 -174.5t-191.5 -63.5t-176 66.5t-45.5 171.5z" />
<glyph unicode="&#x2026;" horiz-adv-x="1587" d="M56 0l43 284h337l-43 -284h-337zM499 0l43 284h337l-43 -284h-337zM919 0l43 284h337l-43 -284h-337z" />
<glyph unicode="&#x202f;" horiz-adv-x="435" />
<glyph unicode="&#x2039;" horiz-adv-x="650" d="M109 541l1 6l1 7l1 6l331 390h206l-292 -400l172 -399h-206z" />
<glyph unicode="&#x203a;" horiz-adv-x="620" d="M19 151l292 400l-172 399h207l213 -390l-2 -13l-1 -6l-330 -390h-207z" />
<glyph unicode="&#x205f;" horiz-adv-x="544" />
<glyph unicode="&#x20ac;" horiz-adv-x="1130" d="M58 472l25 166h146l21 144h-146l25 166h146q40 258 213 393.5t427 135.5q106 0 238 -31l-61 -264q-112 35 -214.5 35t-173.5 -67q-72 -70 -90 -202h396l-25 -166h-396l-22 -144h397l-25 -166h-396q-19 -131 30 -182t161.5 -51t221.5 33l-18 -262q-124 -31 -246 -31 q-242 0 -382.5 130.5t-107.5 348.5l2 14h-146z" />
<glyph unicode="&#x2122;" horiz-adv-x="1298" d="M213 1340l17 116h406l-17 -116h-121l-63 -423h-168l63 423h-117zM621 913l81 543h180l48 -347l6 -1l151 348h175l-81 -543h-147l36 242l-6 1l-119 -243h-83l-50 259h-6l-38 -259h-147z" />
<glyph unicode="&#xe000;" horiz-adv-x="1080" d="M0 0v1080h1080v-1080h-1080z" />
<glyph unicode="&#xfb02;" horiz-adv-x="1295" d="M60 848l35 234h156l17 112q29 194 154.5 290.5t332.5 96.5q57 0 164 -21l-62 -249q-54 10 -107.5 10t-94 -33.5t-48.5 -93.5l-17 -112h214l-35 -234h-214l-127 -848h-339l127 848h-156zM765 0l234 1560h339l-234 -1560h-339z" />
<glyph unicode="&#xfb03;" horiz-adv-x="2036" d="M60 848l35 234h156l17 112q29 194 154.5 290.5t332.5 96.5q57 0 164 -21l-62 -249q-54 10 -107.5 10t-94 -33.5t-48.5 -93.5l-17 -112h214l-35 -234h-214l-127 -848h-339l127 848h-156zM797 848l35 234h157l8 52q33 224 181.5 335.5t396.5 111.5q139 0 343 -58l-85 -266 q-83 22 -139 33t-143 11t-146 -44t-70 -123l-8 -52h212l-35 -234h-212l-127 -848h-338l127 848h-157zM1506 0l162 1082h339l-162 -1082h-339z" />
<glyph unicode="&#xfb04;" horiz-adv-x="2029" d="M60 848l35 234h156l17 112q29 194 154.5 290.5t332.5 96.5q57 0 164 -21l-62 -249q-54 10 -107.5 10t-94 -33.5t-48.5 -93.5l-17 -112h214l-35 -234h-214l-127 -848h-339l127 848h-156zM794 848l35 234h156l17 112q29 194 154.5 290.5t332.5 96.5q57 0 164 -21l-62 -249 q-54 10 -107.5 10t-94 -33.5t-48.5 -93.5l-17 -112h214l-35 -234h-214l-127 -848h-339l127 848h-156zM1499 0l234 1560h339l-234 -1560h-339z" />
</font>
</defs>
</svg>
